<svg xmlns="http://www.w3.org/2000/svg" version="1.1" xmlns:xlink="http://www.w3.org/1999/xlink" xmlns:svgjs="http://svgjs.dev/svgjs" viewBox="0 0 800 800"><g transform="matrix(1,0,0,1,0,0)"><path d="M-3.8489964277441686 744.487066304502C-1.4672374382560633 743.1122047805118 1.4672374382560633 743.1122047805118 3.8489964277441686 744.4874512041448L46.15100676722358 768.9104882371098C48.53276575671168 770.2853497611 50.000003194967746 772.8268421023395 50.000003194967746 775.5769500499628V824.4230241158928C50.000003194967746 827.1731320635159 48.53276575671168 829.7146244047555 46.15100676722358 831.0898708283884L3.8489964277441686 855.5129078613534C1.4672374382560633 856.8877693853436 -1.4672374382560633 856.8877693853436 -3.8489964277441686 855.5125229617106L-46.15100676722358 831.0894859287456C-48.53276575671168 829.7146244047555 -50.000003194967746 827.1731320635159 -50.000003194967746 824.4230241158928V775.5769500499628C-50.000003194967746 772.8268421023395 -48.53276575671168 770.2853497611 -46.15100676722358 768.910103337467L-3.8489964277441686 744.487066304502Z " stroke-width="4" stroke="#00bf8f" fill="none" opacity="0.01" transform="matrix(-0.3760375297454275,0.7434960689203691,-0.9307255462640471,-0.7434960689203689,887.6060690603807,427.1506255145664)"></path><path d="M2.849246239176466 734.8370513557868C5.30852914871457 733.4174394370941 8.338518305521006 733.4174394370941 10.79780121505911 734.8374487835356L54.47670051852941 760.0554317277696C56.935983428067516 761.4750436464623 58.450978006470734 764.0992590717499 58.450978006470734 766.938880336884V817.3748462253521C58.450978006470734 820.2144674904862 56.935983428067516 822.8386829157739 54.47670051852941 824.2586922622153L10.79780121505911 849.4766752064494C8.338518305521006 850.896287125142 5.30852914871457 850.896287125142 2.849246239176466 849.4762777787006L-40.82965306429384 824.2582948344665C-43.28893597383194 822.8386829157739 -44.80393055223516 820.2144674904862 -44.80393055223516 817.3748462253521V766.938880336884C-44.80393055223516 764.0992590717499 -43.28893597383194 761.4750436464623 -40.82965306429384 760.0550343000208L2.849246239176466 734.8370513557868Z " stroke-width="4.098039215686274" stroke="#00bd8e" fill="none" opacity="0.029411764705882353" transform="matrix(-0.34004607926803176,0.7755025142027512,-0.9443115219072026,-0.7069639530470615,876.7211075025693,405.99397013826365)"></path><path d="M9.547504164886163 725.1870211482825C12.084310994474265 723.7226588348874 15.209814431575069 723.7226588348874 17.746621261163114 725.1874311041373L62.802409528624366 751.2003599596405C65.33921635821241 752.6647222730355 66.90196807676284 755.3716607823714 66.90196807676284 758.3007953650163V810.3266530760226C66.90196807676284 813.2557876586675 65.33921635821241 815.9627261680034 62.802409528624366 817.4274984372532L17.746621261163114 843.4404272927563C15.209814431575069 844.9047896061514 12.084310994474265 844.9047896061514 9.547504164886163 843.4400173369015L-35.50828410257503 817.4270884813984C-38.045090932163134 815.9627261680034 -39.607842650713565 813.2557876586675 -39.607842650713565 810.3266530760226V758.3007953650163C-39.607842650713565 755.3716607823714 -38.045090932163134 752.6647222730355 -35.50828410257503 751.1999500037857L9.547504164886163 725.1870211482825Z " stroke-width="4.196078431372549" stroke="#00bb8c" fill="none" opacity="0.04882352941176471" transform="matrix(-0.3035667594934478,0.8057613752138109,-0.9565093612599721,-0.6690957374668303,865.182526828783,384.4228851423793)"></path><path d="M16.245746831806855 715.5369909407782C18.860077581444955 714.0278782326807 22.08109529884007 714.0278782326807 24.69542604847811 715.537413424739L71.12810327993026 742.3452881915111C73.74243402956836 743.8544008996087 75.35294288826589 746.6440624929927 75.35294288826589 749.6627103931486V803.2784599266929C75.35294288826589 806.2971078268488 73.74243402956836 809.0867694202327 71.12810327993026 810.5963046122911L24.69542604847811 837.4041793790633C22.08109529884007 838.9132920871607 18.860077581444955 838.9132920871607 16.245746831806855 837.4037568951024L-30.18693039964529 810.5958821283302C-32.80126114928339 809.0867694202327 -34.41177000798092 806.2971078268488 -34.41177000798092 803.2784599266929V749.6627103931486C-34.41177000798092 746.6440624929927 -32.80126114928339 743.8544008996087 -30.18693039964529 742.3448657075503L16.245746831806855 715.5369909407782Z " stroke-width="4.294117647058823" stroke="#00b98b" fill="none" opacity="0.06823529411764706" transform="matrix(-0.26665296770596686,0.8342186289469382,-0.967301660173998,-0.6299726659155152,853.0111624204213,362.5076173325659)"></path><path d="M22.94398949872749 705.8869607332738C25.635844168415588 704.333097630474 28.95237616610501 704.333097630474 31.64423083579311 705.8873957453407L79.45379703123609 733.490216423382C82.14565170092419 735.0440795261818 83.80391769976893 737.916464203614 83.80391769976893 741.0246254212808V796.2302667773632C83.80391769976893 799.33842799503 82.14565170092419 802.2108126724622 79.45379703123609 803.7651107873289L31.64423083579311 831.3679314653701C28.95237616610501 832.9217945681701 25.635844168415588 832.9217945681701 22.94398949872749 831.3674964533034L-24.86557669671555 803.764675775262C-27.557431366403648 802.2108126724622 -29.21569736524833 799.33842799503 -29.21569736524833 796.2302667773632V741.0246254212808C-29.21569736524833 737.916464203614 -27.557431366403648 735.0440795261818 -24.86557669671555 733.4897814113151L22.94398949872749 705.8869607332738Z " stroke-width="4.392156862745098" stroke="#00b789" fill="none" opacity="0.08764705882352941" transform="matrix(-0.2293587176156732,0.8608239198361268,-0.9766730631310994,-0.589678100217533,840.2283939036374,340.31879761759643)"></path><path d="M29.642247424437187 696.2369534139531C32.41162601417528 694.6383399164507 35.82367229215902 694.6383399164507 38.59305088189711 696.237400954126L87.77950604133105 724.6351675434362C90.54888463106914 726.2337810409385 92.25490777006098 729.188888802419 92.25490777006098 732.3865633375966V789.1820965162171C92.25490777006098 792.3797710513948 90.54888463106914 795.3348788128751 87.77950604133105 796.9339398505504L38.59305088189711 825.3317064398607C35.82367229215902 826.930319937363 32.41162601417528 826.930319937363 29.642247424437187 825.3312588996878L-19.544207734996746 796.9334923103775C-22.313586324734842 795.3348788128751 -24.019609463726738 792.3797710513948 -24.019609463726738 789.1820965162171V732.3865633375966C-24.019609463726738 729.188888802419 -22.313586324734842 726.2337810409385 -19.544207734996746 724.6347200032634L29.642247424437187 696.2369534139531Z " stroke-width="4.490196078431373" stroke="#00b688" fill="none" opacity="0.10705882352941176" transform="matrix(-0.19173856096635297,0.8855306406490496,-0.9846102849040481,-0.5482973594163145,826.8561153511007,317.92726762834354)"></path><path d="M36.340490091357765 686.5869003182653C39.187392601145916 684.9435364260605 42.69495315942396 684.9435364260605 45.541855669212055 686.5873603865441L96.10519979263688 715.7800728871234C98.95210230242498 717.4234367793283 100.70588258156403 720.4612676248569 100.70588258156403 723.7484554775453V782.133880478704C100.70588258156403 785.4210683313925 98.95210230242498 788.458899176921 96.10519979263688 790.1027231374047L45.541855669212055 819.2954356379842C42.69495315942396 820.9387995301888 39.187392601145916 820.9387995301888 36.340490091357765 819.2949755697052L-14.222854032067005 790.1022630691259C-17.069756541855156 788.458899176921 -18.82353682099415 785.4210683313925 -18.82353682099415 782.133880478704V723.7484554775453C-18.82353682099415 720.4612676248569 -17.069756541855156 717.4234367793283 -14.222854032067005 715.7796128188446L36.340490091357765 686.5869003182653Z " stroke-width="4.588235294117647" stroke="#00b486" fill="none" opacity="0.12647058823529414" transform="matrix(-0.1538475083889274,0.9082960065033312,-0.9911021292253834,-0.5059175558697637,812.9167040622598,295.4038454158472)"></path><path d="M43.0387327582784 676.9368853695499C45.96315918811649 675.2487710826427 49.5662340266889 675.2487710826427 52.49066045652705 676.9373579659349L104.43089354394272 706.9250163777833C107.35531997378081 708.6131306646905 109.15685739306701 711.7336845942673 109.15685739306701 715.1103857644666V775.0857025881635C109.15685739306701 778.4624037583628 107.35531997378081 781.5829576879396 104.43089354394272 783.2715445712316L52.49066045652705 813.2592029830801C49.5662340266889 814.9473172699873 45.96315918811649 814.9473172699873 43.0387327582784 813.2587303866951L-8.90150032913732 783.2710719748468C-11.825926758975413 781.5829576879396 -13.627464178261619 778.4624037583628 -13.627464178261619 775.0857025881635V715.1103857644666C-13.627464178261619 711.7336845942673 -11.825926758975413 708.6131306646905 -8.90150032913732 706.9245437813984L43.0387327582784 676.9368853695499Z " stroke-width="4.686274509803922" stroke="#00b285" fill="none" opacity="0.1458823529411765" transform="matrix(-0.11574094961432055,0.9290811218929518,-0.9961395044382417,-0.4626274285987495,798.4329903442814,272.8192489627163)"></path><path d="M49.7369906839881 667.2868551620456C52.73894103387619 665.553990480436 56.43753015274291 665.553990480436 59.439480502631 667.2873402865366L112.75660255403761 698.069944609654C115.75855290392576 699.8028092912637 117.60784746335906 703.0060863048886 117.60784746335906 706.4723007925988V768.0375094388337C117.60784746335906 771.5037239265439 115.75855290392576 774.7070009401689 112.75660255403761 776.4403507462695L59.439480502631 807.2229550693869C56.43753015274291 808.9558197509966 52.73894103387619 808.9558197509966 49.7369906839881 807.222469944896L-3.5801313674185167 776.4398656217786C-6.5820817173066075 774.7070009401689 -8.431376276739968 771.5037239265439 -8.431376276739968 768.0375094388337V706.4723007925988C-8.431376276739968 703.0060863048886 -6.5820817173066075 699.8028092912637 -3.5801313674185167 698.0694594851632L49.7369906839881 667.2868551620456Z " stroke-width="4.784313725490196" stroke="#00b083" fill="none" opacity="0.16529411764705884" transform="matrix(-0.07747457316054057,0.9478510406236279,-0.9997154361075132,-0.4185171741808419,783.4282148454204,250.24375080313789)"></path><path d="M56.43523335090873 657.6368249545412C59.51470762084682 655.8592098782292 63.30881102000785 655.8592098782292 66.388285289946 657.6373226071382L121.08229630534345 689.2148728415248C124.1617705752816 690.9924879178368 126.05882227486211 694.27848801551 126.05882227486211 697.8342158207311V760.9893162895041C126.05882227486211 764.5450440947252 124.1617705752816 767.8310441923984 121.08229630534345 769.6091569213073L66.388285289946 801.1867071556939C63.30881102000785 802.9643222320059 59.51470762084682 802.9643222320059 56.43523335090873 801.1862095030968L1.7412223355112246 769.6086592687104C-1.3382519344269213 767.8310441923984 -3.23530363400738 764.5450440947252 -3.23530363400738 760.9893162895041V697.8342158207311C-3.23530363400738 694.27848801551 -1.3382519344269213 690.9924879178368 1.7412223355112246 689.2143751889278L56.43523335090873 657.6368249545412Z " stroke-width="4.882352941176471" stroke="#00ae82" fill="none" opacity="0.1847058823529412" transform="matrix(-0.03910428560949536,0.9645748185680597,-1.001825076573981,-0.37367827548523996,767.9260131838173,227.74716136897717)"></path><path d="M63.133491276618486 647.986794747037C66.29048946660657 646.1644292760226 70.18010714606191 646.1644292760226 73.33710533605006 647.9873049277401L129.40800531543846 680.3598010733956C132.5650035054266 682.1821665444102 134.50981234515427 685.5508897261315 134.50981234515427 689.1961308488634V753.9411231401746C134.50981234515427 757.5863642629065 132.5650035054266 760.9550874446279 129.40800531543846 762.7779630963453L73.33710533605006 795.1504592420008C70.18010714606191 796.9728247130154 66.29048946660657 796.9728247130154 63.133491276618486 795.1499490612979L7.062591297230085 762.7774529156424C3.905593107241941 760.9550874446279 1.9607842675142706 757.5863642629065 1.9607842675142706 753.9411231401746V689.1961308488634C1.9607842675142706 685.5508897261315 3.905593107241941 682.1821665444102 7.062591297230085 680.3592908926927L63.133491276618486 647.986794747037Z " stroke-width="4.980392156862745" stroke="#00ac80" fill="none" opacity="0.20411764705882354" transform="matrix(-0.0006861305896105896,0.9792255591641319,-1.0024657114384865,-0.3282033285480724,751.950371444117,205.39857798869818)"></path><path d="M69.83173394353912 638.3367645395327C73.06625605357726 636.4696486738158 77.05138801332686 636.4696486738158 80.285910123365 638.3372872483417L137.7336990667443 671.5047293052664C140.96822117678244 673.3718451709833 142.96078715665732 676.8232914367528 142.96078715665732 680.5580458769956V746.8929299908449C142.96078715665732 750.6276844310877 140.96822117678244 754.0791306968572 137.7336990667443 755.9467692713831L80.285910123365 789.1142113283078C77.05138801332686 790.9813271940247 73.06625605357726 790.9813271940247 69.83173394353912 789.1136886194988L12.383945000159827 755.9462465625742C9.149422890121684 754.0791306968572 7.156856910246859 750.6276844310877 7.156856910246859 746.8929299908449V680.5580458769956C7.156856910246859 676.8232914367528 9.149422890121684 673.3718451709833 12.383945000159827 671.5042065964574L69.83173394353912 638.3367645395327Z " stroke-width="5.078431372549019" stroke="#00a97f" fill="none" opacity="0.2235294117647059" transform="matrix(0.03772379241929018,0.9917804515914633,-1.0016367629675564,-0.2821858678899801,735.5256019821492,183.26613658160773)"></path><path d="M76.5299766104597 628.686741961423C79.84202264054784 626.7748757010036 83.9226688805918 626.7748757010036 87.23471491067994 628.6872771983379L146.05939281805018 662.6496651665316C149.37143884813827 664.561531426951 151.41176196816025 668.0957007767687 151.41176196816025 671.9199685345224V739.8447444709097C151.41176196816025 743.6690122286634 149.37143884813827 747.2031815784812 146.05939281805018 749.1155830758155L87.23471491067994 783.0779710440092C83.9226688805918 784.9898373044285 79.84202264054784 784.9898373044285 76.5299766104597 783.0774358070942L17.70529870308951 749.1150478389005C14.393252673001427 747.2031815784812 12.35292955297939 743.6690122286634 12.35292955297939 739.8447444709097V671.9199685345224C12.35292955297939 668.0957007767687 14.393252673001427 664.561531426951 17.70529870308951 662.6491299296166L76.5299766104597 628.686741961423Z " stroke-width="5.176470588235294" stroke="#00a77d" fill="none" opacity="0.24294117647058827" transform="matrix(0.07606940934214798,1.0022208015741065,-0.9993397904163341,-0.23572019058013244,718.6763101236425,161.4169926360774)"></path><path d="M83.2282345361694 619.036704124524C86.61780448630753 617.0800874694023 90.79396500664586 617.0800874694023 94.18353495678394 619.0372518895451L154.38510182814508 653.7945857690079C157.77467177828322 655.7512024241296 159.86275203845236 659.3680948579954 159.86275203845236 663.28187593326V732.7965436921855C159.86275203845236 736.7103247674502 157.77467177828322 740.327217201316 154.38510182814508 742.2843816214588L94.18353495678394 777.0417155009216C90.79396500664586 778.9983321560433 86.61780448630753 778.9983321560433 83.2282345361694 777.0411677359006L23.026667664808315 742.2838338564378C19.637097714670176 740.327217201316 17.54901745450104 736.7103247674502 17.54901745450104 732.7965436921855V663.28187593326C17.54901745450104 659.3680948579954 19.637097714670176 655.7512024241296 23.026667664808315 653.7940380039868L83.2282345361694 619.036704124524Z " stroke-width="5.2745098039215685" stroke="#00a57c" fill="none" opacity="0.2623529411764706" transform="matrix(0.11429475270912667,1.0105320547696808,-0.995578487269072,-0.1889011793525459,701.4273642293768,139.9170255158863)"></path><path d="M89.92647720309006 609.3866739170198C93.3935710732782 607.3853068671956 97.66524587391078 607.3853068671956 101.13233974409897 609.3872342101469L162.71079557945095 644.9395140008787C166.17788944963908 646.9408810507028 168.31372684995543 650.640496568617 168.31372684995543 654.6437909613924V725.748350542856C168.31372684995543 729.7516449356315 166.17788944963908 733.4512604535455 162.71079557945095 735.4531877964968L101.13233974409897 771.0054675872286C97.66524587391078 773.0068346370527 93.3935710732782 773.0068346370527 89.92647720309006 771.0049072941015L28.348021367738085 735.4526275033697C24.880927497549948 733.4512604535455 22.745090097233657 729.7516449356315 22.745090097233657 725.748350542856V654.6437909613924C22.745090097233657 650.640496568617 24.880927497549948 646.9408810507028 28.348021367738085 644.9389537077516L89.92647720309006 609.3866739170198Z " stroke-width="5.372549019607844" stroke="#00a37a" fill="none" opacity="0.281764705882353" transform="matrix(0.15234404268371843,1.016703812717761,-0.9903586754018515,-0.14182412508180217,683.8038711976656,118.83075949312354)"></path><path d="M96.6247198700107 599.73665133891C100.16933766024883 597.6905338943834 104.53652674117578 597.6905338943834 108.08114453141391 599.7372241601431L171.03648933075678 636.0844498621439C174.58110712099491 638.1305673066705 176.76470166145842 641.9129059086329 176.76470166145842 646.0057136189191V718.7001650229208C176.76470166145842 722.7929727332072 174.58110712099491 726.5753113351694 171.03648933075678 728.6220016009291L108.08114453141391 764.96922730293C104.53652674117578 767.0153447474565 100.16933766024883 767.0153447474565 96.6247198700107 764.968654481697L33.669375070667826 728.6214287796961C30.12475728042969 726.5753113351694 27.941162739966188 722.7929727332072 27.941162739966188 718.7001650229208V646.0057136189191C27.941162739966188 641.9129059086329 30.12475728042969 638.1305673066705 33.669375070667826 636.0838770409109L96.6247198700107 599.73665133891Z " stroke-width="5.470588235294118" stroke="#00a178" fill="none" opacity="0.3011764705882353" transform="matrix(0.19016176780212887,1.0207298413329189,-0.983688296176601,-0.09458454892595689,665.8311400402586,98.22112301448675)"></path><path d="M103.32297779572042 590.0866287608002C106.94511950600855 587.9957609215711 111.40782286722981 587.9957609215711 115.02996457751794 590.0872141101393L179.36219834085176 627.2293857234092C182.9843400511399 629.3202535626383 185.2156917317505 633.1853152486487 185.2156917317505 637.3676362764459V711.6519795029858C185.2156917317505 715.8343005307829 182.9843400511399 719.6993622167934 179.36219834085176 721.7908154053615L115.02996457751794 758.9329870186314C111.40782286722981 761.0238548578604 106.94511950600855 761.0238548578604 103.32297779572042 758.9324016692923L38.9907440323866 721.7902300560224C35.36860232209847 719.6993622167934 33.13725064148787 715.8343005307829 33.13725064148787 711.6519795029858V637.3676362764459C33.13725064148787 633.1853152486487 35.36860232209847 629.3202535626383 38.9907440323866 627.2288003740701L103.32297779572042 590.0866287608002Z " stroke-width="5.568627450980392" stroke="#009f77" fill="none" opacity="0.3205882352941177" transform="matrix(0.2276927653080065,1.022608071940404,-0.9755773984798722,-0.04727802444463558,647.5346560181185,78.14937289793914)"></path><path d="M110.02122046264105 580.4365832945069C113.72088609297919 578.3009650605754 118.27910373449475 578.3009650605754 121.97876936483294 580.437181171952L187.68789209215765 618.374298696491C191.38755772249579 620.5099169304224 193.66666654325354 624.457701700481 193.66666654325354 628.7295360457892V704.6037710948672C193.66666654325354 708.8756054401751 191.38755772249579 712.8233902102338 187.68789209215765 714.9596063216104L121.97876936483294 752.8967238461494C118.27910373449475 755.0323420800809 113.72088609297919 755.0323420800809 110.02122046264105 752.8961259687043L44.31209773531634 714.9590084441653C40.61243210497821 712.8233902102338 38.333323284220455 708.8756054401751 38.333323284220455 704.6037710948672V628.7295360457892C38.333323284220455 624.457701700481 40.61243210497821 620.5099169304224 44.31209773531634 618.3737008190459L110.02122046264105 580.4365832945069Z " stroke-width="5.666666666666667" stroke="#009c75" fill="none" opacity="0.34" transform="matrix(0.2648823009671811,1.0223405948650293,-0.9660381237242013,1.6653345369377348e-16,628.9400589333417,58.67487884844624)"></path><path d="M116.71947838835075 570.7865683457916C120.49666793873888 568.6061997171578 125.15039986054876 568.6061997171578 128.92758941093695 570.7871787513427L196.0136011022525 609.5192421871508C199.79079065264068 611.6996108157847 202.1176566135456 615.7301186698915 202.1176566135456 620.0914663327105V697.5555932043266C202.1176566135456 701.9169408671455 199.79079065264068 705.9474487212523 196.0136011022525 708.1284277554373L128.92758941093695 746.8604911912454C125.15039986054876 749.0408598198792 120.49666793873888 749.0408598198792 116.71947838835075 746.8598807856943L49.633466697035146 708.1278173498862C45.85627714664702 705.9474487212523 43.52941118574205 701.9169408671455 43.52941118574205 697.5555932043266V620.0914663327105C43.52941118574205 615.7301186698915 45.85627714664702 611.6996108157847 49.633466697035146 609.5186317815997L116.71947838835075 570.7865683457916Z " stroke-width="5.764705882352941" stroke="#009a73" fill="none" opacity="0.3594117647058824" transform="matrix(0.3016761482478564,1.019933645596388,-0.9550846878342307,0.04715437825257318,610.0731033601893,39.85504730413152)"></path><path d="M123.41772105527141 561.1365381382873C127.27243452570954 558.911419114951 132.02168072781373 558.911419114951 135.87639419825192 561.1371610719444L204.3392948535584 600.6641704190215C208.19400832399654 602.8892894423578 210.5686314250486 607.0025203805128 210.5686314250486 611.4533813608427V690.5074000549969C210.5686314250486 694.9582610353267 208.19400832399654 699.0714919734817 204.3392948535584 701.2972339304752L135.87639419825192 740.8242432775522C132.02168072781373 743.0493623008886 127.27243452570954 743.0493623008886 123.41772105527141 740.8236203438951L54.954820399964916 701.296610996818C51.10010692952673 699.0714919734817 48.725483828474665 694.9582610353267 48.725483828474665 690.5074000549969V611.4533813608427C48.725483828474665 607.0025203805128 51.10010692952673 602.8892894423578 54.954820399964916 600.6635474853645L123.41772105527141 561.1365381382873Z " stroke-width="5.862745098039216" stroke="#009872" fill="none" opacity="0.3788235294117647" transform="matrix(0.3380206667526189,1.015397583566036,-0.9427333602440716,0.0940904424785752,590.959645775907,21.74513175578477)"></path><path d="M130.11596372219205 551.4865079307829C134.04820111268018 549.2166385127441 138.89296159507867 549.2166385127441 142.82519898556686 551.4871433925462L212.66498860486425 591.8090986508922C216.59722599535243 594.078968068931 219.01960623655165 598.2749220911342 219.01960623655165 602.815296388975V683.4592069056672C219.01960623655165 687.9995812035079 216.59722599535243 692.1955352257111 212.66498860486425 694.466040105513L142.82519898556686 734.7879953638592C138.89296159507867 737.0578647818979 134.04820111268018 737.0578647818979 130.11596372219205 734.787359902096L60.27617410289466 694.4654046437498C56.343936712406474 692.1955352257111 53.9215564712072 687.9995812035079 53.9215564712072 683.4592069056672V602.815296388975C53.9215564712072 598.2749220911342 56.343936712406474 594.078968068931 60.27617410289466 591.808463189129L130.11596372219205 551.4865079307829Z " stroke-width="5.96078431372549" stroke="#009570" fill="none" opacity="0.3982352941176471" transform="matrix(0.3738628797897233,1.008746863584708,-0.9290024399366632,0.14071417807953907,571.6256065518966,4.398093776418023)"></path><path d="M136.81422164790175 541.8364777232786C140.82398295843987 539.5218579105374 145.76425772113274 539.5218579105374 149.77401903167086 541.8371257131478L220.99069761495915 582.954026882763C225.00045892549738 585.2686466955042 227.47059630684376 589.5473238017555 227.47059630684376 594.1772114171072V676.4110137563375C227.47059630684376 681.0409013716892 225.00045892549738 685.3195784779405 220.99069761495915 687.6348462805508L149.77401903167086 728.751747450166C145.76425772113274 731.0663672629072 140.82398295843987 731.0663672629072 136.81422164790175 728.7510994602969L65.5975430646134 687.6341982906816C61.58778175407528 685.3195784779405 59.11764437272885 681.0409013716892 59.11764437272885 676.4110137563375V594.1772114171072C59.11764437272885 589.5473238017555 61.58778175407528 585.2686466955042 65.5975430646134 582.9533788928939L136.81422164790175 541.8364777232786Z " stroke-width="6.0588235294117645" stroke="#00936e" fill="none" opacity="0.4176470588235294" transform="matrix(0.4091505509723734,1,-0.9139122285601091,0.18693239710797707,552.0969489120605,-12.135462909161902)"></path><path d="M143.5124643148224 532.186470403958C147.59974954541053 529.8271001965144 152.6355385883977 529.8271001965144 156.7228238189859 532.1871309219332L229.31639136626507 574.0989780028174C233.4036765968532 576.458348210261 235.92157111834678 580.8197484005607 235.92157111834678 585.539149333423V669.3628434951916C235.92157111834678 674.082244428054 233.4036765968532 678.4436446183536 229.31639136626507 680.8036753437724L156.7228238189859 722.7155224246567C152.6355385883977 725.0748926321003 147.59974954541053 725.0748926321003 143.5124643148224 722.7148619066814L70.91889676754317 680.8030148257972C66.831611536955 678.4436446183536 64.31371701546146 674.082244428054 64.31371701546146 669.3628434951916V585.539149333423C64.31371701546146 580.8197484005607 66.831611536955 576.458348210261 70.91889676754317 574.0983174848423L143.5124643148224 532.186470403958Z " stroke-width="6.156862745098039" stroke="#00916c" fill="none" opacity="0.4370588235294118" transform="matrix(0.4438322597361131,0.9891795236471845,-0.8974850006601549,0.2326529098835891,532.3996561458741,-27.807465343376634)"></path><path d="M150.210706981743 522.5364173082701C154.37551613238116 520.132296706124 159.50681945566265 520.132296706124 163.67162860630083 522.5370903543512L237.6420851175709 565.2438833465046C241.80689426820908 567.6480039486505 244.37254592984976 572.0921272229984 244.37254592984976 576.9010414733716V662.3146274576783C244.37254592984976 667.1235417080516 241.80689426820908 671.5676649823994 237.6420851175709 673.9724586306266L163.67162860630083 716.6792516227799C159.50681945566265 719.0833722249259 154.37551613238116 719.0833722249259 150.210706981743 716.6785785766988L76.24025047047292 673.9717855845454C72.07544131983474 671.5676649823994 69.509789658194 667.1235417080516 69.509789658194 662.3146274576783V576.9010414733716C69.509789658194 572.0921272229984 72.07544131983474 567.6480039486505 76.24025047047292 565.2432103004234L150.210706981743 522.5364173082701Z " stroke-width="6.254901960784314" stroke="#008e6b" fill="none" opacity="0.45647058823529413" transform="matrix(0.477857475666031,0.9763119316779442,-0.8797449710720787,0.27778469451560533,512.5597039207927,-42.572479270842166)"></path><path d="M156.90896490745268 512.8864023595547C161.15129797814086 510.4375313627063 166.37811558171666 510.4375313627063 170.62044865240483 512.887087933742L245.9677941276658 556.3888268371643C250.21012719835403 558.8376978340128 252.82353600014187 563.3645441924087 252.82353600014187 568.2629717602929V655.2664495671377C252.82353600014187 660.1648771350219 250.21012719835403 664.6917234934178 245.9677941276658 667.1412800644536L170.62044865240483 710.6430189678758C166.37811558171666 713.0918899647244 161.15129797814086 713.0918899647244 156.90896490745268 710.6423333936887L81.56161943219172 667.1405944902663C77.31928636150354 664.6917234934178 74.70587755971565 660.1648771350219 74.70587755971565 655.2664495671377V568.2629717602929C74.70587755971565 563.3645441924087 77.31928636150354 558.8376978340128 81.56161943219172 556.3881412629771L156.90896490745268 512.8864023595547Z " stroke-width="6.352941176470589" stroke="#008c69" fill="none" opacity="0.47588235294117653" transform="matrix(0.5111766315271848,0.9614276303637751,-0.8607182595193377,0.32223806403993915,492.6030361620723,-56.38778210308851)"></path><path d="M163.60720757437335 503.23637978144507C167.92706456511152 500.74275838989416 173.24939644898163 500.74275838989416 177.5692534397198 503.23707788373827L254.29348787897172 547.5337626984298C258.61334486970986 550.0273840899806 261.274510811645 554.6369535324247 261.274510811645 559.6248944178199V648.2182640472026C261.274510811645 653.2062049325978 258.61334486970986 657.8157743750419 254.29348787897172 660.310093868886L177.5692534397198 704.6067786835774C173.24939644898163 707.1004000751284 167.92706456511152 707.1004000751284 163.60720757437335 704.6060805812842L86.88297313512143 660.3093957665927C82.56311614438326 657.8157743750419 79.9019502024482 653.2062049325978 79.9019502024482 648.2182640472026V559.6248944178199C79.9019502024482 554.6369535324247 82.56311614438326 550.0273840899806 86.88297313512143 547.5330645961365L163.60720757437335 503.23637978144507Z " stroke-width="6.450980392156863" stroke="#008967" fill="none" opacity="0.4952941176470589" transform="matrix(0.5437411948935345,0.9445608709826119,-0.8404328524702965,0.36592483088414135,472.55554380099056,-69.2134899268234)"></path><path d="M170.30545024129398 493.5863419445461C174.70283115208215 491.04797015829286 180.12067731624657 491.04797015829286 184.51805822703474 493.58705257494546L262.6191816302776 538.678683300906C267.0165625410657 541.2170550871592 269.72548562314796 545.9093476136516 269.72548562314796 550.9868018165575V641.1700632684785C269.72548562314796 646.2475174713844 267.0165625410657 650.9398099978768 262.6191816302776 653.4788924145294L184.51805822703474 698.5705231404897C180.12067731624657 701.1088949267431 174.70283115208215 701.1088949267431 170.30545024129398 698.5698125100905L92.20432683805117 653.47818178413C87.806945927263 650.9398099978768 85.0980228451808 646.2475174713844 85.0980228451808 641.1700632684785V550.9868018165575C85.0980228451808 545.9093476136516 87.806945927263 541.2170550871592 92.20432683805117 538.6779726705067L170.30545024129398 493.5863419445461Z " stroke-width="6.549019607843137" stroke="#008765" fill="none" opacity="0.5147058823529412" transform="matrix(0.5755037382726962,0.9257496789088328,-0.8189185623082772,0.4087584683779351,452.4430397344978,-81.01264767362909)"></path><path d="M177.00370816700362 483.9363117370418C181.47861299784185 481.3531895560861 186.99197344230058 481.3531895560861 191.4668782731388 483.93703489554713L270.9448906403725 529.8236115327767C275.4197954712107 532.4067337137324 278.17647569344 537.1817493242729 278.17647569344 542.3487168446898V634.1218701191489C278.17647569344 639.2888376395656 275.4197954712107 644.0638532501061 270.9448906403725 646.6476985895672L191.4668782731388 692.5342752267967C186.99197344230058 695.1173974077525 181.47861299784185 695.1173974077525 177.00370816700362 692.5335520682914L97.52569579976998 646.646975431062C93.0507909689318 644.0638532501061 90.29411074670244 639.2888376395656 90.29411074670244 634.1218701191489V542.3487168446898C90.29411074670244 537.1817493242729 93.0507909689318 532.4067337137324 97.52569579976998 529.8228883742713L177.00370816700362 483.9363117370418Z " stroke-width="6.647058823529411" stroke="#008463" fill="none" opacity="0.5341176470588236" transform="matrix(0.6064180076259947,0.905035776038211,-0.7962069838740125,0.45065426903235817,432.29123487012475,-91.75127711416184)"></path><path d="M183.7019508339243 474.2862815295375C188.2543795848125 471.6584089538793 193.86325430956555 471.6584089538793 198.41568306045377 474.2870172161488L279.2705843916783 520.9685397646474C283.82301314256654 523.5964123403055 286.62745050494306 528.4541510348943 286.62745050494306 533.710631872822V627.0736769698192C286.62745050494306 632.3301578077468 283.82301314256654 637.1878965023355 279.2705843916783 639.816504764605L198.41568306045377 686.4980273131035C193.86325430956555 689.1258998887618 188.2543795848125 689.1258998887618 183.7019508339243 686.4972916264923L102.84704950269975 639.8157690779937C98.29462075181152 637.1878965023355 95.490183389435 632.3301578077468 95.490183389435 627.0736769698192V533.710631872822C95.490183389435 528.4541510348943 98.29462075181152 523.5964123403055 102.84704950269975 520.9678040780361L183.7019508339243 474.2862815295375Z " stroke-width="6.745098039215686" stroke="#008161" fill="none" opacity="0.5535294117647059" transform="matrix(0.636438989185601,0.8824644966905572,-0.7723314484433345,0.491529499316246,412.1257215709858,-101.39849118437292)"></path><path d="M190.40020875963398 464.63625895142764C195.0301614305722 461.9636359810671 200.73455043561955 461.9636359810671 205.36450310655778 464.63700716614505L287.5962934017732 512.1134756259127C292.22624607271143 514.7860985962733 295.0784405752351 519.7265603749102 295.0784405752351 525.0725545303487V620.025491449884C295.0784405752351 625.3714856053225 292.22624607271143 630.3119473839595 287.5962934017732 632.9853185690374L205.36450310655778 680.461787028805C200.73455043561955 683.1344099991657 195.0301614305722 683.1344099991657 190.40020875963398 680.4610388140877L108.16841846441855 632.98457035432C103.53846579348033 630.3119473839595 100.68627129095665 625.3714856053225 100.68627129095665 620.025491449884V525.0725545303487C100.68627129095665 519.7265603749102 103.53846579348033 514.7860985962733 108.16841846441855 512.1127274111954L190.40020875963398 464.63625895142764Z " stroke-width="6.843137254901961" stroke="#007e5f" fill="none" opacity="0.5729411764705883" transform="matrix(0.6655229744730019,0.8580846971437301,-0.7473269752065872,0.5313035506649583,391.97194967108726,-109.92656434798965)"></path><path d="M197.09845142655462 454.9862211145289C201.80592801754284 452.26884774946586 207.6058313028845 452.26884774946586 212.31330789387272 454.98698185735225L295.9219871530791 503.258396228389C300.62946374406727 505.975769593452 303.5294153867381 510.9989544561371 303.5294153867381 516.4344619290864V612.97729067116C303.5294153867381 618.4127981441094 300.62946374406727 623.4359830067945 295.9219871530791 626.1541171146807L212.31330789387272 674.4255314857176C207.6058313028845 677.1429048507805 201.80592801754284 677.1429048507805 197.09845142655462 674.4247707428941L113.48977216734824 626.1533563718574C108.78229557636007 623.4359830067945 105.88234393368919 618.4127981441094 105.88234393368919 612.97729067116V516.4344619290864C105.88234393368919 510.9989544561371 108.78229557636007 505.975769593452 113.48977216734824 503.25763548556563L197.09845142655462 454.9862211145289Z " stroke-width="6.9411764705882355" stroke="#007c5d" fill="none" opacity="0.5923529411764706" transform="matrix(0.6936276234256257,0.8319486589633704,-0.7212302203198261,0.5698980864628339,371.85520316990625,-117.31095009567014)"></path><path d="M203.79669409347528 445.33619090702456C208.5816946045135 442.57406714725914 214.47711217014947 442.57406714725914 219.2621126811877 445.336964177954L304.247680904385 494.40332446025974C309.0326814154232 497.16544822002516 311.98039019824114 502.27135616675844 311.98039019824114 507.79637695721874V605.9290975218303C311.98039019824114 611.4541183122906 309.0326814154232 616.5600262590239 304.247680904385 619.3229232897186L219.2621126811877 668.3892835720244C214.47711217014947 671.1514073317899 208.5816946045135 671.1514073317899 203.79669409347528 668.388510301095L118.811125870278 619.3221500187893C114.02612535923978 616.5600262590239 111.0784165764218 611.4541183122906 111.0784165764218 605.9290975218303V507.79637695721874C111.0784165764218 502.27135616675844 114.02612535923978 497.16544822002516 118.811125870278 494.4025511893304L203.79669409347528 445.33619090702456Z " stroke-width="7.03921568627451" stroke="#00795a" fill="none" opacity="0.611764705882353" transform="matrix(0.720712025541175,0.8041119863031045,-0.6940794236013275,0.6072371847478939,351.8005823722651,-123.53035952816356)"></path><path d="M210.49495201918498 435.68616832891473C215.3574764502732 432.8792941744469 221.34840829620347 432.8792941744469 226.2109327272917 435.6869541279502L312.5733899144799 485.548260321525C317.4359143455681 488.3551344759929 320.4313802685333 493.5437655067743 320.4313802685333 499.1582996147455V598.8809120018951C320.4313802685333 604.4954461098663 317.4359143455681 609.6840771406478 312.5733899144799 612.4917370941511L226.2109327272917 662.3530432877258C221.34840829620347 665.1599174421937 215.3574764502732 665.1599174421937 210.49495201918498 662.3522574886904L124.13249483199681 612.4909512951156C119.26997040090859 609.6840771406478 116.27450447794345 604.4954461098663 116.27450447794345 598.8809120018951V499.1582996147455C116.27450447794345 493.5437655067743 119.26997040090859 488.3551344759929 124.13249483199681 485.5474745224896L210.49495201918498 435.68616832891473Z " stroke-width="7.137254901960784" stroke="#007658" fill="none" opacity="0.6311764705882353" transform="matrix(0.7467367589520612,0.7746334973600641,-0.6659143529502922,0.6432474763947441,331.83298622324025,-128.56681896972498)"></path><path d="M217.1931946861056 426.0361533801996C222.13324303724383 423.1845288310293 228.21968916346842 423.1845288310293 233.1597375146067 426.036951707341L320.8990836657857 476.6932038121849C325.83913201692394 479.5448283613552 328.8823550800363 484.81618247618485 328.8823550800363 490.5202299016669V591.8327341113547C328.8823550800363 597.5367815368367 325.83913201692394 602.8081356516664 320.8990836657857 605.6605585279781L233.1597375146067 656.3168106328219C228.21968916346842 659.1684351819922 222.13324303724383 659.1684351819922 217.1931946861056 656.3160123056805L129.45384853492655 605.6597602008367C124.51380018378833 602.8081356516664 121.47057712067598 597.5367815368367 121.47057712067598 591.8327341113547V490.5202299016669C121.47057712067598 484.81618247618485 124.51380018378833 479.5448283613552 129.45384853492655 476.6924054850435L217.1931946861056 426.0361533801996Z " stroke-width="7.235294117647059" stroke="#007356" fill="none" opacity="0.6505882352941177" transform="matrix(0.7716639473453127,0.7435751101803585,-0.6367762465678855,0.6778582785394736,311.9770867843685,-132.40565798532907)"></path><path d="M223.89143735302628 416.38610028451166C228.9090096242145 413.4897253406389 235.09097003073344 413.4897253406389 240.10854230192166 416.3869111397591L329.2247774170917 467.8381091558721C334.2423496882799 470.7344840997448 337.33332989153934 476.0885612986226 337.33332989153934 481.8821220416155V584.7845180738414C337.33332989153934 590.5780788168344 334.2423496882799 595.9321560157122 329.2247774170917 598.8293418148323L240.10854230192166 650.2805398309453C235.09097003073344 653.176914774818 228.9090096242145 653.176914774818 223.89143735302628 650.2797289756978L134.77520223785632 598.8285309595849C129.75762996666805 595.9321560157122 126.6666497634086 590.5780788168344 126.6666497634086 584.7845180738414V481.8821220416155C126.6666497634086 476.0885612986226 129.75762996666805 470.7344840997448 134.77520223785632 467.83729830062464L223.89143735302628 416.38610028451166Z " stroke-width="7.333333333333334" stroke="#007054" fill="none" opacity="0.67" transform="matrix(0.7954573146464219,0.7110017230185812,-0.6067077530638753,0.7110017230185812,292.2573193389873,-135.03559058442397)"></path><path d="M230.58969527873597 406.73608533579636C235.6847914699742 403.7949599972212 241.96226615678745 403.7949599972212 247.05736234802566 406.7369087191498L337.5504864271865 458.98305264653186C342.6455826184248 461.924177985107 345.7843199618314 467.360978268033 345.7843199618314 473.2440523285368V577.7363401833009C345.7843199618314 583.6194142438046 342.6455826184248 589.0562145267306 337.5504864271865 591.9981632486592L247.05736234802566 644.2443071760412C241.96226615678745 647.1854325146163 235.6847914699742 647.1854325146163 230.58969527873597 644.2434837926878L140.09657119957507 591.9973398653058C135.00147500833685 589.0562145267306 131.8627376649302 583.6194142438046 131.8627376649302 577.7363401833009V473.2440523285368C131.8627376649302 467.360978268033 135.00147500833685 461.924177985107 140.09657119957507 458.9822292631784L230.58969527873597 406.73608533579636Z " stroke-width="7.431372549019608" stroke="#006c51" fill="none" opacity="0.6894117647058824" transform="matrix(0.818082237388797,0.6769810894645655,-0.5757528695351709,0.7426128796025608,272.69785455142585,-136.44868657489542)"></path><path d="M237.2879379456566 397.0860627576867C242.46055805694482 394.10018702440914 248.8335470240524 394.10018702440914 254.00616713534066 397.0868986691462L345.8761801784924 450.1279885077972C351.0488002897806 453.1138642410748 354.23529477333443 458.633387608049 354.23529477333443 464.60597498606364V570.6881546633658C354.23529477333443 576.6607420413804 351.0488002897806 582.1802654083547 345.8761801784924 585.1669770530916L254.00616713534066 638.2080668917428C248.8335470240524 641.1939426250203 242.46055805694482 641.1939426250203 237.2879379456566 638.2072309802833L145.4179249025048 585.1661411416322C140.2453047912166 582.1802654083547 137.05881030766278 576.6607420413804 137.05881030766278 570.6881546633658V464.60597498606364C137.05881030766278 458.633387608049 140.2453047912166 453.1138642410748 145.4179249025048 450.12715259633774L237.2879379456566 397.0860627576867Z " stroke-width="7.529411764705882" stroke="#00694f" fill="none" opacity="0.7088235294117647" transform="matrix(0.8395057946938211,0.641583688559337,-0.5439568777054329,0.772629873813758,253.32258719715094,-136.64040305002698)"></path><path d="M243.98619587136633 387.43602492078776C249.23633990270454 384.4053987928078 255.70484315010643 384.4053987928078 260.9549871814447 387.4368733603533L354.2018891885874 441.27290911027336C359.4520332199256 444.30353523825335 362.6862848436266 449.9057816892757 362.6862848436266 455.96788238480127V563.6399538846415C362.6862848436266 569.702054580167 359.4520332199256 575.3043010311894 354.2018891885874 578.3357755987349L260.9549871814447 632.171811348655C255.70484315010643 635.202437476635 249.23633990270454 635.202437476635 243.98619587136633 632.1709629090896L150.73929386422364 578.3349271591694C145.48914983288537 575.3043010311894 142.25489820918446 569.702054580167 142.25489820918446 563.6399538846415V455.96788238480127C142.25489820918446 449.9057816892757 145.48914983288537 444.30353523825335 150.73929386422364 441.2720606707079L243.98619587136633 387.43602492078776Z " stroke-width="7.627450980392156" stroke="#00664c" fill="none" opacity="0.7282352941176471" transform="matrix(0.8596968157899314,0.6048825901306112,-0.5113662782177142,0.8009939991274212,234.15511612137772,-135.60958927132742)"></path><path d="M250.68443853828694 377.78599471328346C256.0121064896752 374.71061819060105 262.5761240173714 374.71061819060105 267.90379196875966 377.786855680955L362.5275829398932 432.41783734214414C367.85525089128146 435.4932138648266 371.1372596551295 441.1781833998972 371.1372596551295 447.32979741293354V556.5917607353119C371.1372596551295 562.7433747483483 367.85525089128146 568.4283442834189 362.5275829398932 571.5045817737728L267.90379196875966 626.135563434962C262.5761240173714 629.2109399576444 256.0121064896752 629.2109399576444 250.68443853828694 626.1347024672905L156.0606475671534 571.5037208061013C150.73297961576515 568.4283442834189 147.45097085191702 562.7433747483483 147.45097085191702 556.5917607353119V447.32979741293354C147.45097085191702 441.1781833998972 150.73297961576515 435.4932138648266 156.0606475671534 432.41697637447265L250.68443853828694 377.78599471328346Z " stroke-width="7.7254901960784315" stroke="#00624a" fill="none" opacity="0.7476470588235294" transform="matrix(0.8786259250026714,0.5669533155861622,-0.4780287231747089,0.8276498233645232,215.21872627372719,-133.35845957287336)"></path><path d="M257.3826812052076 368.1359873939627C262.78787307664584 365.0158604765778 269.44740488463634 365.0158604765778 274.8525967560746 368.13686088974026L370.8532766911991 423.5627884621985C376.2584685626373 426.68291537958333 379.58823446663257 432.4506079987021 379.58823446663257 438.69173532924935V549.5435904741659C379.58823446663257 555.7847178047132 376.2584685626373 561.5524104238318 370.8532766911991 564.6734108369942L274.8525967560746 620.0993384094525C269.44740488463634 623.2194653268373 262.78787307664584 623.2194653268373 257.3826812052076 620.098464913675L161.3820012700831 564.6725373412168C155.9768093986449 561.5524104238318 152.6470434946496 555.7847178047132 152.6470434946496 549.5435904741659V438.69173532924935C152.6470434946496 432.4506079987021 155.9768093986449 426.68291537958333 161.3820012700831 423.561914966421L257.3826812052076 368.1359873939627Z " stroke-width="7.823529411764706" stroke="#005e47" fill="none" opacity="0.7670588235294118" transform="matrix(0.896265584151293,0.5278736944109957,-0.44399294702369535,0.8525452890948955,196.5363744965787,-129.8925951218838)"></path><path d="M264.0809391309173 358.48595718645845C269.56365492240553 355.32107987437115 276.31870101069035 355.32107987437115 281.8014168021786 358.486843210342L379.1789857012939 414.7077166940693C384.66170149278224 417.8725940061566 388.0392245369247 423.7230097093235 388.0392245369247 430.0536503573816V542.4953973248362C388.0392245369247 548.8260379728945 384.66170149278224 554.6764536760613 379.1789857012939 557.842217012032L281.8014168021786 614.0630904957595C276.31870101069035 617.2279678078467 269.56365492240553 617.2279678078467 264.0809391309173 614.0622044718759L166.7033702318019 557.8413309881487C161.22065444031364 554.6764536760613 157.84313139617126 548.8260379728945 157.84313139617126 542.4953973248362V430.0536503573816C157.84313139617126 423.7230097093235 161.22065444031364 417.8725940061566 166.7033702318019 414.70683067018575L264.0809391309173 358.48595718645845Z " stroke-width="7.921568627450981" stroke="#005b44" fill="none" opacity="0.7864705882352941" transform="matrix(0.9125901322911959,0.48772371662143166,-0.40930869588562085,0.8756318078794788,178.1306711407463,-125.22091479240385)"></path><path d="M270.7791817978379 348.83591172016503C276.33942150937617 345.6262840133753 283.1899818779553 345.6262840133753 288.75022158949355 348.8368102721546L387.5046794525998 405.85262966715095C393.0649191641381 409.06225737394067 396.49019934842767 414.9953961611558 396.49019934842767 421.4155501267248V535.4471889167176C396.49019934842767 541.8673428822865 393.0649191641381 547.8004816695017 387.5046794525998 551.0110079282808L288.75022158949355 608.0268273232773C283.1899818779553 611.236455030067 276.33942150937617 611.236455030067 270.7791817978379 608.0259287712877L172.02472393473164 551.0101093762914C166.46448422319338 547.8004816695017 163.0392040389038 541.8673428822865 163.0392040389038 535.4471889167176V421.4155501267248C163.0392040389038 414.9953961611558 166.46448422319338 409.06225737394067 172.02472393473164 405.8517311151614L270.7791817978379 348.83591172016503Z " stroke-width="8.019607843137255" stroke="#005741" fill="none" opacity="0.8058823529411765" transform="matrix(0.9275758227453056,0.44658538143596416,-0.37402665542998775,0.8968643481910459,160.02386357886502,-119.35563524079839)"></path><path d="M277.47742446475854 339.1858967714498C283.1151880963468 335.93151866995765 290.0612627452203 335.93151866995765 295.6990263768085 339.1868078515454L395.8303732039057 396.9975731578108C401.46813683549397 400.2519512593029 404.9411741599307 406.26781313056625 404.9411741599307 412.7774804136461V528.3990110261769C404.9411741599307 534.9086783092569 401.46813683549397 540.9245401805201 395.8303732039057 544.179829362108L295.6990263768085 601.9905946683733C290.0612627452203 605.2449727698655 283.1151880963468 605.2449727698655 277.47742446475854 601.9896835882777L177.34607763766138 544.1789182820123C171.70831400607312 540.9245401805201 168.23527668163638 534.9086783092569 168.23527668163638 528.3990110261769V412.7774804136461C168.23527668163638 406.26781313056625 171.70831400607312 400.2519512593029 177.34607763766138 396.9966620777152L277.47742446475854 339.1858967714498Z " stroke-width="8.117647058823529" stroke="#00523e" fill="none" opacity="0.8252941176470588" transform="matrix(0.9412008573713662,0.4045425424290873,-0.3381983773992843,0.916201516863561,142.23782212067158,-112.31223782374707)"></path><path d="M284.17568239046824 329.53586656394543C289.8909699421065 326.2367380677509 296.9325588712743 326.2367380677509 302.6478464229125 329.5367901721471L404.1560822140006 388.14250138968157C409.87136976563886 391.44162988587607 413.39216423022276 397.5402148411876 413.39216423022276 404.1393954417784V521.3508178768473C413.39216423022276 527.949998477438 409.87136976563886 534.0485834327496 404.1560822140006 537.3486355371458L302.6478464229125 595.9543467546802C296.9325588712743 599.2534752508748 289.8909699421065 599.2534752508748 284.17568239046824 595.9534231464786L182.66744659938013 537.3477119289441C176.95215904774187 534.0485834327496 173.43136458315797 527.949998477438 173.43136458315797 521.3508178768473V404.1393954417784C173.43136458315797 397.5402148411876 176.95215904774187 391.44162988587607 182.66744659938013 388.14157778147995L284.17568239046824 329.53586656394543Z " stroke-width="8.215686274509803" stroke="#004e3b" fill="none" opacity="0.8447058823529412" transform="matrix(0.9534454180160897,0.36168074944014844,-0.3018762048886202,0.9336056339314034,124.79402404054753,-104.10942130835116)"></path><path d="M290.8739250573889 319.88582109765207C296.6667365290772 316.54194220675515 303.8038397385393 316.54194220675515 309.59665121022755 319.88675723395977L412.4817759653065 379.2874143627633C418.2745874369948 382.63129325366026 421.84313904172586 388.81260129301995 421.84313904172586 395.5012952111216V514.3026094687286C421.84313904172586 520.9913033868303 418.2745874369948 527.17261142619 412.4817759653065 530.5174264533946L309.59665121022755 589.918083582198C303.8038397385393 593.2619624730951 296.6667365290772 593.2619624730951 290.8739250573889 589.9171474458906L187.98880030230993 530.5164903170869C182.19598883062167 527.17261142619 178.62743722589062 520.9913033868303 178.62743722589062 514.3026094687286V395.5012952111216C178.62743722589062 388.81260129301995 182.19598883062167 382.63129325366026 187.98880030230993 379.28647822645564L290.8739250573889 319.88582109765207Z " stroke-width="8.313725490196077" stroke="#004937" fill="none" opacity="0.8641176470588235" transform="matrix(0.9642916951111321,0.3180870875147163,-0.26511319648800935,0.9490428007309666,107.71353715377779,-94.76903636162814)"></path><path d="M297.57218298309857 310.23579089014777C303.4425183748369 306.8471616045483 310.6751358645933 306.8471616045483 316.54547125633155 310.23673955456144L420.8074849754014 370.432342594634C426.67782036713976 373.8209718802334 430.29412911201786 380.0850030036413 430.29412911201786 386.8632102392538V507.254416319399C430.29412911201786 514.0326235550115 426.67782036713976 520.2966546784194 420.8074849754014 523.6862326284324L316.54547125633155 583.8818356685049C310.6751358645933 587.2704649541045 303.4425183748369 587.2704649541045 297.57218298309857 583.8808870040914L193.31016926402873 523.6852839640187C187.43983387229048 520.2966546784194 183.82352512741227 514.0326235550115 183.82352512741227 507.254416319399V386.8632102392538C183.82352512741227 380.0850030036413 187.43983387229048 373.8209718802334 193.31016926402873 370.4313939302204L297.57218298309857 310.23579089014777Z " stroke-width="8.411764705882353" stroke="#004433" fill="none" opacity="0.8835294117647059" transform="matrix(0.9737239133699551,0.2738500131609041,-0.22796304939636108,0.9624829611486488,91.01700676112614,-84.3160304156915)"></path><path d="M304.27041039123014 300.58577594143253C310.21826970301845 297.15239626113066 317.5464014730692 297.15239626113066 323.4942607848575 300.5867371339522L429.1331634679182 361.57728608529385C435.0810227797065 365.0106657655957 438.74508866473184 371.3574199730518 438.74508866473184 378.22514052617515V500.20623842885846C438.74508866473184 507.07395898198183 435.0810227797065 513.4207131894378 429.1331634679182 516.8550540622593L323.4942607848575 577.845603013601C317.5464014730692 581.2789826939029 310.21826970301845 581.2789826939029 304.27041039123014 577.8446418210814L198.6315077081694 516.8540928697397C192.6836483963811 513.4207131894378 189.01958251135574 507.07395898198183 189.01958251135574 500.20623842885846V378.22514052617515C189.01958251135574 371.3574199730518 192.6836483963811 365.0106657655957 198.6315077081694 361.5763248927742L304.27041039123014 300.58577594143253Z " stroke-width="8.509803921568627" stroke="#003f2f" fill="none" opacity="0.9029411764705882" transform="matrix(0.9817283545487937,0.2290591882075735,-0.19048002161770658,0.9738999559109353,74.72463859844714,-72.77836837052524)"></path><path d="M310.96866831693984 290.93573047513917C316.99405154877815 287.4576004001349 324.4176975991232 287.4576004001349 330.4430808309615 290.93670419576483L437.4588724780131 352.7221990583755C443.4842557098514 356.2003291333798 447.19607873502395 362.629806424884 447.19607873502395 369.5870402955183V493.1580300207397C447.19607873502395 500.11526389137396 443.4842557098514 506.5447411828782 437.4588724780131 510.0238449785081L330.4430808309615 571.8093398411188C324.4176975991232 575.2874699161231 316.99405154877815 575.2874699161231 310.96866831693984 571.8083661204931L203.9528766698882 510.02287125788246C197.9274934380499 506.5447411828782 194.2156704128774 500.11526389137396 194.2156704128774 493.1580300207397V369.5870402955183C194.2156704128774 362.629806424884 197.9274934380499 356.2003291333798 203.9528766698882 352.72122533774984L310.96866831693984 290.93573047513917Z " stroke-width="8.607843137254902" stroke="#00392b" fill="none" opacity="0.9223529411764706" transform="matrix(0.9882933772391405,0.1838053115553498,-0.15271885335149799,0.983271569824137,58.85618776279114,-60.18696292294345)"></path><path d="M317.66692624264954 281.28570026763487C323.76983339453784 277.76281979792816 331.2889937251772 277.76281979792816 337.3919008770655 281.28668651636656L445.7845814881081 343.8671272902463C451.8874886399964 347.390007759953 455.64706880531605 353.9022081355054 455.64706880531605 360.9489553236506V486.1098368714101C455.64706880531605 493.1565840595552 451.8874886399964 499.6687844351076 445.7845814881081 503.192651153546L337.3919008770655 565.7730919274259C331.2889937251772 569.2959723971326 323.76983339453784 569.2959723971326 317.66692624264954 565.7721056786941L209.27424563160696 503.19166490481433C203.1713384797187 499.6687844351076 199.41175831439898 493.1565840595552 199.41175831439898 486.1098368714101V360.9489553236506C199.41175831439898 353.9022081355054 203.1713384797187 347.390007759953 209.27424563160696 343.8661410415146L317.66692624264954 281.28570026763487Z " stroke-width="8.705882352941178" stroke="#003326" fill="none" opacity="0.9417647058823531" transform="matrix(0.9934094336634213,0.13817994911489997,-0.1147346876899685,0.9905795718833665,43.43094121450878,-46.575577008193875)"></path><path d="M324.3651536507811 271.63568531891957C330.5455847227194 268.06805445451045 338.1602593336531 268.06805445451045 344.3406904055914 271.63668409575735L454.1102599806248 335.01207078090613C460.2906910525631 338.57970164531525 464.09802835803004 345.17462510491583 464.09802835803004 352.31088561057186V479.0616589808695C464.09802835803004 486.1979194865255 460.2906910525631 492.7928429461261 454.1102599806248 496.36147258737293L344.3406904055914 559.7368592725218C338.1602593336531 563.304490136931 330.5455847227194 563.304490136931 324.3651536507811 559.7358604956842L214.59558407574764 496.3604738105352C208.41515300380934 492.7928429461261 204.6078156983425 486.1979194865255 204.6078156983425 479.0616589808695V352.31088561057186C204.6078156983425 345.17462510491583 208.41515300380934 338.57970164531525 214.59558407574764 335.0110720040684L324.3651536507811 271.63568531891957Z " stroke-width="8.803921568627452" stroke="#002b20" fill="none" opacity="0.9611764705882354" transform="matrix(0.9970690834498156,0.09227536222994565,-0.07658299073652285,0.9958097481824747,28.467704728432523,-31.980736025829856)"></path><path d="M331.06341157649086 261.98565511141527C337.32136656847916 258.3732738523037 345.03155545970714 258.3732738523037 351.28951045169543 261.98666641635907L462.4359689907198 326.1569990127769C468.6939239827081 329.76938027188845 472.5490184283221 336.44702681553724 472.5490184283221 343.67280063870413V472.01346583153986C472.5490184283221 479.23923965470675 468.6939239827081 485.91688619835554 462.4359689907198 489.53027876241083L351.28951045169543 553.7006113588287C345.03155545970714 557.3129926179403 337.32136656847916 557.3129926179403 331.06341157649086 553.699600053885L219.9169530374665 489.5292674574671C213.6589980454782 485.91688619835554 209.8039035998642 479.23923965470675 209.8039035998642 472.01346583153986V343.67280063870413C209.8039035998642 336.44702681553724 213.6589980454782 329.76938027188845 219.9169530374665 326.15598770783316L331.06341157649086 261.98565511141527Z " stroke-width="8.901960784313726" stroke="#00221a" fill="none" opacity="0.9805882352941178" transform="matrix(0.9992670043665072,0.04618433488501967,-0.03831947125996167,0.9989519275689328,13.984790104103126,-16.441629655658915)"></path><path d="M337.76166950220056 252.3356401627C344.09714841423886 248.678508508886 351.90285158576114 248.678508508886 358.23833049779944 252.33666399574977L470.76167800081475 317.3019425034367C477.09715691285305 320.9590741572507 481.0000084986141 327.71944378494766 481.0000084986141 335.0347309256254V464.96528794099925C481.0000084986141 472.28057508167706 477.09715691285305 479.040944709374 470.76167800081475 482.69910019623774L358.23833049779944 547.6643787039247C351.90285158576114 551.3215103577386 344.09714841423886 551.3215103577386 337.76166950220056 547.663354870875L225.2383219991853 482.698076363188C218.902843087147 479.040944709374 214.9999915013858 472.28057508167706 214.9999915013858 464.96528794099925V335.0347309256254C214.9999915013858 327.71944378494766 218.902843087147 320.9590741572507 225.2383219991853 317.300918670387L337.76166950220056 252.3356401627Z " stroke-width="9" stroke="#001510" fill="none" opacity="1" transform="matrix(1,2.4802620430283604e-16,-2.4802620430283604e-16,1,1.1368683772161603e-13,-1.1368683772161603e-13)"></path></g></svg>