<svg xmlns="http://www.w3.org/2000/svg" version="1.1" xmlns:xlink="http://www.w3.org/1999/xlink" xmlns:svgjs="http://svgjs.dev/svgjs" viewBox="0 0 800 800" opacity="0.16"><defs><linearGradient x1="50%" y1="0%" x2="50%" y2="100%" id="wwwhirl-grad"><stop stop-color="#001510ff" stop-opacity="1" offset="45%"></stop><stop stop-color="#00bf8fff" stop-opacity="1" offset="100%"></stop></linearGradient></defs><g stroke-width="5" stroke="url(#wwwhirl-grad)" fill="none" stroke-linecap="round"><path d="M-67.5 446.7580171161228C-37.19907407407406 412.6694754494561 -24.212962962962962 326.09540137538204 36.388888888888886 329.8830171161228C96.99074074074076 333.6706328568635 79.6759259259259 455.57775091241905 140.27777777777777 459.7441282272339C200.87962962962962 463.9105055420487 183.56481481481478 343.0314546161228 244.16666666666669 344.167739338345C304.7685185185186 345.3040240605672 287.4537037037037 456.8222532272339 348.05555555555554 463.63996156056726C408.6574074074074 470.4576698939005 391.3425925925926 366.7852161901968 451.94444444444446 367.542739338345C512.5462962962963 368.3002624864931 495.2314814814815 471.9186073939005 555.8333333333334 466.23718378278943C616.4351851851851 460.55576017167834 599.1203703703704 348.06357267167834 659.7222222222222 348.06357267167834C720.324074074074 348.06357267167834 703.0092592592594 446.92034350501166 763.6111111111111 466.23718378278943C824.2129629629628 485.55402406056726 837.199074074074 429.44320230130796 867.5 414.292739338345 " transform="rotate(382.5, 400, 400)"></path><path d="M-62 446.2079325358073C-32.05555555555554 412.5204325358073 -19.22222222222223 326.96487698025174 40.666666666666686 330.7079325358073C100.55555555555557 334.45098809136283 83.44444444444443 454.9239047580295 143.33333333333337 459.0412658691406C203.22222222222229 463.1586269802517 186.1111111111111 343.7016825358073 246 344.82459920247396C305.8888888888889 345.9475158691406 288.7777777777777 456.1537658691406 348.6666666666667 462.8912658691406C408.55555555555554 469.62876586914064 391.44444444444446 367.17598809136285 451.33333333333337 367.9245992024739C511.2222222222222 368.67321031358506 494.1111111111112 471.0725158691406 554 465.4579325358073C613.8888888888888 459.843349202474 596.7777777777778 348.6745992024739 656.6666666666666 348.6745992024739C716.5555555555555 348.6745992024739 699.4444444444445 446.36834920247395 759.3333333333334 465.4579325358073C819.2222222222222 484.5475158691406 832.0555555555555 429.09682142469615 862 414.124599202474 " transform="rotate(378, 400, 400)"></path><path d="M-56.5 445.6578441407945C-26.912037037037024 412.3713858074612 -14.231481481481495 327.8343487704242 44.94444444444446 331.53284414079457C104.12037037037041 335.2313395111649 87.21296296296293 454.2700547889427 146.3888888888889 458.3383996963501C205.56481481481484 462.4067446037575 188.6574074074074 344.3719066407945 247.83333333333331 345.4814552519057C307.0092592592593 346.5910038630168 290.10185185185185 455.4852746963501 349.27777777777777 462.1425663630167C408.4537037037037 468.79985802968343 391.5462962962963 367.56675617783156 450.7222222222222 368.3064552519057C509.89814814814804 369.0461543259797 492.99074074074076 470.2264205296834 552.1666666666666 464.6786774741279C611.3425925925925 459.13093441857234 594.4351851851852 349.2856219185723 653.6111111111111 349.2856219185723C712.787037037037 349.2856219185723 695.8796296296297 445.816351085239 755.0555555555555 464.6786774741279C814.2314814814814 483.5410038630167 826.912037037037 428.7504367333871 856.5 413.95645525190565 " transform="rotate(373.5, 400, 400)"></path><path d="M-51 445.10771759880913C-21.768518518518505 412.2223009321425 -9.240740740740748 328.70378241362397 49.22222222222223 332.35771759880913C107.68518518518522 336.01165278399435 90.98148148148144 453.6161666728832 149.44444444444446 457.6354953765869C207.90740740740745 461.6548240802906 191.2037037037037 345.0420925988091 249.66666666666669 346.1382731543647C308.1296296296296 347.2344537099202 291.4259259259259 454.81674537658694 349.8888888888889 461.3938287099203C408.35185185185196 467.9709120432536 391.64814814814804 367.9574861173277 450.1111111111111 368.6882731543647C508.574074074074 369.41906019140174 491.87037037037044 469.3802870432536 550.3333333333334 463.8993842654758C608.7962962962963 458.41848148769805 592.0925925925926 349.896606487698 650.5555555555555 349.896606487698C709.0185185185184 349.896606487698 692.3148148148149 445.26431482103135 750.7777777777778 463.8993842654758C809.2407407407406 482.5344537099203 821.7685185185184 428.40401389510544 851 413.7882731543647 " transform="rotate(369, 400, 400)"></path><path d="M-45.5 444.5576406478882C-16.624999999999986 412.0732656478882 -4.25 329.5732656478882 53.5 333.1826406478882C111.25000000000003 336.7920156478882 94.74999999999997 452.9623281478882 152.5 456.9326406478882C210.25 460.9029531478882 193.75 345.7123281478882 251.5 346.79514064788816C309.25000000000006 347.8779531478882 292.74999999999994 454.1482656478882 350.5 460.6451406478882C408.25 467.1420156478882 391.75 368.3482656478882 449.5 369.0701406478882C507.2499999999999 369.7920156478882 490.7500000000001 468.5342031478882 548.5 463.1201406478882C606.2499999999999 457.7060781478882 589.7500000000001 350.5076406478882 647.5 350.5076406478882C705.25 350.5076406478882 688.75 444.7123281478882 746.5 463.1201406478882C804.25 481.5279531478882 816.625 428.0576406478882 845.5 413.6201406478882 " transform="rotate(364.5, 400, 400)"></path><path d="M-40 444.0075446234809C-11.481481481481467 411.9242112901476 0.7407407407407334 330.4427298086661 57.77777777777777 334.0075446234809C114.81481481481484 337.57235943829573 98.5185185185185 452.3084705494068 155.55555555555554 456.2297668457031C212.5925925925926 460.15106314199943 196.2962962962963 346.3825446234809 253.33333333333331 347.45198906792535C310.3703703703704 348.5214335123698 294.074074074074 453.4797668457031 351.1111111111111 459.8964335123698C408.14814814814815 466.3131001790365 391.85185185185185 368.73902610496236 448.8888888888889 369.45198906792535C505.92592592592587 370.1649520308883 489.6296296296297 467.6881001790365 546.6666666666666 462.3408779568142C603.7037037037037 456.99365573459204 587.4074074074075 351.11865573459204 644.4444444444445 351.11865573459204C701.4814814814814 351.11865573459204 685.1851851851852 444.16032240125867 742.2222222222222 462.3408779568142C799.2592592592592 480.52143351236975 811.4814814814814 427.71124832718465 840 413.45198906792535 " transform="rotate(360, 400, 400)"></path><path d="M-34.5 443.4574600431654C-6.337962962962948 411.77516837649875 5.731481481481481 331.3122054135358 62.05555555555554 334.83246004316544C118.37962962962965 338.35271467279506 102.28703703703701 451.65462439501727 158.6111111111111 455.52690448760984C214.93518518518522 459.3991845802025 198.8425925925926 347.0527725431654 255.16666666666669 348.1088489320543C311.49074074074076 349.1649253209432 295.39814814814815 452.81127948760985 351.72222222222223 459.1477378209432C408.0462962962963 465.48419615427656 391.95370370370364 369.1297980061284 448.2777777777778 369.8338489320543C504.60185185185185 370.5378998579802 488.50925925925924 466.8420086542765 544.8333333333334 461.56162670983207C601.1574074074074 456.28124476538767 585.0648148148149 351.7296822653876 641.3888888888889 351.7296822653876C697.7129629629628 351.7296822653876 681.6203703703704 443.60832809872096 737.9444444444445 461.56162670983207C794.2685185185184 479.51492532094323 806.3379629629628 427.36486745057283 834.5 413.2838489320543 " transform="rotate(355.5, 400, 400)"></path><path d="M-29 442.90737164815266C-1.1944444444444287 411.62612164815266 10.722222222222214 332.1816772037082 66.33333333333331 335.65737164815266C121.94444444444446 339.1330660925971 106.05555555555554 451.00077442593044 161.66666666666663 454.82403831481935C217.27777777777783 458.64730220370825 201.38888888888886 347.7229966481527 257 348.765704981486C312.61111111111114 349.80841331481935 296.7222222222222 452.1427883148193 352.3333333333333 458.39903831481934C407.94444444444446 464.65528831481936 392.05555555555554 369.5205660925971 447.66666666666674 370.215704981486C503.2777777777777 370.9108438703749 487.3888888888889 465.99591331481935 543 460.78237164815266C598.6111111111111 455.56882998148603 582.7222222222223 352.340704981486 638.3333333333334 352.340704981486C693.9444444444443 352.340704981486 678.0555555555557 443.056329981486 733.6666666666666 460.78237164815266C789.2777777777778 478.50841331481934 801.1944444444445 427.01848275926375 829 413.11570498148603 " transform="rotate(351, 400, 400)"></path><path d="M-23.5 442.3572641796536C3.9490740740740904 411.47705584632024 15.712962962962962 333.0511299203943 70.61111111111111 336.4822641796536C125.5092592592593 339.91339843891285 109.82407407407405 450.3469053833573 164.72222222222223 454.12115306854247C219.62037037037044 457.8954007537277 203.93518518518516 348.3932016796536 258.8333333333333 349.42254195743135C313.7314814814815 350.45188223520915 298.04629629629625 451.4742780685425 352.94444444444446 457.65031973520917C407.8425925925926 463.82636140187583 392.1574074074074 369.91131510557955 447.05555555555554 370.59754195743136C501.9537037037037 371.28376880928323 486.2685185185186 465.1497989018758 541.1666666666666 460.0030975129869C596.0648148148148 454.85639612409807 580.3796296296297 352.95170862409805 635.2777777777778 352.95170862409805C690.1759259259259 352.95170862409805 674.4907407407408 442.5043127907647 729.3888888888889 460.0030975129869C784.287037037037 477.5018822352091 796.0509259259259 426.6720789944684 823.5 412.9475419574314 " transform="rotate(346.5, 400, 400)"></path><path d="M-18 441.80717196994357C9.09259259259261 411.3280053032769 20.703703703703695 333.9205978958695 74.88888888888889 337.30717196994357C129.07407407407408 340.69374604401764 113.59259259259258 449.6930515995732 167.77777777777777 453.4182830810547C221.962962962963 457.1435145625362 206.48148148148147 349.0634219699436 260.6666666666667 350.0793941921658C314.85185185185185 351.095366414388 299.3703703703704 450.8057830810547 353.55555555555554 456.901616414388C407.7407407407408 462.99744974772136 392.2592592592592 370.302079377351 446.44444444444446 370.9793941921658C500.62962962962956 371.65670900698063 485.14814814814815 464.30369974772134 539.3333333333334 459.22383863661025C593.5185185185185 454.14397752549917 578.0370370370371 353.5627275254991 632.2222222222222 353.5627275254991C686.4074074074074 353.5627275254991 670.925925925926 441.95231085883245 725.1111111111111 459.22383863661025C779.2962962962962 476.49536641438806 790.9074074074073 426.3256904884621 818 412.7793941921658 " transform="rotate(342, 400, 400)"></path><path d="M-12.5 441.25708357493085C14.236111111111114 411.17895857493085 25.694444444444443 334.79006968604193 79.16666666666669 338.13208357493085C132.6388888888889 341.4740974638197 117.36111111111109 449.03920163048633 170.83333333333337 452.71541690826416C224.3055555555556 456.391632186042 209.02777777777771 349.73364607493085 262.5 350.7362502415975C315.9722222222223 351.73885440826416 300.6944444444444 450.13729190826416 354.1666666666667 456.15291690826416C407.6388888888889 462.16854190826416 392.3611111111111 370.6928474638197 445.83333333333326 371.3612502415975C499.30555555555543 372.02965301937525 484.0277777777778 463.45760440826416 537.5 458.44458357493085C590.9722222222222 453.4315627415975 575.6944444444446 354.1737502415975 629.1666666666666 354.1737502415975C682.6388888888888 354.1737502415975 667.3611111111112 441.4003127415975 720.8333333333334 458.44458357493085C774.3055555555555 475.48885440826416 785.7638888888889 425.9793057971531 812.5 412.6112502415975 " transform="rotate(337.5, 400, 400)"></path><path d="M-7 440.70697610643174C19.379629629629633 411.0298927730984 30.685185185185176 335.65952240272804 83.44444444444446 338.95697610643174C136.20370370370372 342.25442981013543 121.12962962962959 448.38533258791324 173.8888888888889 452.0125316619873C226.64814814814815 455.6397307360614 211.57407407407402 350.4038511064317 264.3333333333333 351.39308721754287C317.0925925925926 352.38232332865397 302.0185185185185 449.4687816619873 354.77777777777777 455.404198328654C407.53703703703707 461.33961499532063 392.46296296296293 371.08359647680214 445.2222222222222 371.74308721754284C497.9814814814814 372.4025779582836 482.9074074074074 462.61148999532065 535.6666666666666 457.6653094397651C588.4259259259259 452.7191288842095 573.351851851852 354.7847538842095 626.1111111111111 354.7847538842095C678.8703703703703 354.7847538842095 663.7962962962963 440.8482955508762 716.5555555555555 457.6653094397651C769.3148148148148 474.48232332865393 780.6203703703703 425.6329020323577 807 412.4430872175428 " transform="rotate(333, 400, 400)"></path><path d="M-1.5 440.15689534081355C24.523148148148152 410.88085367414686 35.675925925925924 336.529001822295 87.72222222222223 339.78189534081355C139.76851851851853 343.034788859332 124.89814814814815 447.7314902482209 176.94444444444446 451.3096731185913C228.99074074074076 454.8878559889617 214.12037037037032 351.0740828408135 266.1666666666667 352.04995089636907C318.212962962963 353.02581895192463 303.34259259259255 448.8002981185913 355.3888888888889 454.6555064519246C407.4351851851852 460.51071478525796 392.5648148148148 371.4743721926654 444.6111111111111 372.1249508963691C496.6574074074074 372.7755296000728 481.78703703703707 461.765402285258 533.8333333333334 456.8860620074802C585.8796296296296 452.0067217297024 571.0092592592592 355.39578422970243 623.0555555555555 355.39578422970243C675.1018518518518 355.39578422970243 660.2314814814815 440.2963050630358 712.2777777777778 456.8860620074802C764.324074074074 473.4758189519247 775.4768518518517 425.28652497044317 801.5 412.2749508963691 " transform="rotate(328.5, 400, 400)"></path><path d="M4 439.6067916870117C29.666666666666686 410.7317916870117 40.66666666666666 337.3984583536784 92 340.6067916870117C143.33333333333334 343.815125020345 128.66666666666663 447.07762502034507 180 450.6067916870117C231.33333333333337 454.1359583536784 216.66666666666663 351.7442916870117 268 352.70679168701173C319.33333333333337 353.6692916870117 304.66666666666663 448.13179168701174 356 453.9067916870117C407.3333333333333 459.6817916870117 392.6666666666667 371.86512502034503 444 372.50679168701174C495.33333333333326 373.1484583536784 480.66666666666674 460.9192916870117 532 456.1067916870117C583.3333333333333 451.2942916870117 568.6666666666667 356.00679168701174 620 356.00679168701174C671.3333333333333 356.00679168701174 656.6666666666667 439.7442916870117 708 456.1067916870117C759.3333333333334 472.4692916870117 770.3333333333334 424.940125020345 796 412.1067916870117 " transform="rotate(324, 400, 400)"></path><path d="M9.5 439.05669566260445C34.81018518518519 410.58273732927114 45.65740740740739 338.2679225144563 96.27777777777777 341.43169566260445C146.89814814814818 344.5954688107526 132.43518518518516 446.42376742186366 183.05555555555554 449.9039178848267C233.67592592592598 453.3840683477896 219.21296296296293 352.4145081626044 269.8333333333333 353.36364010704887C320.45370370370375 354.3127720514933 305.9907407407407 447.46329288482667 356.6111111111111 453.15808455149335C407.2314814814815 458.85287621815996 392.7685185185185 372.25588547741927 443.3888888888889 372.8886401070489C494.0092592592591 373.52139473667853 479.5462962962963 460.07318871816 530.1666666666666 455.32752899593777C580.787037037037 450.58186927371554 566.3240740740741 356.61780677371553 616.9444444444445 356.61780677371553C667.5648148148148 356.61780677371553 653.101851851852 439.19228594038225 703.7222222222222 455.32752899593777C754.3425925925925 471.4627720514933 765.1898148148148 424.59373269964146 790.5 411.93864010704885 " transform="rotate(319.5, 400, 400)"></path><path d="M15 438.50661108228894C39.953703703703724 410.4336944156223 50.64814814814815 339.137398119326 100.55555555555554 342.25661108228894C150.462962962963 345.37582404525193 136.2037037037037 445.76992126747416 186.11111111111111 449.2010555267334C236.01851851851853 452.63218978599264 221.75925925925924 353.08473608228894 271.6666666666667 354.02049997117786C321.5740740740741 354.9562638600667 307.3148148148148 446.7948055267334 357.22222222222223 452.4093888600667C407.1296296296297 458.0239721934001 392.8703703703703 372.64665737858525 442.77777777777777 373.27049997117786C492.6851851851852 373.8943425637704 478.425925925926 459.2270971934001 528.3333333333334 454.5482777489556C578.2407407407408 449.86945830451117 563.9814814814815 357.22883330451117 613.8888888888889 357.22883330451117C663.7962962962963 357.22883330451117 649.5370370370371 438.6402916378445 699.4444444444445 454.5482777489556C749.3518518518517 470.45626386006677 760.0462962962962 424.2473518230297 785 411.77049997117786 " transform="rotate(315, 400, 400)"></path><path d="M20.5 437.95650742848716C45.09722222222223 410.28463242848716 55.638888888888886 340.0068546507094 104.83333333333331 343.08150742848716C154.0277777777778 346.15616020626493 139.9722222222222 445.1160560395982 189.16666666666666 448.4981740951538C238.3611111111111 451.88029215070935 224.30555555555554 353.75494492848713 273.5 354.67734076182046C322.69444444444446 355.5997365951538 308.6388888888889 446.1262990951538 357.8333333333333 451.6606740951538C407.02777777777777 457.1950490951538 392.97222222222223 373.0374102062649 442.1666666666667 373.6523407618205C491.3611111111111 374.267271317376 477.30555555555554 458.3809865951538 526.5 453.76900742848716C575.6944444444445 449.15702826182047 561.6388888888889 357.8398407618205 610.8333333333334 357.8398407618205C660.0277777777778 357.8398407618205 645.9722222222222 438.0882782618205 695.1666666666666 453.76900742848716C744.3611111111111 469.4497365951538 754.9027777777778 423.9009518729316 779.5 411.60234076182047 " transform="rotate(310.5, 400, 400)"></path><path d="M26 437.4064190334744C50.24074074074075 410.13558570014106 60.62962962962962 340.8763264408818 109.11111111111111 343.9064190334744C157.5925925925926 346.936511626067 143.7407407407407 444.46220607051146 192.22222222222223 447.7953079223633C240.7037037037037 451.12840977421513 226.85185185185185 354.4251690334744 275.33333333333337 355.3341968112522C323.81481481481484 356.24322458903 309.96296296296293 445.45780792236326 358.44444444444446 450.91197458902997C406.925925925926 456.3661412556966 393.074074074074 373.42817829273366 441.55555555555554 374.0341968112522C490.03703703703695 374.6402153297707 476.1851851851852 457.5348912556966 524.6666666666667 452.9897523668077C573.148148148148 448.44461347791884 559.2962962962963 358.45086347791886 607.7777777777778 358.45086347791886C656.2592592592592 358.45086347791886 642.4074074074075 437.5362801445855 690.8888888888889 452.9897523668077C739.3703703703703 468.44322458902997 749.7592592592592 423.55456718162253 774 411.43419681125215 " transform="rotate(306, 400, 400)"></path><path d="M31.5 436.8563344531589C55.38425925925927 409.98654278649224 65.62037037037037 341.7458020457515 113.38888888888889 344.7313344531589C161.15740740740742 347.7168668605663 147.50925925925924 443.80835991612184 195.27777777777777 447.09244556427C243.0462962962963 450.3765312124182 229.39814814814815 355.0953969531589 277.16666666666663 355.9910566753811C324.9351851851852 356.8867163976033 311.287037037037 444.78932056427004 359.05555555555554 450.16327889760333C406.82407407407413 455.5372372309367 393.1759259259259 373.81895019389964 440.94444444444446 374.4160566753811C488.71296296296293 375.0131631568626 475.0648148148148 456.6887997309367 522.8333333333333 452.2105011198256C570.6018518518518 447.73220250871447 556.9537037037037 359.06189000871444 604.7222222222222 359.06189000871444C652.4907407407408 359.06189000871444 638.8425925925926 436.9842858420478 686.6111111111111 452.2105011198256C734.3796296296296 467.43671639760333 744.6157407407408 423.20818630501077 768.5 411.26605667538115 " transform="rotate(301.5, 400, 400)"></path><path d="M37 436.30623461405435C60.527777777777786 409.83748461405435 70.61111111111111 342.6152623918321 117.66666666666669 345.55623461405435C164.72222222222223 348.4972068362766 151.27777777777777 443.1544985029432 198.33333333333334 446.3895679473877C245.3888888888889 449.62463739183215 231.94444444444446 355.76560961405437 279 356.64790128072104C326.05555555555554 357.5301929473877 312.6111111111111 444.1208179473877 359.6666666666667 449.4145679473877C406.72222222222223 454.7083179473877 393.27777777777777 374.2097068362766 440.3333333333333 374.797901280721C487.3888888888889 375.3860957251655 473.94444444444446 455.8426929473877 521 451.43123461405435C568.0555555555555 447.01977628072103 554.6111111111111 359.672901280721 601.6666666666666 359.672901280721C648.7222222222222 359.672901280721 635.2777777777778 436.432276280721 682.3333333333334 451.43123461405435C729.3888888888889 466.4301929473877 739.4722222222222 422.8617901696099 763 411.09790128072103 " transform="rotate(297, 400, 400)"></path><path d="M42.5 435.75613096025256C65.6712962962963 409.6884226269192 75.60185185185185 343.4847189232155 121.94444444444446 346.38113096025256C168.28703703703707 349.2775429972896 155.04629629629628 442.50063327506734 201.38888888888889 445.6866865158081C247.73148148148152 448.87273975654887 234.4907407407407 356.43581846025256 280.83333333333337 357.30474207136365C327.175925925926 358.1736656824748 313.93518518518516 443.4523115158081 360.27777777777777 448.6658531824748C406.6203703703704 453.8793948491414 393.3796296296296 374.60045966395626 439.72222222222223 375.17974207136365C486.0648148148148 375.75902447877104 472.82407407407413 454.9965823491414 519.1666666666667 450.6519642935859C565.5092592592592 446.30734623803033 552.2685185185186 360.28390873803033 598.6111111111111 360.28390873803033C644.9537037037037 360.28390873803033 631.712962962963 435.880262904697 678.0555555555555 450.6519642935859C724.398148148148 465.4236656824748 734.3287037037037 422.5153902195118 757.5 410.92974207136365 " transform="rotate(292.5, 400, 400)"></path><path d="M48 435.206031121148C70.81481481481482 409.53936445448136 80.59259259259258 344.35417926929614 126.22222222222223 347.206031121148C171.85185185185185 350.05788297299983 158.81481481481478 441.8467718618887 204.44444444444446 444.98380889892576C250.07407407407408 448.12084593596285 237.037037037037 357.106031121148 282.66666666666663 357.9615866767036C328.2962962962963 358.81714223225913 315.25925925925924 442.78380889892577 360.8888888888889 447.9171422322591C406.51851851851853 453.0504755655925 393.48148148148147 374.9912163063332 439.1111111111111 375.56158667670354C484.74074074074065 376.1319570470739 471.70370370370375 454.15047556559244 517.3333333333333 449.8726977878147C562.9629629629629 445.5949200100369 549.925925925926 360.8949200100369 595.5555555555555 360.8949200100369C641.1851851851851 360.8949200100369 628.1481481481482 435.3282533433702 673.7777777777778 449.8726977878147C719.4074074074074 464.4171422322591 729.1851851851851 422.168994084111 752 410.7615866767036 " transform="rotate(288, 400, 400)"></path><path d="M53.5 434.65595417022706C75.95833333333334 409.39032917022706 85.58333333333333 345.2236625035604 130.5 348.03095417022706C175.41666666666669 350.8382458368937 162.58333333333331 441.1929333368937 207.5 444.28095417022706C252.41666666666663 447.3689750035604 239.58333333333337 357.7762666702271 284.5 358.61845417022704C329.4166666666667 359.46064167022706 316.5833333333333 442.115329170227 361.5 447.16845417022705C406.4166666666667 452.2215791702271 393.5833333333333 375.38199583689374 438.5 375.943454170227C483.4166666666667 376.5049125035604 470.5833333333333 453.30439167022706 515.5 449.09345417022706C560.4166666666667 444.88251667022706 547.5833333333333 361.505954170227 592.5 361.505954170227C637.4166666666666 361.505954170227 624.5833333333334 434.7762666702271 669.5 449.09345417022706C714.4166666666666 463.41064167022705 724.0416666666666 421.82262083689375 746.5 410.59345417022706 " transform="rotate(283.5, 400, 400)"></path><path d="M59 434.1058505164252C81.10185185185186 409.2412671830919 90.57407407407408 346.09311903494375 134.77777777777777 348.8558505164252C178.98148148148152 351.61858199790674 166.35185185185182 440.5390681090178 210.55555555555554 443.57807273864745C254.7592592592593 446.6170773682771 242.12962962962956 358.44647551642527 286.33333333333337 359.2752949608697C330.53703703703707 360.10411440531414 317.9074074074074 441.4468227386475 362.1111111111111 446.41973940531415C406.31481481481484 451.3926560719808 393.68518518518516 375.7727486645734 437.8888888888889 376.32529496086966C482.09259259259255 376.877841257166 469.462962962963 452.45828107198076 513.6666666666667 448.3141838497586C557.8703703703703 444.17008662753636 545.2407407407409 362.11696162753634 589.4444444444445 362.11696162753634C633.648148148148 362.11696162753634 621.0185185185186 434.224253294203 665.2222222222222 448.3141838497586C709.4259259259259 462.40411440531415 718.898148148148 421.4762208867956 741 410.4252949608697 " transform="rotate(279, 400, 400)"></path><path d="M64.5 433.55575830671523C86.24537037037038 409.09221664004855 95.56481481481481 346.96258701041893 139.05555555555554 349.68075830671523C182.5462962962963 352.39892960301154 170.12037037037035 439.88521432523373 213.61111111111111 442.8752027511597C257.10185185185185 445.8651911770856 244.67592592592592 359.11669580671526 288.16666666666663 359.9321471956041C331.65740740740745 360.747598584493 319.23148148148147 440.7783277511597 362.72222222222223 445.671036084493C406.212962962963 450.56374441782634 393.787037037037 376.16351293634483 437.27777777777777 376.70714719560414C480.7685185185185 377.2507814548634 468.3425925925926 451.6121819178263 511.83333333333326 447.53492497338186C555.324074074074 443.45766802893746 542.8981481481482 362.72798052893745 586.3888888888889 362.72798052893745C629.8796296296296 362.72798052893745 617.4537037037037 433.6722513622708 660.9444444444445 447.53492497338186C704.4351851851851 461.397598584493 713.7546296296296 421.1298323807893 735.5 410.2571471956041 " transform="rotate(274.5, 400, 400)"></path><path d="M70 433.0056737263997C91.3888888888889 408.9431737263997 100.55555555555554 347.83206261528863 143.33333333333331 350.5056737263997C186.11111111111114 353.17928483751086 173.88888888888886 439.2313681708442 216.66666666666666 442.1723403930664C259.44444444444446 445.11331261528863 247.22222222222217 359.7869237263997 290 360.5890070597331C332.77777777777777 361.3910903930664 320.55555555555554 440.1098403930664 363.3333333333333 444.9223403930664C406.1111111111111 449.7348403930664 393.8888888888889 376.55428483751086 436.6666666666667 377.0890070597331C479.44444444444446 377.6237292819553 467.22222222222223 450.7660903930664 510 446.7556737263997C552.7777777777778 442.7452570597331 540.5555555555555 363.3390070597331 583.3333333333334 363.3390070597331C626.1111111111111 363.3390070597331 613.8888888888889 433.1202570597331 656.6666666666666 446.7556737263997C699.4444444444445 460.3910903930664 708.6111111111111 420.7834515041775 730 410.0890070597331 " transform="rotate(270, 400, 400)"></path><path d="M75.5 432.4555624432034C96.53240740740742 408.7941041098701 105.54629629629629 348.7015115172775 147.61111111111111 351.3305624432034C189.67592592592595 353.95961336912933 177.6574074074074 438.57749531357376 219.72222222222223 441.46945133209226C261.78703703703707 444.3614073506108 249.7685185185185 360.4571249432034 291.83333333333337 361.24584022098117C333.89814814814815 362.03455549875895 321.87962962962956 439.4413263320923 363.94444444444446 444.17361799875897C406.0092592592593 448.9059096654256 393.9907407407407 376.945030035796 436.05555555555554 377.4708402209812C478.1203703703703 377.99665040616634 466.1018518518519 449.91997216542563 508.16666666666674 445.9763957765367C550.2314814814814 442.0328193876478 538.212962962963 363.9500068876479 580.2777777777778 363.9500068876479C622.3425925925925 363.9500068876479 610.3240740740741 432.5682360543145 652.3888888888889 445.9763957765367C694.4537037037037 459.38455549875897 703.4675925925925 420.4370439246849 724.5 409.9208402209812 " transform="rotate(265.5, 400, 400)"></path><path d="M81 431.9054740481906C101.67592592592594 408.645057381524 110.53703703703704 349.5709833074499 151.88888888888889 352.1554740481906C193.24074074074076 354.7399647889314 181.42592592592592 437.92364534448694 222.77777777777777 440.76658515930177C264.1296296296297 443.6095249741166 252.3148148148148 361.12734904819064 293.66666666666663 361.9026962704129C335.01851851851853 362.6780434926351 323.2037037037037 438.77283515930174 364.55555555555554 443.4249184926351C405.90740740740745 448.0770018259684 394.09259259259255 377.33579812226475 435.44444444444446 377.8526962704129C476.79629629629625 378.369594418561 464.9814814814815 449.07387682596845 506.3333333333333 445.1971407148573C547.6851851851852 441.32040460374617 535.8703703703704 364.5610296037462 577.2222222222222 364.5610296037462C618.574074074074 364.5610296037462 606.7592592592592 432.01623793707955 648.1111111111111 445.1971407148573C689.4629629629629 458.3780434926351 698.324074074074 420.09065923337585 719 409.75269627041286 " transform="rotate(261, 400, 400)"></path><path d="M86.5 431.3553742090861C106.81944444444446 408.4959992090861 115.52777777777777 350.44044365353056 156.16666666666669 352.9803742090861C196.80555555555557 355.52030476464165 185.19444444444443 437.2697839313083 225.83333333333334 440.0637075424194C266.47222222222223 442.8576311535305 254.8611111111111 361.7975617090861 295.5 362.55954087575276C336.1388888888889 363.3215200424194 324.52777777777777 438.10433254241946 365.1666666666667 442.67620754241943C405.80555555555554 447.2480825424194 394.19444444444446 377.72655476464166 434.8333333333333 378.23454087575277C475.47222222222223 378.7425269868639 463.8611111111111 448.2277700424194 504.5 444.4178742090861C545.1388888888889 440.60797837575274 533.5277777777778 365.17204087575277 574.1666666666667 365.17204087575277C614.8055555555555 365.17204087575277 603.1944444444445 431.4642283757528 643.8333333333334 444.4178742090861C684.4722222222222 457.37152004241943 693.1805555555555 419.744263097975 713.5 409.58454087575274 " transform="rotate(256.5, 400, 400)"></path><path d="M92 430.80527818467885C111.96296296296298 408.3469448513455 120.51851851851852 351.3099078143085 160.44444444444446 353.8052781846788C200.37037037037038 356.3006485550492 188.96296296296296 436.615926332827 228.88888888888889 439.3608337402344C268.8148148148148 442.10574114764177 257.4074074074074 362.4677781846788 297.33333333333337 363.21638929578995C337.2592592592593 363.965000406901 325.85185185185185 437.4358337402344 365.77777777777777 441.92750040690106C405.70370370370375 446.4191670735677 394.29629629629625 378.11731522171584 434.22222222222223 378.61638929578993C474.1481481481481 379.115463369864 462.7407407407408 447.3816670735677 502.6666666666667 443.63861151801217C542.5925925925926 439.89555596245657 531.1851851851852 365.7830559624566 571.1111111111111 365.7830559624566C611.037037037037 365.7830559624566 599.6296296296297 430.9122226291233 639.5555555555555 443.63861151801217C679.4814814814814 456.36500040690106 688.037037037037 419.3978707772714 708 409.41638929578994 " transform="rotate(252, 400, 400)"></path><path d="M97.5 430.2551974190606C117.1064814814815 408.1979057523939 125.50925925925925 352.17938723387545 164.72222222222223 354.6301974190606C203.93518518518522 357.08100760424577 192.73148148148147 435.9620839931347 231.94444444444446 438.6579751968384C271.1574074074074 441.3538664005421 259.9537037037037 363.1380099190606 299.16666666666663 363.87325297461615C338.3796296296297 364.6084960301717 327.1759259259259 436.7673501968384 366.3888888888889 441.1788085301717C405.60185185185185 445.59026686350506 394.39814814814815 378.50809093757914 433.6111111111111 378.99825297461615C472.824074074074 379.4884150116532 461.6203703703704 446.53557936350506 500.8333333333333 442.8593640857273C540.0462962962963 439.18314880794946 528.8425925925926 366.39408630794946 568.0555555555555 366.39408630794946C607.2685185185185 366.39408630794946 596.0648148148148 430.36023214128284 635.2777777777778 442.8593640857273C674.4907407407408 455.3584960301717 682.8935185185185 419.0514937153569 702.5 409.24825297461615 " transform="rotate(247.5, 400, 400)"></path><path d="M103 429.70509757995603C122.25 408.04884757995603 130.5 353.04884757995603 169 355.45509757995603C207.5 357.86134757995603 196.5 435.30822257995607 235 437.95509757995603C273.5 440.60197257995605 262.5 363.80822257995607 301 364.5300975799561C339.5 365.25197257995603 328.5 436.09884757995604 367 440.43009757995605C405.5 444.76134757995607 394.5 378.89884757995605 433 379.38009757995604C471.5 379.86134757995603 460.50000000000006 445.68947257995603 499 442.08009757995603C537.5 438.47072257995603 526.5 367.00509757995604 565 367.00509757995604C603.5 367.00509757995604 592.5 429.80822257995607 631 442.08009757995603C669.5 454.35197257995605 677.75 418.70509757995603 697 409.08009757995603 " transform="rotate(243, 400, 400)"></path><path d="M108.5 429.1549977408515C127.39351851851853 407.8997894075182 135.49074074074073 353.9183079260367 173.27777777777777 356.2799977408515C211.06481481481484 358.6416875556663 200.2685185185185 434.65436116677745 238.05555555555554 437.25221996307374C275.8425925925926 439.85007875937004 265.0462962962963 364.4784352408515 302.83333333333337 365.18694218529595C340.62037037037044 365.8954491297404 329.824074074074 435.4303449630737 367.6111111111111 439.6813866297404C405.39814814814815 443.93242829640707 394.60185185185185 379.28960422233297 432.3888888888889 379.76194218529594C470.1759259259259 380.2342801482589 459.3796296296296 444.84336579640706 497.1666666666667 441.3008310741848C534.9537037037037 437.7582963519626 524.1574074074074 367.6161088519626 561.9444444444445 367.6161088519626C599.7314814814814 367.6161088519626 588.9351851851852 429.2562130186293 626.7222222222222 441.3008310741848C664.5092592592592 453.3454491297404 672.6064814814814 418.3587014445552 691.5 408.91194218529597 " transform="rotate(238.5, 400, 400)"></path><path d="M114 428.6049055311415C132.53703703703704 407.75073886447484 140.48148148148147 354.78777590151185 177.55555555555554 357.10490553114147C214.62962962962965 359.42203516077115 204.037037037037 434.0005073829933 241.11111111111111 436.5493499755859C278.1851851851852 439.09819256817855 267.5925925925926 365.1486555311415 304.66666666666663 365.84379442003035C341.74074074074076 366.53893330891924 331.14814814814815 434.76184997558596 368.22222222222223 438.93268330891925C405.2962962962963 443.1035166422526 394.7037037037037 379.68036849410447 431.77777777777777 380.14379442003036C468.85185185185185 380.6072203459563 458.2592592592593 443.9972666422526 495.3333333333333 440.52157219780815C532.4074074074074 437.0458777533637 521.8148148148148 368.22712775336373 558.8888888888889 368.22712775336373C595.9629629629629 368.22712775336373 585.3703703703704 428.70421108669706 622.4444444444445 440.52157219780815C659.5185185185185 452.33893330891925 667.4629629629629 418.0123129385489 686 408.7437944200304 " transform="rotate(234, 400, 400)"></path><path d="M119.5 428.0548133214315C137.68055555555557 407.6016883214315 145.47222222222223 355.657243876987 181.83333333333334 357.9298133214315C218.19444444444446 360.20238276587594 207.80555555555554 433.3466535992093 244.16666666666669 435.84647998809817C280.5277777777778 438.34630637698706 270.13888888888886 365.81887582143145 306.5 366.5006466547648C342.8611111111111 367.18241748809817 332.47222222222223 434.09335498809816 368.83333333333337 438.18397998809814C405.19444444444446 442.27460498809813 394.80555555555554 380.0711327658759 431.1666666666667 380.52564665476484C467.5277777777777 380.9801605436537 457.1388888888889 443.15116748809817 493.5 439.7423133214315C529.8611111111111 436.3334591547648 519.4722222222222 368.83814665476484 555.8333333333333 368.83814665476484C592.1944444444445 368.83814665476484 581.8055555555555 428.1522091547648 618.1666666666667 439.7423133214315C654.5277777777778 451.33241748809814 662.3194444444445 417.66592443254257 680.5 408.5756466547648 " transform="rotate(229.5, 400, 400)"></path><path d="M125 427.50472111172144C142.82407407407408 407.4526377783881 150.46296296296296 356.5267118524622 186.11111111111111 358.75472111172144C221.75925925925927 360.98273037098073 211.57407407407408 432.69279981542513 247.22222222222223 435.14361000061035C282.8703703703704 437.59442018579557 272.6851851851852 366.48909611172144 308.33333333333337 367.15749888949927C343.9814814814815 367.82590166727704 333.7962962962963 433.42486000061035 369.44444444444446 437.43527666727704C405.0925925925926 441.44569333394367 394.9074074074074 380.4618970376474 430.55555555555554 380.90749888949927C466.2037037037037 381.3531007413511 456.01851851851853 442.30506833394367 491.6666666666667 438.9630544450548C527.3148148148148 435.6210405561659 517.1296296296297 369.4491655561659 552.7777777777778 369.4491655561659C588.4259259259259 369.4491655561659 578.2407407407409 427.6002072228326 613.8888888888889 438.9630544450548C649.537037037037 450.32590166727704 657.1759259259259 417.3195359265363 675 408.40749888949927 " transform="rotate(225, 400, 400)"></path><path d="M130.5 426.9546250873142C147.9675925925926 407.3035834206475 155.4537037037037 357.3961760132401 190.38888888888889 359.5796250873142C225.32407407407408 361.76307416138826 215.34259259259258 432.0389422169438 250.27777777777777 434.44073619842527C285.212962962963 436.8425301799068 275.23148148148147 367.15931258731416 310.16666666666663 367.8143473095364C345.10185185185185 368.46938203175864 335.1203703703703 432.7563611984253 370.05555555555554 436.6865695317586C404.99074074074076 440.616777865092 395.00925925925924 380.8526574947216 429.94444444444446 381.2893473095364C464.8796296296296 381.72603712435125 454.89814814814815 441.45896536509196 489.8333333333333 438.1837917539808C524.7685185185185 434.9086181428697 514.7870370370371 370.06018064286974 549.7222222222222 370.06018064286974C584.6574074074074 370.06018064286974 574.675925925926 427.0482014762031 609.6111111111111 438.1837917539808C644.5462962962963 449.3193820317586 652.0324074074074 416.9731436058327 669.5 408.2393473095364 " transform="rotate(220.5, 400, 400)"></path><path d="M136 426.4045214335124C153.11111111111111 407.1545214335124 160.44444444444446 358.2656325446235 194.66666666666666 360.4045214335124C228.8888888888889 362.54341032240126 219.1111111111111 431.3850769890679 253.33333333333331 433.7378547668457C287.55555555555554 436.0906325446235 277.77777777777777 367.82952143351235 312 368.471188100179C346.22222222222223 369.1128547668457 336.44444444444446 432.0878547668457 370.66666666666663 435.9378547668457C404.8888888888889 439.7878547668457 395.1111111111111 381.24341032240125 429.3333333333333 381.67118810017905C463.55555555555554 382.0989658779568 453.7777777777778 440.6128547668457 488 437.4045214335124C522.2222222222222 434.19618810017903 512.4444444444445 370.67118810017905 546.6666666666667 370.67118810017905C580.8888888888889 370.67118810017905 571.1111111111111 426.49618810017904 605.3333333333333 437.4045214335124C639.5555555555555 448.3128547668457 646.8888888888889 416.6267436557346 664 408.07118810017903 " transform="rotate(216, 400, 400)"></path><path d="M141.5 425.8544330384996C158.25462962962962 407.0054747051663 165.4351851851852 359.1351043347959 198.94444444444446 361.2294330384996C232.45370370370372 363.3237617422033 222.87962962962962 430.7312270199811 256.3888888888889 433.03498859405516C289.89814814814815 435.33875016812925 280.3240740740741 368.4997455384996 313.83333333333337 369.12804414961073C347.3425925925926 369.75634276072185 337.7685185185185 431.4193635940552 371.27777777777777 435.18915526072186C404.78703703703707 438.9589469273885 395.21296296296293 381.63417840887 428.72222222222223 382.05304414961074C462.23148148148147 382.47190989035147 452.65740740740745 439.7667594273885 486.1666666666667 436.62526637183294C519.6759259259259 433.4837733162774 510.1018518518519 371.28221081627737 543.6111111111111 371.28221081627737C577.1203703703703 371.28221081627737 567.5462962962963 425.94418998294407 601.0555555555555 436.62526637183294C634.5648148148148 447.30634276072186 641.7453703703703 416.28035896442555 658.5 407.9030441496107 " transform="rotate(211.5, 400, 400)"></path><path d="M147 425.3043370140923C163.39814814814815 406.8564203474257 170.42592592592592 360.00456849557384 203.22222222222223 362.0543370140923C236.01851851851853 364.10410553261084 226.64814814814815 430.0773694214997 259.44444444444446 432.33211479187014C292.24074074074076 434.5868601622405 282.8703703703703 369.16996201409233 315.66666666666663 369.7848925696479C348.462962962963 370.39982312520345 339.0925925925926 430.75086479187013 371.8888888888889 434.44044812520343C404.6851851851852 438.1300314585368 395.3148148148148 382.0249388659442 428.1111111111111 382.4348925696479C460.9074074074074 382.8448462733516 451.53703703703707 438.92065645853677 484.3333333333333 435.846003680759C517.1296296296296 432.7713509029812 507.7592592592593 371.8932259029812 540.5555555555555 371.8932259029812C573.3518518518518 371.8932259029812 563.9814814814815 425.39218423631456 596.7777777777778 435.846003680759C629.574074074074 446.29982312520343 636.6018518518518 415.933966643722 653 407.7348925696479 " transform="rotate(207, 400, 400)"></path><path d="M152.5 424.7542486190796C168.54166666666669 406.7073736190796 175.41666666666666 360.8740402857463 207.5 362.8792486190796C239.58333333333334 364.8844569524129 230.41666666666666 429.4235194524129 262.5 431.6292486190796C294.58333333333337 433.8349777857463 285.41666666666663 369.8401861190796 317.5 370.4417486190796C349.58333333333337 371.0433111190796 340.41666666666663 430.0823736190796 372.5 433.6917486190796C404.58333333333337 437.3011236190796 395.41666666666663 382.4157069524129 427.5 382.8167486190796C459.5833333333333 383.2177902857463 450.4166666666667 438.0745611190796 482.5 435.0667486190796C514.5833333333333 432.0589361190796 505.4166666666667 372.5042486190796 537.5 372.5042486190796C569.5833333333333 372.5042486190796 560.4166666666667 424.8401861190796 592.5 435.0667486190796C624.5833333333333 445.2933111190796 631.4583333333333 415.5875819524129 647.5 407.5667486190796 " transform="rotate(202.5, 400, 400)"></path><path d="M158 424.20414877997507C173.6851851851852 406.5583154466417 180.4074074074074 361.7435006318269 211.77777777777777 363.70414877997507C243.14814814814815 365.66479692812317 234.18518518518516 428.7696580392343 265.55555555555554 430.92637100219724C296.9259259259259 433.0830839651602 287.96296296296293 370.51039877997505 319.33333333333337 371.09859322441946C350.7037037037037 371.68678766886393 341.7407407407407 429.41387100219725 373.1111111111111 432.94303766886395C404.4814814814815 436.4722043355306 395.5185185185185 382.8064635947899 426.8888888888889 383.1985932244195C458.25925925925924 383.5907228540491 449.2962962962963 437.2284543355306 480.6666666666667 434.2874821133084C512.037037037037 431.34650989108616 503.0740740740741 373.11525989108617 534.4444444444445 373.11525989108617C565.8148148148148 373.11525989108617 556.851851851852 424.2881765577528 588.2222222222222 434.2874821133084C619.5925925925926 444.28678766886395 626.3148148148148 415.2411858170121 642 407.39859322441947 " transform="rotate(198, 400, 400)"></path><path d="M163.5 423.6540603849623C178.8287037037037 406.4092687182956 185.39814814814815 362.6129724219993 216.05555555555554 364.5290603849623C246.712962962963 366.4451483479253 237.9537037037037 428.11580807014747 268.6111111111111 430.22350482940675C299.26851851851853 432.331201588666 290.50925925925924 371.1806228849623 321.16666666666663 371.7554492738512C351.8240740740741 372.33027566274006 343.0648148148148 428.7453798294067 373.72222222222223 432.19433816274005C404.3796296296297 435.6432964960734 395.6203703703703 383.1972316812586 426.27777777777777 383.5804492738512C456.93518518518516 383.96366686644376 448.175925925926 436.38235899607344 478.8333333333333 433.508227051629C509.4907407407407 430.6340951071845 500.7314814814815 373.72628260718454 531.3888888888889 373.72628260718454C562.0462962962963 373.72628260718454 553.2870370370371 423.73617844051785 583.9444444444445 433.508227051629C614.6018518518518 443.28027566274005 621.1712962962963 414.89480112570305 636.5 407.2304492738512 " transform="rotate(193.5, 400, 400)"></path><path d="M169 423.1039605458577C183.97222222222223 406.2602105458577 190.38888888888889 363.48243276808 220.33333333333334 365.3539605458577C250.27777777777777 367.22548832363555 241.72222222222223 427.46194665696885 271.6666666666667 429.5206272125244C301.61111111111114 431.57930776807996 293.05555555555554 371.85083554585776 323 372.4122938791911C352.94444444444446 372.9737522125244 344.38888888888886 428.07687721252444 374.33333333333337 431.4456272125244C404.27777777777777 434.8143772125244 395.72222222222223 383.5879883236355 425.6666666666667 383.96229387919107C455.6111111111111 384.33659943474663 447.0555555555556 435.5362522125244 477 432.7289605458577C506.9444444444444 429.9216688791911 498.3888888888889 374.33729387919107 528.3333333333333 374.33729387919107C558.2777777777778 374.33729387919107 549.7222222222222 423.1841688791911 579.6666666666667 432.7289605458577C609.6111111111111 442.2737522125244 616.0277777777778 414.5484049903022 631 407.0622938791911 " transform="rotate(189, 400, 400)"></path><path d="M174.5 422.553872150845C189.11574074074076 406.1111638175117 195.37962962962962 364.3519045582524 224.61111111111111 366.178872150845C253.8425925925926 368.0058397434376 245.4907407407407 426.808096687882 274.72222222222223 428.8177610397339C303.9537037037037 430.82742539158573 295.60185185185185 372.521059650845 324.83333333333337 373.0691499286228C354.0648148148148 373.61724020640054 345.71296296296293 427.4083860397339 374.94444444444446 430.6969277064006C404.175925925926 433.9854693730672 395.824074074074 383.97875641010427 425.05555555555554 384.34414992862276C454.287037037037 384.7095434471413 445.9351851851852 434.6901568730672 475.1666666666667 431.94970548417837C504.39814814814815 429.20925409528945 496.0462962962963 374.94831659528944 525.2777777777778 374.94831659528944C554.5092592592591 374.94831659528944 546.1574074074074 422.6321707619561 575.3888888888889 431.94970548417837C604.6203703703703 441.2672402064006 610.8842592592591 414.20202029899315 625.5 406.89414992862277 " transform="rotate(184.5, 400, 400)"></path><path d="M180 422.00376468234595C194.25925925925927 405.96209801567926 200.37037037037038 365.2213572749385 228.88888888888889 367.00376468234595C257.4074074074074 368.78617208975334 249.25925925925924 426.1542276453089 277.77777777777777 428.11487579345703C306.2962962962963 430.0755239416052 298.14814814814815 373.19126468234595 326.66666666666663 373.7259869045681C355.1851851851852 374.26070912679035 347.037037037037 426.73987579345703 375.55555555555554 429.94820912679035C404.0740740740741 433.1565424601237 395.9259259259259 384.36950542308665 424.44444444444446 384.7259869045681C452.96296296296293 385.08246838604964 444.81481481481484 433.8440424601237 473.3333333333333 431.1704313490126C501.85185185185185 428.4968202379015 493.70370370370375 375.5593202379015 522.2222222222222 375.5593202379015C550.7407407407406 375.5593202379015 542.5925925925926 422.0801535712348 571.1111111111111 431.1704313490126C599.6296296296296 440.26070912679035 605.7407407407406 413.8556165341978 620 406.7259869045681 " transform="rotate(180, 400, 400)"></path><path d="M185.5 421.45368010203043C199.40277777777777 405.81305510203043 205.36111111111111 366.0908328798082 233.16666666666666 367.82868010203043C260.97222222222223 369.56652732425266 253.02777777777777 425.5003814909193 280.8333333333333 427.41201343536375C308.6388888888889 429.3236453798082 300.69444444444446 373.86149260203047 328.5 374.3828467686971C356.30555555555554 374.90420093536375 348.3611111111111 426.07138843536376 376.16666666666663 429.19951343536377C403.97222222222223 432.3276384353638 396.02777777777777 384.7602773242527 423.83333333333337 385.1078467686971C451.63888888888886 385.4554162131416 443.69444444444446 432.99795093536375 471.5 430.39118010203043C499.30555555555554 427.7844092686971 491.36111111111114 376.1703467686971 519.1666666666667 376.1703467686971C546.9722222222222 376.1703467686971 539.0277777777778 421.5281592686971 566.8333333333333 430.39118010203043C594.6388888888889 439.25420093536377 600.5972222222222 413.509235657586 614.5 406.5578467686971 " transform="rotate(175.5, 400, 400)"></path><path d="M191 420.9035859849718C204.5462962962963 405.66400265163844 210.35185185185185 366.96029894793475 237.44444444444446 368.6535859849718C264.53703703703707 370.3468730220088 256.7962962962963 424.8465257997866 283.8888888888889 426.70914154052736C310.9814814814815 428.5717572812681 303.24074074074076 374.53171098497177 330.33333333333337 375.0396970960829C357.4259259259259 375.54768320719404 349.6851851851852 425.4028915405273 376.77777777777777 428.45080820719403C403.87037037037044 431.4987248738607 396.12962962962956 385.1510396886755 423.22222222222223 385.4896970960829C450.3148148148148 385.8283545034903 442.5740740740741 432.15184987386067 469.6666666666667 429.6119193183051C496.75925925925924 427.0719887627496 489.01851851851853 376.78136376274955 516.1111111111111 376.78136376274955C543.2037037037037 376.78136376274955 535.462962962963 420.9761554294162 562.5555555555555 429.6119193183051C589.648148148148 438.24768320719403 595.4537037037037 413.16284524423105 609 406.3896970960829 " transform="rotate(171, 400, 400)"></path><path d="M196.5 420.35348614586724C209.68981481481484 405.51494447920055 215.34259259259258 367.8297592940154 241.72222222222223 369.47848614586724C268.10185185185185 371.1272129977191 260.5648148148148 424.192664386608 286.94444444444446 426.006263923645C313.3240740740741 427.8198634606821 305.787037037037 375.2019236458672 332.16666666666663 375.6965417014228C358.5462962962963 376.1911597569783 351.00925925925924 424.73438892364504 377.3888888888889 427.70209725697833C403.76851851851853 430.6698055903117 396.23148148148147 385.5417963310524 422.6111111111111 385.8715417014228C448.9907407407407 386.20128707179316 441.4537037037037 431.3057430903117 467.8333333333333 428.8326528125339C494.21296296296293 426.35956253475615 486.675925925926 377.3923750347561 513.0555555555555 377.3923750347561C539.4351851851852 377.3923750347561 531.8981481481482 420.42414586808945 558.2777777777778 428.8326528125339C584.6574074074074 437.24115975697833 590.3101851851852 412.8164491088302 603.5 406.2215417014228 " transform="rotate(166.5, 400, 400)"></path><path d="M202 419.80339965820315C214.83333333333334 405.36589965820315 220.33333333333331 368.69923299153646 246 370.30339965820315C271.6666666666667 371.9075663248698 264.3333333333333 423.5388163248698 290 425.30339965820315C315.6666666666667 427.0679829915365 308.3333333333333 375.8721496582031 334 376.3533996582031C359.6666666666667 376.83464965820315 352.3333333333333 424.06589965820314 378 426.9533996582031C403.66666666666663 429.8408996582031 396.33333333333337 385.9325663248698 422 386.25339965820314C447.66666666666663 386.57423299153646 440.33333333333337 430.45964965820315 466 428.05339965820315C491.66666666666663 425.64714965820315 484.33333333333337 378.00339965820314 510 378.00339965820314C535.6666666666666 378.00339965820314 528.3333333333334 419.8721496582031 554 428.05339965820315C579.6666666666667 436.2346496582031 585.1666666666667 412.4700663248698 598 406.05339965820315 " transform="rotate(162, 400, 400)"></path><path d="M207.5 419.2533017264472C219.97685185185185 405.2168433931139 225.32407407407408 369.56869524496574 250.27777777777777 371.1283017264472C275.2314814814815 372.6879082079287 268.10185185185185 422.8849568190398 293.05555555555554 424.60052394866943C318.00925925925924 426.31609107829905 310.8796296296296 376.5423642264472 335.83333333333337 377.01024617089166C360.78703703703707 377.4781281153361 353.6574074074074 423.39739894866943 378.6111111111111 426.2046906153361C403.56481481481484 429.01198228200275 396.43518518518516 386.32332487459536 421.3888888888889 386.63524617089166C446.3425925925926 386.94716746718797 439.212962962963 429.61354478200275 464.1666666666667 427.2741350597805C489.1203703703704 424.93472533755835 481.99074074074076 378.61441283755835 506.94444444444446 378.61441283755835C531.8981481481482 378.61441283755835 524.7685185185185 419.320142004225 549.7222222222222 427.2741350597805C574.6759259259259 435.2281281153361 580.023148148148 412.1236720968176 592.5 405.88524617089166 " transform="rotate(157.5, 400, 400)"></path><path d="M213 418.70320570203995C225.12037037037038 405.06778903537327 230.3148148148148 370.43815940574365 254.55555555555554 371.95320570203995C278.7962962962963 373.4682519983362 271.8703703703703 422.23109922055846 296.1111111111111 423.89765014648435C320.35185185185185 425.5642010724103 313.4259259259259 377.21258070203993 337.6666666666667 377.6670945909288C361.9074074074074 378.1216084798177 354.98148148148147 422.72890014648436 379.22222222222223 425.4559834798177C403.462962962963 428.1830668131511 396.537037037037 386.7140853316696 420.77777777777777 387.0170945909288C445.0185185185185 387.32010385018805 438.0925925925926 428.76744181315104 462.33333333333337 426.4948723687066C486.574074074074 424.2223029242622 479.64814814814815 379.22542792426214 503.8888888888889 379.22542792426214C528.1296296296296 379.22542792426214 521.2037037037037 418.7681362575955 545.4444444444445 426.4948723687066C569.6851851851852 434.2216084798177 574.8796296296296 411.777279776114 587 405.7170945909288 " transform="rotate(153, 400, 400)"></path><path d="M218.5 418.1531134923299C230.2638888888889 404.9187384923299 235.30555555555554 371.3076273812188 258.83333333333337 372.7781134923299C282.3611111111111 374.248599603441 275.6388888888889 421.5772454367744 299.1666666666667 423.1947801589966C322.69444444444446 424.8123148812188 315.97222222222223 377.8828009923299 339.5 378.32394682566326C363.02777777777777 378.7650926589966 356.30555555555554 422.06040515899656 379.83333333333337 424.7072801589966C403.3611111111111 427.3541551589966 396.6388888888889 387.10484960344104 420.16666666666663 387.39894682566324C443.69444444444446 387.69304404788545 436.97222222222223 427.9213426589966 460.5 425.7156134923299C484.02777777777777 423.5098843256633 477.30555555555554 379.83644682566324 500.8333333333333 379.83644682566324C524.3611111111111 379.83644682566324 517.6388888888889 418.21613432566323 541.1666666666667 425.7156134923299C564.6944444444445 433.2150926589966 569.7361111111111 411.4308912701077 581.5 405.5489468256633 " transform="rotate(148.5, 400, 400)"></path><path d="M224 417.6030212826199C235.4074074074074 404.76968794928655 240.2962962962963 372.177095356694 263.1111111111111 373.6030212826199C285.9259259259259 375.02894720854584 279.4074074074074 420.9233916529903 302.22222222222223 422.4919101715088C325.03703703703707 424.0604286900273 318.5185185185185 378.5530212826199 341.3333333333333 378.98079906039766C364.14814814814815 379.40857683817546 357.6296296296296 421.3919101715088 380.44444444444446 423.9585768381755C403.25925925925924 426.52524350484214 396.74074074074076 387.4956138752125 419.55555555555554 387.78079906039767C442.3703703703703 388.06598424558285 435.85185185185185 427.0752435048421 458.66666666666663 424.93635461595323C481.48148148148147 422.7974657270643 474.962962962963 380.44746572706435 497.77777777777777 380.44746572706435C520.5925925925926 380.44746572706435 514.0740740740741 417.664132393731 536.8888888888889 424.93635461595323C559.7037037037037 432.2085768381755 564.5925925925926 411.0845027641014 576 405.3807990603977 " transform="rotate(144, 400, 400)"></path><path d="M229.5 417.052923350864C240.55092592592592 404.6206316841973 245.28703703703704 373.0465576101233 267.3888888888889 374.427923350864C289.49074074074076 375.80928909160474 283.1759259259259 420.26953214716025 305.27777777777777 421.7890344619751C327.3796296296297 423.30853677678994 321.0648148148148 379.223235850864 343.1666666666667 379.6376455730862C365.26851851851853 380.05205529530843 358.9537037037037 420.7234094619751 381.05555555555554 423.2098677953084C403.1574074074074 425.6963261286418 396.8425925925926 387.88637242493803 418.94444444444446 388.1626455730862C441.0462962962963 388.43891872123436 434.7314814814815 426.22913862864175 456.83333333333337 424.15709001753066C478.93518518518516 422.0850414064195 472.62037037037044 381.05847890641957 494.72222222222223 381.05847890641957C516.824074074074 381.05847890641957 510.5092592592593 417.11212473975286 532.6111111111111 424.15709001753066C554.7129629629629 431.2020552953084 559.449074074074 410.7381085360492 570.5 405.2126455730862 " transform="rotate(139.5, 400, 400)"></path><path d="M235 416.5028330485026C245.69444444444446 404.4715830485026 250.27777777777777 373.916027492947 271.66666666666663 375.2528330485026C293.05555555555554 376.58963860405817 286.94444444444446 419.6156802707248 308.3333333333333 421.08616638183594C329.72222222222223 422.5566524929471 323.6111111111111 379.8934580485026 345 380.29449971516925C366.3888888888889 380.69554138183594 360.27777777777777 420.05491638183594 381.66666666666663 422.46116638183594C403.05555555555554 424.86741638183594 396.94444444444446 388.27713860405817 418.33333333333337 388.54449971516925C439.72222222222223 388.8118608262804 433.6111111111111 425.38304138183594 455 423.3778330485026C476.3888888888889 421.37262471516925 470.27777777777777 381.66949971516925 491.6666666666667 381.66949971516925C513.0555555555555 381.66949971516925 506.94444444444446 416.56012471516925 528.3333333333333 423.3778330485026C549.7222222222222 430.19554138183594 554.3055555555555 410.3917219373915 565 405.04449971516925 " transform="rotate(135, 400, 400)"></path><path d="M240.5 415.9527370240953C250.83796296296296 404.322528690762 255.26851851851853 374.78549165372493 275.94444444444446 376.0777370240953C296.6203703703704 377.3699823944657 290.71296296296293 418.96182267224344 311.3888888888889 420.38329257965086C332.06481481481484 421.80476248705827 326.1574074074074 380.56367452409535 346.8333333333333 380.95134813520644C367.50925925925924 381.33902174631754 361.60185185185185 419.38641757965087 382.27777777777777 421.71245924631756C402.9537037037037 424.0385009129842 397.0462962962963 388.66789906113235 417.72222222222223 388.92634813520647C438.39814814814815 389.18479720928053 432.49074074074076 424.5369384129842 453.16666666666663 422.5985703574287C473.8425925925926 420.6602023018731 467.9351851851852 382.2805148018731 488.6111111111111 382.2805148018731C509.287037037037 382.2805148018731 503.3796296296296 416.00811896853975 524.0555555555555 422.5985703574287C544.7314814814815 429.18902174631756 549.162037037037 410.0453296166879 559.5 404.87634813520646 " transform="rotate(130.5, 400, 400)"></path><path d="M246 415.40264672173396C255.98148148148147 404.1734800550673 260.25925925925924 375.65496153654874 280.22222222222223 376.90264672173396C300.1851851851852 378.1503319069191 294.48148148148147 418.307970795808 314.44444444444446 419.68042449951173C334.4074074074074 421.0528782032154 328.7037037037037 381.2338967217339 348.6666666666667 381.6082022772895C368.6296296296297 381.98250783284504 362.9259259259259 418.7179244995117 382.8888888888889 420.96375783284503C402.85185185185185 423.20959116617837 397.14814814814815 389.0586652402525 417.1111111111111 389.3082022772895C437.074074074074 389.5577393143265 431.37037037037044 423.6908411661784 451.33333333333337 421.8193133884006C471.2962962962963 419.9477856106228 465.5925925925926 382.89153561062284 485.55555555555554 382.89153561062284C505.5185185185185 382.89153561062284 499.81481481481484 415.45611894395614 519.7777777777778 421.8193133884006C539.7407407407406 428.18250783284503 544.0185185185185 409.69894301803026 554 404.7082022772895 " transform="rotate(126, 400, 400)"></path><path d="M251.5 414.852548789978C261.125 404.024423789978 265.25 376.524423789978 284.5 377.727548789978C303.75 378.930673789978 298.25 417.654111289978 317.5 418.977548789978C336.75 420.300986289978 331.25 381.904111289978 350.5 382.26504878997804C369.75 382.625986289978 364.25 418.04942378997805 383.5 420.215048789978C402.75 422.380673789978 397.25 389.449423789978 416.5 389.69004878997805C435.75 389.930673789978 430.25 422.844736289978 449.5 421.040048789978C468.75 419.235361289978 463.25 383.50254878997805 482.5 383.50254878997805C501.75 383.50254878997805 496.25 414.904111289978 515.5 421.040048789978C534.75 427.175986289978 538.875 409.352548789978 548.5 404.540048789978 " transform="rotate(121.5, 400, 400)"></path><path d="M257 414.30245658026803C266.26851851851853 403.87537324693466 270.24074074074076 377.3938917654532 288.77777777777777 378.55245658026803C307.31481481481484 379.7110213950828 302.0185185185185 417.0002575061939 320.55555555555554 418.27467880249026C339.0925925925926 419.54910009878654 333.7962962962963 382.574331580268 352.3333333333333 382.92190102471244C370.8703703703704 383.2694704691569 365.5740740740741 417.38092880249025 384.1111111111111 419.4663454691569C402.64814814814815 421.55176213582354 397.35185185185185 389.8401880617495 415.8888888888889 390.0719010247125C434.4259259259259 390.3036139876754 429.1296296296297 421.99863713582357 447.66666666666663 420.26078991360134C466.2037037037037 418.5229426913791 460.9074074074074 384.1135676913791 479.44444444444446 384.1135676913791C497.98148148148147 384.1135676913791 492.6851851851852 414.35210935804577 511.22222222222223 420.26078991360134C529.7592592592592 426.1694704691569 533.7314814814815 409.0061602839717 543 404.37190102471243 " transform="rotate(117, 400, 400)"></path><path d="M262.5 413.75235674116345C271.41203703703707 403.7263150744968 275.23148148148147 378.26335211153383 293.05555555555554 379.37735674116345C310.8796296296296 380.4913613707931 305.78703703703707 416.3463960930153 323.6111111111111 417.5718011856079C341.4351851851852 418.7972062782005 336.3425925925926 383.24454424116345 354.1666666666667 383.57874563005237C371.99074074074076 383.9129470189412 366.89814814814815 416.7124261856079 384.72222222222223 418.7176345189412C402.5462962962963 420.7228428522746 397.4537037037037 390.23094470412644 415.27777777777777 390.45374563005237C433.10185185185185 390.6765465559783 428.00925925925924 421.1525303522746 445.83333333333337 419.48152340783014C463.6574074074074 417.8105164633857 458.56481481481484 384.7245789633857 476.3888888888889 384.7245789633857C494.21296296296293 384.7245789633857 489.12037037037044 413.800099796719 506.94444444444446 419.48152340783014C524.7685185185185 425.1629470189412 528.5879629629629 408.6597641485709 537.5 404.20374563005237 " transform="rotate(112.5, 400, 400)"></path><path d="M268 413.2022607167562C276.55555555555554 403.5772607167562 280.22222222222223 379.13281627231174 297.3333333333333 380.2022607167562C314.44444444444446 381.27170516120066 309.55555555555554 415.69253849453395 326.66666666666663 416.86892738342283C343.77777777777777 418.04531627231177 338.8888888888889 383.9147607167562 356 384.2355940500895C373.1111111111111 384.55642738342283 368.22222222222223 416.04392738342284 385.3333333333333 417.96892738342285C402.44444444444446 419.89392738342286 397.55555555555554 390.6217051612006 414.66666666666663 390.8355940500895C431.77777777777777 391.04948293897843 426.8888888888889 420.30642738342283 444 418.7022607167562C461.1111111111111 417.0980940500895 456.22222222222223 385.3355940500895 473.33333333333337 385.3355940500895C490.44444444444446 385.3355940500895 485.55555555555554 413.24809405008955 502.66666666666663 418.7022607167562C519.7777777777778 424.15642738342285 523.4444444444445 408.3133718278673 532 404.0355940500895 " transform="rotate(108, 400, 400)"></path><path d="M273.5 412.6521704143948C281.6990740740741 403.4282120810615 285.21296296296293 380.00228615513555 301.6111111111111 381.0271704143948C318.00925925925924 382.0520546736541 313.3240740740741 415.0386866180985 329.72222222222223 416.1660593032837C346.1203703703704 417.29343198846885 341.43518518518516 384.5849829143948 357.8333333333333 384.8924481921726C374.2314814814815 385.1999134699504 369.5462962962963 415.37543430328367 385.94444444444446 417.2202259699504C402.3425925925926 419.06501763661703 397.6574074074074 391.01247134032076 414.05555555555554 391.2174481921726C430.4537037037037 391.4224250440244 425.76851851851853 419.460330136617 442.16666666666663 417.92300374772816C458.5648148148148 416.38567735883925 453.8796296296297 385.94661485883927 470.27777777777777 385.94661485883927C486.6759259259259 385.94661485883927 481.99074074074076 412.6960940255059 498.3888888888889 417.92300374772816C514.787037037037 423.1499134699504 518.3009259259259 407.9669852292096 526.5 403.86744819217256 " transform="rotate(103.5, 400, 400)"></path><path d="M279 412.10207629733617C286.8425925925926 403.2791596306695 290.2037037037037 380.8717522232621 305.8888888888889 381.85207629733617C321.5740740740741 382.83240037141024 317.0925925925926 414.3848309269658 332.77777777777777 415.46318740844725C348.46296296296293 416.54154388992873 343.98148148148147 385.25520129733616 359.6666666666667 385.54929851955836C375.35185185185185 385.84339574178057 370.8703703703703 414.7069374084473 386.55555555555554 416.4715207417806C402.24074074074076 418.23610407511393 397.75925925925924 391.40323370474357 413.44444444444446 391.5992985195584C429.1296296296296 391.7953633343732 424.64814814814815 418.61422907511394 440.33333333333337 417.1437429640028C456.0185185185185 415.6732568528917 451.53703703703707 386.5576318528917 467.22222222222223 386.5576318528917C482.9074074074074 386.5576318528917 478.425925925926 412.14409018622507 494.1111111111111 417.1437429640028C509.7962962962963 422.1433957417806 513.1574074074074 407.6205948158547 521 403.6992985195584 " transform="rotate(99, 400, 400)"></path><path d="M284.5 411.55198027292886C291.9861111111111 403.13010527292886 295.19444444444446 381.74121638404 310.1666666666667 382.67698027292886C325.1388888888889 383.6127441618178 320.8611111111111 413.7309733284844 335.83333333333337 414.76031360626223C350.80555555555554 415.78965388404 346.52777777777777 385.9254177729289 361.5 386.20614693959556C376.47222222222223 386.48687610626223 372.19444444444446 414.0384386062622 387.1666666666667 415.7228136062622C402.1388888888889 417.4071886062622 397.8611111111111 391.79399416181775 412.83333333333337 391.98114693959553C427.80555555555554 392.1682997173733 423.5277777777778 417.76812610626223 438.5 416.36448027292886C453.4722222222222 414.96083443959554 449.19444444444446 387.16864693959553 464.16666666666663 387.16864693959553C479.1388888888889 387.16864693959553 474.8611111111111 411.59208443959557 489.83333333333337 416.36448027292886C504.80555555555554 421.1368761062622 508.0138888888889 407.2742024951511 515.5 403.53114693959554 " transform="rotate(94.5, 400, 400)"></path><path d="M290 411.00188806321887C297.1296296296296 402.9810547298855 300.1851851851852 382.6106843595152 314.44444444444446 383.50188806321887C328.7037037037037 384.39309176692257 324.6296296296296 413.07711954470034 338.8888888888889 414.0574436187744C353.14814814814815 415.0377676928485 349.0740740740741 386.59563806321887 363.3333333333333 386.86299917432996C377.5925925925926 387.1303602854411 373.5185185185185 413.3699436187744 387.77777777777777 414.9741102854411C402.03703703703707 416.57827695210773 397.96296296296293 392.18475843358925 412.22222222222223 392.36299917432996C426.48148148148147 392.5412399150707 422.4074074074074 416.92202695210773 436.66666666666663 415.5852213965522C450.9259259259259 414.24841584099664 446.85185185185185 387.77966584099664 461.1111111111111 387.77966584099664C475.3703703703703 387.77966584099664 471.2962962962963 411.0400825076633 485.55555555555554 415.5852213965522C499.8148148148148 420.1303602854411 502.8703703703703 406.9278139891448 510 403.36299917432996 " transform="rotate(90, 400, 400)"></path><path d="M295.5 410.4517929924859C302.27314814814815 402.83200132581925 305.1759259259259 383.48014947396734 318.72222222222223 384.3267929924859C332.26851851851853 385.1734365110044 328.39814814814815 412.4232628998933 341.94444444444446 413.35457077026365C355.49074074074076 414.28587864063405 351.6203703703704 387.2658554924859 365.1666666666667 387.51984854804147C378.71296296296293 387.773841603597 374.8425925925926 412.70144577026366 388.3888888888889 414.225404103597C401.9351851851852 415.7493624369303 398.0648148148148 392.57551984433775 411.6111111111111 392.74484854804143C425.1574074074074 392.9141772517452 421.28703703703707 416.07592493693033 434.83333333333337 414.80595965915256C448.3796296296296 413.5359943813748 444.50925925925924 388.3906818813748 458.05555555555554 388.3906818813748C471.60185185185185 388.3906818813748 467.7314814814815 410.48807771470814 481.27777777777777 414.80595965915256C494.824074074074 419.123841603597 497.72685185185185 406.5814226221155 504.5 403.1948485480415 " transform="rotate(85.5, 400, 400)"></path><path d="M301 409.90169887542726C307.4166666666667 402.68294887542726 310.1666666666667 384.34961554209394 323 385.15169887542726C335.83333333333337 385.9537822087606 332.16666666666663 411.7694072087606 345 412.65169887542726C357.83333333333337 413.53399054209393 354.16666666666663 387.93607387542727 367 388.17669887542723C379.83333333333337 388.41732387542726 376.16666666666663 412.0329488754272 389 413.47669887542725C401.8333333333333 414.92044887542727 398.1666666666667 392.96628220876056 411 393.1266988754272C423.8333333333333 393.28711554209394 420.1666666666667 415.22982387542726 433 414.02669887542726C445.8333333333333 412.82357387542726 442.1666666666667 389.0016988754272 455 389.0016988754272C467.8333333333333 389.0016988754272 464.1666666666667 409.93607387542727 477 414.02669887542726C489.83333333333337 418.11732387542725 492.58333333333337 406.2350322087606 499 403.02669887542726 " transform="rotate(81, 400, 400)"></path><path d="M306.5 409.3516047583686C312.5601851851852 402.53389642503527 315.1574074074074 385.2190816102204 327.27777777777777 385.9766047583686C339.39814814814815 386.73412790651673 335.93518518518516 411.11555151762786 348.05555555555554 411.9488269805908C360.1759259259259 412.7821024435538 356.71296296296293 388.6062922583686 368.83333333333337 388.83354920281306C380.9537037037037 389.0608061472575 377.49074074074076 411.36445198059084 389.6111111111111 412.7279936472575C401.7314814814815 414.09153531392417 398.2685185185185 393.35704457318343 410.3888888888889 393.508549202813C422.50925925925924 393.66005383244266 419.0462962962963 414.3837228139242 431.1666666666667 413.24743809170195C443.287037037037 412.1111533694797 439.8240740740741 389.6127158694797 451.94444444444446 389.6127158694797C464.0648148148148 389.6127158694797 460.60185185185185 409.3840700361464 472.72222222222223 413.24743809170195C484.8425925925926 417.1108061472575 487.4398148148148 405.88864179540565 493.5 402.85854920281304 " transform="rotate(76.5, 400, 400)"></path><path d="M312 408.80151064130996C317.7037037037037 402.3848439746433 320.14814814814815 386.08854767834697 331.55555555555554 386.80151064130996C342.96296296296293 387.5144736042729 339.7037037037037 410.46169582649514 351.1111111111111 411.2459550857544C362.51851851851853 412.03021434501363 359.25925925925924 389.2765106413099 370.66666666666663 389.49039953019883C382.0740740740741 389.70428841908773 378.8148148148148 410.6959550857544 390.22222222222223 411.9792884190877C401.6296296296296 413.26262175242107 398.3703703703704 393.74780693760624 409.77777777777777 393.89039953019886C421.18518518518516 394.0329921227914 417.9259259259259 413.53762175242105 429.3333333333333 412.4681773079766C440.74074074074076 411.3987328635322 437.4814814814815 390.2237328635322 448.8888888888889 390.2237328635322C460.2962962962963 390.2237328635322 457.03703703703707 408.8320661968655 468.44444444444446 412.4681773079766C479.85185185185185 416.1042884190877 482.2962962962963 405.5422513820507 488 402.6903995301988 " transform="rotate(72, 400, 400)"></path><path d="M317.5 408.2514165242513C322.84722222222223 402.2357915242513 325.1388888888889 386.9580137464735 335.8333333333333 387.6264165242513C346.52777777777777 388.29481930202905 343.47222222222223 409.8078401353624 354.16666666666663 410.54308319091797C364.8611111111111 411.2783262464735 361.80555555555554 389.9467290242513 372.5 390.14724985758465C383.19444444444446 390.34777069091797 380.1388888888889 410.02745819091797 390.8333333333333 411.23058319091797C401.52777777777777 412.43370819091797 398.47222222222223 394.13856930202905 409.1666666666667 394.27224985758465C419.8611111111111 394.4059304131402 416.80555555555554 412.69152069091797 427.5 411.6889165242513C438.19444444444446 410.68631235758465 435.1388888888889 390.83474985758465 445.83333333333337 390.83474985758465C456.52777777777777 390.83474985758465 453.47222222222223 408.28006235758465 464.16666666666663 411.6889165242513C474.8611111111111 415.09777069091797 477.15277777777777 405.19586096869574 482.5 402.52224985758465 " transform="rotate(67.5, 400, 400)"></path><path d="M323 407.70132145351835C327.99074074074076 402.08673812018503 330.1296296296296 387.82747886092574 340.1111111111111 388.45132145351835C350.0925925925926 389.0751640461109 347.24074074074076 409.1539834905554 357.22222222222223 409.8402103424072C367.2037037037037 410.5264371942591 364.35185185185185 390.6169464535183 374.33333333333337 390.8040992312961C384.31481481481484 390.9912520090739 381.46296296296293 409.3589603424072 391.44444444444446 410.4818770090739C401.4259259259259 411.60479367574055 398.5740740740741 394.5293307127776 408.55555555555554 394.65409923129613C418.537037037037 394.77886774981465 415.6851851851852 411.8454186757406 425.6666666666667 410.90965478685166C435.64814814814815 409.9738908979628 432.7962962962963 391.44576589796276 442.77777777777777 391.44576589796276C452.75925925925924 391.44576589796276 449.9074074074074 407.72805756462947 459.8888888888889 410.90965478685166C469.8703703703703 414.0912520090739 472.00925925925924 404.8494696016665 477 402.3540992312961 " transform="rotate(63, 400, 400)"></path><path d="M328.5 407.15122733645967C333.13425925925924 401.93768566979304 335.1203703703704 388.6969449290523 344.3888888888889 389.27622733645967C353.6574074074074 389.8555097438671 351.00925925925924 408.50012779942267 360.27777777777777 409.1373384475708C369.5462962962963 409.77454909571895 366.89814814814815 391.2871648364597 376.16666666666663 391.46094955868193C385.4351851851852 391.6347342809041 382.78703703703707 408.6904634475708 392.05555555555554 409.7331717809041C401.3240740740741 410.77588011423745 398.6759259259259 394.9200930772004 407.94444444444446 395.0359495586819C417.21296296296293 395.15180604016336 414.56481481481484 410.9993176142375 423.8333333333333 410.13039400312636C433.10185185185185 409.2614703920152 430.4537037037037 392.05678289201524 439.72222222222223 392.05678289201524C448.99074074074076 392.05678289201524 446.3425925925926 407.1760537253486 455.6111111111111 410.13039400312636C464.8796296296296 413.0847342809041 466.86574074074076 404.5030791883115 471.5 402.1859495586819 " transform="rotate(58.5, 400, 400)"></path><path d="M334 406.60113321940105C338.27777777777777 401.78863321940105 340.1111111111111 389.5664109971788 348.6666666666667 390.10113321940105C357.22222222222223 390.6358554416233 354.77777777777777 407.8462721082899 363.3333333333333 408.43446655273436C371.8888888888889 409.02266099717883 369.44444444444446 391.95738321940104 378 392.1177998860677C386.55555555555554 392.27821655273436 384.1111111111111 408.0219665527344 392.66666666666663 408.9844665527344C401.22222222222223 409.94696655273435 398.77777777777777 395.3108554416233 407.3333333333333 395.4177998860677C415.8888888888889 395.52474433051214 413.44444444444446 410.15321655273436 422 409.35113321940105C430.55555555555554 408.5490498860677 428.1111111111111 392.6677998860677 436.6666666666667 392.6677998860677C445.22222222222223 392.6677998860677 442.77777777777777 406.6240498860677 451.3333333333333 409.35113321940105C459.8888888888889 412.0782165527344 461.72222222222223 404.1566887749566 466 402.0177998860677 " transform="rotate(54, 400, 400)"></path><path d="M339.5 406.0510391023424C343.4212962962963 401.63958076900906 345.10185185185185 390.43587706530536 352.94444444444446 390.9260391023424C360.78703703703707 391.41620113937944 358.5462962962963 407.19241641715723 366.3888888888889 407.731594657898C374.23148148148147 408.2707728986387 371.99074074074076 392.6276016023424 379.83333333333337 392.7746502134535C387.6759259259259 392.9216988245646 385.43518518518516 407.35346965789796 393.27777777777777 408.23576132456463C401.1203703703704 409.11805299123125 398.8796296296296 395.7016178060461 406.72222222222223 395.7996502134535C414.5648148148148 395.8976826208609 412.3240740740741 409.3071154912313 420.1666666666667 408.57187243567574C428.00925925925924 407.83662938012014 425.76851851851853 393.2788168801202 433.6111111111111 393.2788168801202C441.4537037037037 393.2788168801202 439.212962962963 406.07204604678685 447.05555555555554 408.57187243567574C454.89814814814815 411.07169882456463 456.5787037037037 403.81029836160167 460.5 401.8496502134535 " transform="rotate(49.5, 400, 400)"></path><path d="M345 405.50094498528375C348.5648148148148 401.49052831861707 350.0925925925926 391.3053431334319 357.22222222222223 391.75094498528375C364.35185185185185 392.1965468371356 362.3148148148148 406.53856072602446 369.44444444444446 407.0287227630615C376.5740740740741 407.5188848000986 374.53703703703707 393.29781998528375 381.66666666666663 393.4315005408393C388.7962962962963 393.56518109639484 386.75925925925924 406.6849727630615 393.8888888888889 407.48705609639484C401.01851851851853 408.2891394297282 398.98148148148147 396.0923801704689 406.1111111111111 396.1815005408393C413.24074074074076 396.2706209112097 411.2037037037037 408.4610144297282 418.3333333333333 407.79261165195044C425.46296296296293 407.1242088741726 423.4259259259259 393.8898338741726 430.55555555555554 393.8898338741726C437.68518518518516 393.8898338741726 435.64814814814815 405.520042207506 442.77777777777777 407.79261165195044C449.9074074074074 410.06518109639484 451.43518518518516 403.46390794824674 455 401.6815005408393 " transform="rotate(45, 400, 400)"></path><path d="M350.5 404.95084896087644C353.7083333333333 401.34147396087644 355.0833333333333 392.1748072942098 361.5 392.57584896087644C367.9166666666667 392.9768906275431 366.0833333333333 405.88470312754316 372.5 406.32584896087644C378.9166666666667 406.7669947942098 377.0833333333333 393.9680364608765 383.5 394.0883489608765C389.9166666666667 394.20866146087644 388.0833333333333 406.01647396087645 394.5 406.73834896087646C400.91666666666663 407.4602239608765 399.08333333333337 396.48314062754315 405.5 396.56334896087645C411.91666666666663 396.6435572942098 410.08333333333337 407.61491146087644 416.5 407.01334896087644C422.91666666666663 406.41178646087644 421.08333333333337 394.50084896087645 427.5 394.50084896087645C433.91666666666663 394.50084896087645 432.08333333333337 404.9680364608765 438.5 407.01334896087644C444.9166666666667 409.05866146087646 446.2916666666667 403.1175156275431 449.5 401.51334896087644 " transform="rotate(40.5, 400, 400)"></path><path d="M356 404.4007548438178C358.85185185185185 401.1924215104845 360.0740740740741 393.04427336233636 365.77777777777777 393.4007548438178C371.48148148148147 393.7572363252993 369.85185185185185 405.2308474364104 375.55555555555554 405.62297706604005C381.25925925925924 406.01510669566966 379.6296296296296 394.63825484381783 385.3333333333333 394.74519928826226C391.03703703703707 394.85214373270674 389.4074074074074 405.34797706604 395.1111111111111 405.9896437327067C400.8148148148148 406.6313103993734 399.1851851851852 396.87390299196596 404.8888888888889 396.94519928826224C410.5925925925926 397.0164955845586 408.96296296296293 406.76881039937336 414.66666666666663 406.23408817715114C420.3703703703704 405.6993659549289 418.74074074074076 395.11186595492893 424.44444444444446 395.11186595492893C430.14814814814815 395.11186595492893 428.51851851851853 404.4160326215956 434.22222222222223 406.23408817715114C439.9259259259259 408.0521437327067 441.14814814814815 402.7711252141882 444 401.3451992882623 " transform="rotate(36, 400, 400)"></path><path d="M361.5 403.8506607267592C363.9953703703704 401.0433690600925 365.0648148148148 393.9137394304629 370.05555555555554 394.22566072675914C375.0462962962963 394.53758202305545 373.6203703703704 404.57699174527767 378.6111111111111 404.9201051712036C383.60185185185185 405.26321859712954 382.1759259259259 395.3084732267592 387.1666666666667 395.4020496156481C392.1574074074074 395.4956260045369 390.73148148148147 404.67948017120364 395.72222222222223 405.2409385045369C400.71296296296293 405.8023968378703 399.28703703703707 397.2646653563888 404.27777777777777 397.32704961564804C409.2685185185185 397.3894338749073 407.8425925925926 405.9227093378703 412.83333333333337 405.45482739342583C417.8240740740741 404.9869454489814 416.39814814814815 395.7228829489814 421.3888888888889 395.7228829489814C426.3796296296296 395.7228829489814 424.9537037037037 403.86402878231473 429.94444444444446 405.45482739342583C434.93518518518516 407.0456260045369 436.0046296296296 402.4247348008332 438.5 401.17704961564806 " transform="rotate(31.5, 400, 400)"></path><path d="M367 403.3005666097005C369.1388888888889 400.8943166097005 370.05555555555554 394.7832054985894 374.3333333333333 395.0505666097005C378.6111111111111 395.3179277208116 377.3888888888889 403.92313605414495 381.6666666666667 404.2172332763672C385.94444444444446 404.5113304985894 384.72222222222223 395.9786916097005 389 396.05889994303385C393.27777777777777 396.1391082763672 392.05555555555554 404.0109832763672 396.3333333333333 404.4922332763672C400.6111111111111 404.9734832763672 399.3888888888889 397.65542772081164 403.66666666666663 397.7088999430339C407.94444444444446 397.76237216525607 406.72222222222223 405.0766082763672 411 404.6755666097005C415.27777777777777 404.27452494303384 414.05555555555554 396.3338999430339 418.33333333333337 396.3338999430339C422.6111111111111 396.3338999430339 421.3888888888889 403.31202494303386 425.66666666666663 404.6755666097005C429.94444444444446 406.0391082763672 430.8611111111111 402.0783443874783 433 401.00889994303384 " transform="rotate(27, 400, 400)"></path><path d="M372.5 402.75047249264185C374.2824074074074 400.74526415930853 375.0462962962963 395.6526715667159 378.6111111111111 395.87547249264185C382.1759259259259 396.0982734185678 381.1574074074074 403.26928036301223 384.72222222222223 403.51436138153076C388.28703703703707 403.7594424000493 387.26851851851853 396.64890999264185 390.8333333333333 396.7157502704197C394.39814814814815 396.78259054819745 393.3796296296296 403.34248638153076 396.94444444444446 403.74352804819745C400.50925925925924 404.1445697148641 399.49074074074076 398.04619008523446 403.05555555555554 398.0907502704197C406.6203703703704 398.13531045560484 405.60185185185185 404.2305072148641 409.16666666666663 403.8963058259752C412.73148148148147 403.5621044370863 411.71296296296293 396.9449169370863 415.27777777777777 396.9449169370863C418.8425925925926 396.9449169370863 417.8240740740741 402.760021103753 421.3888888888889 403.8963058259752C424.9537037037037 405.03259054819745 425.7175925925926 401.73195397412337 427.5 400.8407502704197 " transform="rotate(22.5, 400, 400)"></path><path d="M378 402.2003783755832C379.4259259259259 400.59621170891654 380.03703703703707 396.52213763484247 382.8888888888889 396.7003783755832C385.74074074074076 396.878619116324 384.9259259259259 402.6154246718795 387.77777777777777 402.8114894866943C390.6296296296296 403.0075543015092 389.8148148148148 397.3191283755832 392.6666666666667 397.37260059780544C395.51851851851853 397.4260728200277 394.7037037037037 402.6739894866943 397.55555555555554 402.99482282002765C400.4074074074074 403.31565615336103 399.5925925925926 398.43695244965727 402.44444444444446 398.47260059780547C405.2962962962963 398.5082487459536 404.48148148148147 403.384406153361 407.3333333333333 403.1170450422499C410.1851851851852 402.84968393113877 409.3703703703704 397.5559339311388 412.22222222222223 397.5559339311388C415.0740740740741 397.5559339311388 414.25925925925924 402.2080172644721 417.1111111111111 403.1170450422499C419.96296296296293 404.02607282002765 420.5740740740741 401.3855635607684 422 400.67260059780546 " transform="rotate(18, 400, 400)"></path><path d="M383.5 401.6502842585246C384.56944444444446 400.4471592585246 385.02777777777777 397.391603702969 387.1666666666667 397.5252842585246C389.30555555555554 397.65896481408015 388.69444444444446 401.9615689807468 390.8333333333333 402.1086175918579C392.97222222222223 402.255666202969 392.3611111111111 397.98934675852456 394.5 398.0294509251912C396.6388888888889 398.0695550918579 396.02777777777777 402.0054925918579 398.1666666666667 402.2461175918579C400.30555555555554 402.48674259185793 399.69444444444446 398.82771481408014 401.8333333333333 398.85445092519126C403.97222222222223 398.8811870363024 403.3611111111111 402.5383050918579 405.5 402.3377842585246C407.6388888888889 402.13726342519124 407.02777777777777 398.16695092519126 409.1666666666667 398.16695092519126C411.30555555555554 398.16695092519126 410.69444444444446 401.65601342519125 412.8333333333333 402.3377842585246C414.97222222222223 403.0195550918579 415.43055555555554 401.03917314741346 416.5 400.50445092519124 " transform="rotate(13.5, 400, 400)"></path><path d="M389 401.1001882341173C389.71296296296293 400.298104900784 390.01851851851853 398.2610678637469 391.44444444444446 398.3501882341173C392.8703703703704 398.4393086044877 392.46296296296293 401.30771138226544 393.8888888888889 401.40574378967284C395.3148148148148 401.50377619708024 394.9074074074074 398.6595632341173 396.3333333333333 398.6862993452284C397.75925925925924 398.7130354563395 397.35185185185185 401.3369937896729 398.77777777777777 401.49741045633954C400.2037037037037 401.6578271230062 399.7962962962963 399.2184752711543 401.22222222222223 399.2362993452284C402.64814814814815 399.25412341930246 402.24074074074076 401.69220212300615 403.6666666666667 401.5585215674506C405.0925925925926 401.42484101189507 404.6851851851852 398.77796601189505 406.1111111111111 398.77796601189505C407.53703703703707 398.77796601189505 407.1296296296296 401.10400767856174 408.55555555555554 401.5585215674506C409.98148148148147 402.01303545633954 410.28703703703707 400.6927808267099 411 400.3362993452284 " transform="rotate(9, 400, 400)"></path><path d="M394.5 400.5500941170586C394.85648148148147 400.149052450392 395.00925925925924 399.13053393187346 395.72222222222223 399.1750941170586C396.4351851851852 399.21965430224384 396.23148148148147 400.6538556911327 396.94444444444446 400.70287189483645C397.6574074074074 400.7518880985401 397.4537037037037 399.32978161705864 398.1666666666667 399.34314967261423C398.8796296296296 399.35651772816976 398.6759259259259 400.66849689483644 399.3888888888889 400.74870522816974C400.10185185185185 400.8289135615031 399.89814814814815 399.6092376355772 400.6111111111111 399.6181496726142C401.3240740740741 399.62706170965123 401.1203703703704 400.8461010615031 401.8333333333333 400.7792607837253C402.5462962962963 400.71242050594753 402.3425925925926 399.3889830059475 403.05555555555554 399.3889830059475C403.76851851851853 399.3889830059475 403.5648148148148 400.55200383928087 404.27777777777777 400.7792607837253C404.99074074074076 401.00651772816974 405.14351851851853 400.3463904133549 405.5 400.1681496726142 " transform="rotate(4.5, 400, 400)"></path></g></svg>