<svg xmlns="http://www.w3.org/2000/svg" version="1.1" xmlns:xlink="http://www.w3.org/1999/xlink" xmlns:svgjs="http://svgjs.dev/svgjs" viewBox="0 0 800 800" opacity="0.55"><defs><linearGradient x1="50%" y1="0%" x2="50%" y2="100%" id="wwwhirl-grad"><stop stop-color="#001510ff" stop-opacity="1" offset="45%"></stop><stop stop-color="#00bf8fff" stop-opacity="1" offset="100%"></stop></linearGradient></defs><g stroke-width="7" stroke="url(#wwwhirl-grad)" fill="none" stroke-linecap="round"><path d="M-1166.25000265042 826.6257648621167C-1013.9756990311323 598.7853380717577 -948.7152831942947 120.07299606862205 -644.1666759557193 45.45858729517107C-339.61806871714384 -29.155821478279933 -426.63195649959414 626.7657413618017 -122.08334926101861 570.8049347817135C182.46525797755658 514.8441282016253 95.45137019510639 -252.99904779863277 399.9999774336816 -146.40703526513136C704.5485846722572 -39.815022731629966 617.534696889807 789.6992462344396 922.0833041283822 936.2632634680037C1226.6319113669574 1082.827280701568 1139.6180235845077 388.07577043856827 1444.1666308230829 356.09816667851794C1748.7152380616585 324.12056291846744 1813.9756538984957 689.3885487252337 1966.2499575177835 826.6257648621167 " transform="rotate(122.5, 400, 400)"></path><path d="M-1121.5000027926762 814.4362999111177C-973.5763935625112 593.105599600483 -910.1805610352976 128.07075308315132 -614.3333425749672 55.58818456037042C-318.4861241146366 -16.894383962410544 -403.01390081758836 620.2865627965258 -107.1666823572582 565.9246364044401C188.68053610307243 511.5627100123544 104.15275940012066 -234.3420895307533 399.99997786045105 -130.79556306963767C695.8471963207814 -27.24903660852202 611.3194196178297 778.5648246728027 907.1666380781598 920.9412985568365C1203.0138565384905 1063.3177724408704 1118.4860798355394 388.41630532824195 1414.3332982958696 357.35234738990727C1710.1805167561993 326.28838945157264 1773.5763492834135 681.1201470924312 1921.4999585135783 814.4362999111177 " transform="rotate(119, 400, 400)"></path><path d="M-1076.7500029349328 802.246957030431C-933.1770880938901 587.4259831995209 -871.6458388763004 136.0686321679932 -584.5000091942151 65.71790389588227C-297.3541795121296 -4.632824376228669 -379.3958451355827 613.8075063015625 -92.25001545349733 561.0444600974794C194.89581422858805 508.2814138933961 112.85414860513492 -215.68500919256132 399.9999782872203 -115.18396880383146C687.1458079693057 -14.682928415101571 605.1041423458526 767.4305251814782 892.2499720279375 905.6194557159818C1179.395801710023 1043.808386250485 1097.3541360865706 388.75696228822824 1384.4999657686558 358.6066501716092C1671.645795450741 328.4563380549903 1733.1770446683308 672.8518675299413 1876.7499595093732 802.246957030431 " transform="rotate(115.5, 400, 400)"></path><path d="M-1032.0000030771891 790.0576446673226C-892.7777826252691 581.7463973161371 -833.1111167173033 144.06654177041315 -554.6666758134629 75.84765374897225C-276.22223490962244 7.628765727531359 -355.77778945357704 607.3284803241775 -77.33334854973646 556.1643143080968C201.11109235410368 505.0001482920161 121.55553781014919 -197.02789833679128 399.99997871398955 -99.57234402044712C678.4444196178297 -2.1167897041029846 598.8888650738752 756.296256207732 877.3333059777158 890.2976433927051C1155.7777468815557 1024.2990305776782 1076.2221923376019 389.0976497657926 1354.666633241442 359.8609834708893C1633.1110741452826 330.6243171759861 1692.7777400532482 664.5836184850294 1831.999960505168 790.0576446673226 " transform="rotate(112, 400, 400)"></path><path d="M-987.2500032194456 777.8684543745267C-852.3784771566479 576.0669335030657 -794.5763945583061 152.06457344314558 -524.8333424327109 85.97752567237472C-255.0902903071153 19.890477901603845 -332.15973377157127 600.8495764171047 -62.41668164597604 551.2842905890267C207.32637047961953 501.71900476094845 130.25692701516346 -178.37066541070868 399.9999791407588 -83.96059716675029C669.7430312663544 10.449471077208088 592.6735878018983 745.1621093042983 862.4166399274934 874.9759531397409C1132.1596920530887 1004.7897969751834 1055.0902485886336 389.43845931366945 1324.8333007142287 361.1154388404819C1594.5763528398234 332.79241836729443 1652.378435438166 656.3154915104301 1787.2499615009629 777.8684543745267 " transform="rotate(108.5, 400, 400)"></path><path d="M-942.500003361702 765.6791725289962C-811.9791716880269 570.3873781372599 -756.0416723993089 160.06251356314365 -495.0000090519586 96.10730604304283C-233.95834570460818 32.152098522941984 -308.5416780895656 594.3705809572976 -47.500014742215285 546.404175317222C213.54164860513515 498.43776967714643 138.95831622017772 -159.71352403736046 399.99997956752804 -68.34894186578784C661.0416429148784 23.0156403057848 586.4583105299209 734.0278708481301 847.4999738772713 859.6541713340423C1108.5416372246214 985.2804718199545 1033.9583048396648 389.7791773088118 1294.999968187015 362.3698026573401C1556.041631534365 334.9604280058683 1611.9791308230829 648.0472729830964 1742.4999624967577 765.6791725289962 " transform="rotate(105, 400, 400)"></path><path d="M-897.7500035039584 753.4897991307316C-771.5798662194059 564.7077312187197 -717.5069502403119 168.06036213040738 -465.1666756712066 106.23699486097655C-212.82640110210104 44.41362759154575 -284.92362240755983 587.8914939447562 -32.58334783845464 541.5239684926831C219.75692673065078 495.15644304061004 147.659705425192 -141.0564742167466 399.9999799942973 -52.73737811755974C652.3402545634026 35.581717981627136 580.2430332579438 722.8935408392277 832.5833078270493 844.3322979756095C1084.9235823961544 965.7710551119912 1012.8263610906963 390.11980375122005 1265.1666356598012 363.62407492146394C1517.5069102289062 337.1283460917079 1571.5798262080002 639.7789629030284 1697.749963492553 753.4897991307316 " transform="rotate(101.5, 400, 400)"></path><path d="M-853.0000036462149 741.300456250045C-731.1805607507847 559.0281148177577 -678.9722280813147 176.05824121524918 -435.3333422904543 116.36671419648843C-191.69445649959403 56.67518717772762 -261.3055667255542 581.4124374497928 -17.666680934693773 536.6437921857224C225.9722048561664 491.8751469216518 156.36109463020625 -122.39939387855463 399.99998042106654 -37.12578385175354C643.6388662119268 48.147826175047584 574.0277559859667 711.7592413479032 817.666641776827 829.0104551347547C1061.3055275676868 946.2616689216061 991.6944173417273 390.46046071120617 1235.3333031325878 364.8783777031659C1478.9721889234474 339.2962946951256 1531.1805215929176 631.5106833405385 1652.9999644883478 741.300456250045 " transform="rotate(98, 400, 400)"></path><path d="M-808.2500037884713 729.1111438869365C-690.7812552821637 553.3485289343737 -640.4375059223175 184.05615081766913 -405.5000089097023 126.4964640495784C-170.5625118970869 68.93677728148762 -237.6875110435485 574.9334114724077 -2.75001403093313 531.7636463963396C232.18748298168202 488.59388132027163 165.06248383522052 -103.74228302278459 399.9999808478358 -21.51415906836921C634.937477860451 60.713964886046156 567.8124787139893 700.6249723741569 802.7499757266048 813.6886428114778C1037.6874727392196 926.7523132487989 970.5624735927586 390.8011481887705 1205.499970605374 366.13271100244594C1440.4374676179891 341.4642738161213 1490.7812169778354 623.2424342956267 1608.2499654841426 729.1111438869365 " transform="rotate(94.5, 400, 400)"></path><path d="M-763.4999963013331 716.9218620414061C-650.3819421841481 547.6689735685679 -601.9027761339258 192.0540909376672 -375.6666678995556 136.6262444202465C-149.43055966518523 81.19839790282576 -214.06944773214832 568.4544160126007 12.166660502222044 526.8835311245352C238.4027687365924 485.3126462364697 173.76388066962932 -85.08514164943637 399.99998890399957 -5.902503767406742C626.2360971383698 73.28013411462287 561.597209071407 689.4907339179889 787.833317305777 798.3668610057795C1014.069425540147 907.2429880935701 949.4305374731846 391.141866183913 1175.6666457075544 367.3870748193042C1401.9027539419249 343.63228345469525 1450.3819199921472 614.974215768293 1563.499974109332 716.9218620414061 " transform="rotate(91, 400, 400)"></path><path d="M-718.7499964435896 704.7325496782977C-609.982636715527 541.9893876851839 -563.3680539749287 200.05200054008716 -345.83333451880344 146.75599427333648C-128.2986150626781 93.45998800658577 -190.45139205014254 561.9753900352156 27.083327405982686 522.0033853351525C244.61804686210803 482.0313806350895 182.46526987464358 -66.42803079366627 399.9999893307688 9.709121015977587C617.534708786894 85.84627282562144 555.3819317994296 678.3564649442426 772.9166512555548 783.0450486825027C990.4513707116798 887.7336324207629 928.2985937242161 391.4825536614773 1145.833313180341 368.64140811858425C1363.3680326364665 345.8002625756911 1409.9826153770646 606.7059667233812 1518.7499751051269 704.7325496782977 " transform="rotate(87.5, 400, 400)"></path><path d="M-673.999996585846 692.5432678327672C-569.5833312469058 536.3098323193782 -524.8333318159316 208.04994066008524 -316.0000011380513 156.88577464400456C-107.16667046017096 105.7216086279239 -166.83333636813677 555.4963945754084 41.99999430974333 517.123270063348C250.83332498762366 478.7501455512874 191.16665907965773 -47.77088942031804 399.99998975753806 25.320776316940055C608.8333204354183 98.41244205419815 549.1666545274525 667.2222264880744 757.9999852053327 767.7232668768041C966.8333158832127 868.224307265534 907.1666499752473 391.8232716566198 1115.9999806531275 369.8957719354424C1324.8333113310073 347.96827221426497 1369.583310761982 598.4377481960474 1473.9999761009221 692.5432678327672 " transform="rotate(84, 400, 400)"></path><path d="M-629.2499967281024 680.354016504815C-529.1840257782849 530.6303074711504 -486.29860965693445 216.04791129766144 -286.16666775729914 167.0155855322508C-86.03472585766383 117.98325976684016 -143.2152806861311 549.0174296331795 56.916661213504085 512.2431853091215C257.0486031131394 475.46894098506357 199.868048284672 -29.11371752939172 399.9999901843073 40.932462135480634C600.1319320839425 110.97864180035297 542.9513772554751 656.0880185494843 743.0833191551105 752.4015155886838C943.2152610547455 848.7150126278831 886.0347062262788 392.16402016934035 1086.1666481259138 371.1501662698787C1286.298590025549 350.136312370417 1329.1840061468993 590.169560186292 1429.249977096717 680.354016504815 " transform="rotate(80.5, 400, 400)"></path><path d="M-584.4999358352026 668.1647651768629C-488.7846592745075 524.9507826229228 -447.763826462781 224.04588193523767 -256.3332733413908 177.14539642049704C-64.90272022000045 130.2449109057564 -119.5971639689692 542.5384646909506 71.83338915242109 507.36310055489514C263.26394227381127 472.1877364188397 208.56949852484252 -10.4565456384654 400.0000516462328 56.54414795402121C591.430604767623 123.54484154650781 536.7361610186542 644.9538106108944 728.1667141400444 737.0797643005634C919.5972672614346 829.2057179902324 864.9028235124663 392.504768682061 1056.3333766338565 372.40456060431507C1247.7639297552466 352.3043525265691 1288.784762566973 581.9013721765364 1384.500039127668 668.1647651768629 " transform="rotate(77, 400, 400)"></path><path d="M-539.749935977459 655.9753917785981C-448.3853538058864 519.2711357043827 -409.22910430378386 232.04373050250135 -226.49993996063864 187.27508523843076C-43.770775617493314 142.50643997436018 -95.97910828696354 536.0593776784092 86.75005605618173 502.48289373035624C269.479220399327 468.9064097823033 217.27088772985678 8.20050418214845 400.0000520730018 72.1557117022493C582.7292164161474 136.11091922235013 530.5208837466771 633.8194806019919 713.2500480898223 721.7578909421304C895.9792124329674 809.696301282269 843.7708797634978 392.84539512446906 1026.500044106643 373.6588328684389C1209.2292084497878 354.47227061240864 1248.3854579518907 573.6330620964684 1339.750040123463 655.9753917785981 " transform="rotate(73.5, 400, 400)"></path><path d="M-494.99993611971536 643.7861099330678C-407.9860483372653 513.5915803385769 -370.6943821447867 240.04167062249942 -196.6666065798865 197.40486560909886C-22.63883101498618 154.7680605956983 -72.36105260495776 529.5803822186022 101.66672295994249 497.60277845855165C275.69449852484274 465.62517469850127 225.97227693487105 26.857645555496674 400.0000524997713 87.76736700321176C574.0278280646714 148.67708845092685 524.3056064746997 622.6852421458236 698.3333820396001 706.4361091364319C872.3611576045002 790.18697612704 822.638936014529 393.18611311961155 996.6667115794291 374.913196685297C1170.6944871443293 356.6402802509825 1207.986153336808 565.3648435691346 1295.000041119258 643.7861099330678 " transform="rotate(70, 400, 400)"></path><path d="M-450.2499362619718 631.5967060172251C-367.58674286864425 507.9119029024586 -332.1596599857896 248.039488672185 -166.83327319913434 207.5345239094545C-1.506886412479048 167.02955914672393 -48.7429969229521 523.1012646884826 116.58338986370313 492.7225411164347C281.90977665035837 462.3438175443868 234.6736661398853 45.51466485853237 400.00005292654055 103.37890023386171C565.3264397131957 161.24313560919106 518.0903292027228 611.5508816193432 683.416715989378 691.1142052604209C848.7431027760331 770.6775289014987 801.5069922655605 393.52670904444153 966.8333790522156 376.16743843184275C1132.1597658388705 358.808167819244 1167.5868487217253 557.0965029714885 1250.2500421150528 631.5967060172251 " transform="rotate(66.5, 400, 400)"></path><path d="M-405.4999364042282 619.4074546892728C-327.18743740002316 502.23237805423094 -293.6249378267924 256.0374593097612 -136.99993981838224 217.6643347977007C19.625058190028085 179.2912102856402 -25.124941240946384 516.6222997462537 131.5000567674639 487.8424563622082C288.125054775874 459.06261297816286 243.37505534489958 64.17183674945872 400.0000533533097 118.9905860524023C556.6250513617201 173.80933535534587 511.8750519307455 600.4166736807531 668.5000499391558 675.7924539723005C825.1250479475659 751.1682342638477 780.3750485165917 393.86745755716214 937.0000465250018 377.42183276627907C1093.625044533412 360.97620797539605 1127.187544106643 548.8283149617329 1205.5000431108476 619.4074546892728 " transform="rotate(63, 400, 400)"></path><path d="M-360.74993654648466 607.2181728437424C-286.78813193140206 496.55282268842507 -255.0902156677953 264.03539942975925 -107.1666064376301 227.79411516836882C40.75700279253522 191.55283090697833 -1.5068855589406667 510.1433042864465 146.41672367122442 482.96234109040364C294.34033290138973 455.7813778943608 252.07644454991384 82.82897812280694 400.00005378007904 134.60224135336478C547.9236630102442 186.37550458392258 505.65977465876836 589.282435224585 653.5833838889334 660.4706721666018C801.5069931190988 731.6589091086188 759.2431047676232 394.20817555230457 907.1667139977883 378.6761965831372C1055.0903232279531 363.1442176139699 1086.7882394915603 540.5600964343992 1160.7500441066427 607.2181728437424 " transform="rotate(59.5, 400, 400)"></path><path d="M-315.99993668874106 595.0287841866887C-246.38882646278103 490.8731605110959 -216.55549350879812 272.0332327382339 -77.33327305687794 237.92378872751345C61.888947395042294 203.81434471679302 22.111170123064994 503.6642020151161 161.3333905749853 478.08211900707573C300.55561102690535 452.5000359990354 260.7778337549281 101.4860126846317 400.0000542068483 150.21378984280378C539.2222746587684 198.94156700097585 499.4444973867911 578.1480899568933 638.6667178387115 645.1487835493799C777.8889382906314 712.1494771418664 738.1111610186545 394.5487867359236 877.3333814705745 379.930453588472C1016.5556019224948 365.3121204410204 1046.3889348764776 532.2917710955421 1116.0000451024375 595.0287841866887 " transform="rotate(56, 400, 400)"></path><path d="M-271.2499368309975 582.8395633763146C-205.98952099415993 485.19366618044637 -178.02077134980098 280.0312338933882 -47.49993967612579 248.05363013333783C83.02089199754943 216.0760263732874 45.72922580507071 497.18526759046523 176.25005747874593 473.2020647704274C306.7708891524211 449.2188619503896 269.4792229599424 120.14321509313618 400.00005463361754 165.8255061789225C530.5208863072927 211.5077972647088 493.229220114814 567.0139125358814 623.7500517884891 629.8270627788376C754.2708834621642 692.6402130217937 716.9792172696859 394.8895657662223 847.500048943361 381.18487844048644C978.020880617036 367.4801911147506 1005.989630261395 524.0236136033645 1071.2500460982324 582.8395633763146 " transform="rotate(52.5, 400, 400)"></path><path d="M-226.4999369732539 570.650220495628C-165.59021552553884 479.5140497794843 -139.48604919080384 288.02911297823005 -17.66660629537364 258.18334946884966C104.1528366000565 228.33758595946927 69.34728148707643 490.7062110955019 191.16672438250657 468.3218884634667C312.9861672779367 445.93756583143136 278.18061216495664 138.80029543132815 400.0000550603868 181.43710044472869C521.8194979558169 224.07390545812927 487.01394284283685 555.8796130445571 608.833385738267 614.5052199379828C730.652828633697 673.1308268314085 695.8472735207172 395.2302227262086 817.6667164161474 382.4391812221884C939.4861593115772 369.6481397181683 965.5903256463123 515.7553340408747 1026.5000470940274 570.650220495628 " transform="rotate(49, 400, 400)"></path><path d="M-181.7499371155103 558.4609691676758C-125.19091005691777 473.8345249312566 -100.95132703180667 296.02708361580625 12.166727085378454 268.3131603570959C125.28478120256364 240.59923709838554 92.96533716908209 484.22724615327303 206.08339128626727 463.4418037092403C319.20144540345245 442.65636126520747 286.8820013699709 157.45746732225447 400.00005548715603 197.04878626326928C513.1181096043412 236.64010520428408 480.7986655708597 544.7454051059672 593.9167196880447 599.1834686498623C707.0347738052297 653.6215321937577 674.7153297717485 395.57097123892913 787.8333838889334 383.69357555662475C900.9514380061187 371.81617987432026 925.1910210312299 507.48714603111915 981.7500480898223 558.4609691676758 " transform="rotate(45.5, 400, 400)"></path><path d="M-136.99993725776673 546.271595769411C-84.79160458829668 468.15487801271644 -62.41660487280956 304.02493218306995 42.000060466130606 278.4428491750296C146.41672580507077 252.8607661669893 116.58339285108786 477.74815914073156 221.00005819002791 458.5615968847013C325.4167235289681 439.3750346286711 295.58339057498506 176.11451714286832 400.0000559139253 212.66035001149737C504.4167212528654 249.20618288012642 474.5833882988825 533.6110750970645 579.0000536378226 583.8615952914295C683.4167189767626 634.1121154857943 653.5833860227799 395.91159768133724 758.00005136172 384.9478478207485C862.4167167006599 373.98409796015983 884.7917164161472 499.21883595105106 937.0000490856173 546.271595769411 " transform="rotate(42, 400, 400)"></path><path d="M-92.24996791760128 534.0823215532753C-44.39232963725374 462.47533027630516 -23.881913231390513 312.0228799324626 71.83336332930458 288.57263717509227C167.54863988999978 265.1223944177219 140.2014180155154 471.26917131031905 235.91669457621055 453.6814892422913C331.6319711369056 436.0938071742636 304.28474926242126 194.77166614561105 400.0000258231164 228.27201294185437C495.7153023838115 261.77235973809763 468.3680805093271 522.4768442702909 564.0833570700222 568.5398211151255C659.7986336307173 614.60279795996 632.4514117562331 396.25232330587426 728.1666883169282 386.2022192670013C823.8819648776234 376.1521152281283 844.3923812834864 490.95062505311193 892.250019563834 534.0823215532753 " transform="rotate(38.5, 400, 400)"></path><path d="M-47.49999857743582 521.893070225323C-3.993054686210769 456.79580542807753 14.652778410028532 320.02085057003876 101.6666661924786 298.70244806333847C188.68055397492878 277.3840455566382 163.819443179943 464.79020636809014 250.83333096239312 448.8014044880649C337.84721874484325 432.8126026080397 312.9861079498574 213.4288380365374 399.9999957323075 243.88369876039494C487.0138835147576 274.33855948425247 462.15277271977175 511.3426363317009 549.1666605022219 553.218069827005C636.180548284672 595.0935033223091 611.3194374896864 396.5930718185948 698.3333252721364 387.45661360143754C785.3472130545865 378.3201553842803 803.9930461508259 482.68243704335634 847.4999900420509 521.893070225323 " transform="rotate(35, 400, 400)"></path><path d="M-2.7499987196922433 509.70371971524185C36.4062507824103 451.11618139772094 53.18750056902567 328.01872202548606 131.49999957323075 308.8321597694558C209.81249857743592 289.64559751342557 187.4374988619487 458.3111422437323 265.7499978661538 443.92122055170955C344.06249687035887 429.5312988596869 321.68749715487166 232.08591074533484 399.9999961590768 259.4952853968066C478.31249516328194 286.9046600482784 455.9374954477946 500.208329210982 534.2499944519998 537.8962193567556C612.5624934562048 575.5841095025294 590.1874937407177 396.93372114918657 668.4999927449228 388.710908753745C746.8124917491278 380.4880963583035 763.5937415357433 474.4141498514719 802.7499910378457 509.70371971524185 " transform="rotate(31.5, 400, 400)"></path><path d="M42.000001138051346 497.514430240317C76.80555625103136 445.4366184025206 91.72222272802281 336.0166545160896 161.3333329539829 318.9619325107294C230.94444317994305 301.90721050536916 211.05555454395437 451.8321391545307 280.6666647699145 439.04109765051055C350.27777499587455 426.25005614649035 330.38888635988593 250.7430444892885 399.999996585846 275.10693306837453C469.61110681180605 299.4708216474606 449.7222181758175 489.0740831254193 519.3333284017776 522.5744299216626C588.9444386277376 556.0747767179059 569.0555499917491 397.27443151493446 638.6666602177091 389.96526494120866C708.2777704436693 382.65609836748285 723.1944369206607 466.1459236947437 757.9999920336406 497.514430240317 " transform="rotate(28, 400, 400)"></path><path d="M86.75000099579492 485.32510261841946C117.20486171965246 439.75701726034765 130.25694488701996 344.0145488597205 191.16666633473505 329.0916671050303C252.07638778245013 314.1687853503401 234.6736102259601 445.3530979183564 295.58333167367516 434.1609366023388C356.49305312139023 422.96877528632115 339.0902755649002 269.4001400862695 399.99999701261527 290.7185425929698C460.90971846033034 312.0369450996701 443.5069409038403 477.939798892884 504.4166623515554 507.2526023395969C565.3263837992704 536.5654057863097 547.9236062427805 397.61510373370976 608.8333276904956 391.21958298169966C669.7430491382105 384.8240622296896 682.795132305578 457.8776593910428 713.2499930294356 485.32510261841946 " transform="rotate(24.5, 400, 400)"></path><path d="M131.5000008535385 473.1358055141C157.60416718827352 434.0774466357527 168.7916670460171 352.0124737209295 220.99999971548718 339.2214322169093C273.20833238495726 326.43039071288916 258.2916659079658 438.8740871997603 310.4999985774358 429.2808060717452C362.7083312469059 419.68752494373007 347.7916647699144 288.0572662008287 399.9999974393845 306.3301826351432C452.20833010885457 324.60309906945776 437.2916636318631 466.8055451779268 489.49999630133317 491.93080527510926C541.7083289708032 517.0560653722916 526.7916624938118 397.9558064700632 578.9999951632819 392.4739315397688C631.2083278327518 386.99205660947445 642.3958276904955 449.60942560492003 668.4999940252305 473.1358055141 " transform="rotate(21, 400, 400)"></path><path d="M176.2500007112821 460.94651603917515C198.00347265689462 428.39788364055244 207.32638920501427 360.01040621153305 250.8333330962393 349.3512049581829C294.3402769874644 338.6920037048328 281.90972158997147 432.39508411055874 325.41666548119656 424.40068317054613C368.92360937242165 416.4062822305335 356.49305397492867 306.7143999447824 399.99999786615376 321.94183030671115C443.5069417573788 337.16926066863994 431.0763863598859 455.6712990923641 474.58333025111097 476.6090158400162C518.090274142336 497.5467325876682 505.6597187448432 398.2965168358111 549.1666626360682 393.72828772723244C592.6736065272933 389.1600586186538 601.9965230754129 441.34119944819184 623.7499950210254 460.94651603917515 " transform="rotate(17.5, 400, 400)"></path><path d="M221.00000056902567 448.7572151201585C238.40277812551568 422.7183092012603 245.8611113640114 368.0083272580448 280.66666647699145 359.4809662553647C315.4722215899715 350.9536052526846 305.5277772719772 425.9160695772654 340.33333238495726 419.5205488252553C375.1388874979373 413.1250280732452 365.19444317994294 325.37152224464427 399.999998292923 337.5534665341873C434.805553405903 349.73541082373026 424.86110908790874 444.53704156270965 459.6666642008888 461.2872149608313C494.4722193138688 478.03738835895297 484.52777499587455 398.63721575746723 519.3333301088546 394.98263247060436C554.1388852218347 391.3280491837414 561.5972184603304 433.07296184737186 578.9999960168203 448.7572151201585 " transform="rotate(14, 400, 400)"></path><path d="M265.75000042676925 436.56790275705C278.8020835941368 417.03872331787636 284.39583352300855 376.00623686046475 310.4999998577436 369.61071610845465C336.6041661924786 363.2151953564446 329.1458329539829 419.43704359988016 355.2499992887179 414.6404030358726C381.35416562345296 409.84376247186503 373.8958323849572 344.02863310041437 399.99999871969226 353.16509131757164C426.1041650544273 362.3015495347289 418.64583181593156 433.4027725889634 444.74999815066656 445.96540263755463C470.8541644854016 458.5280326861458 463.3958312469059 398.9779032350316 489.49999758164097 396.23696576988436C515.6041639163759 393.49602830473725 521.1979138452477 424.80471280246 534.2499970126153 436.56790275705 " transform="rotate(10.5, 400, 400)"></path><path d="M310.50000028451285 424.37860946742785C319.2013890627578 411.3591565079788 322.9305556820057 384.00416553637103 340.3333332384957 379.740485035031C357.73611079498573 375.47680453369094 352.76388863598856 412.9580366959813 370.1666661924786 409.76027631997624C387.56944374896864 406.5625159439712 382.59722158997147 362.68576302967074 399.9999991464615 368.77673517444225C417.40277670295154 374.86770731921376 412.4305545439544 422.26852268870346 429.8333321004444 430.6436093877643C447.2361096569344 439.0186960868251 442.2638874979373 399.3186097860822 459.6666650544273 397.4913181426508C477.06944261091735 395.66402649921935 480.7986092301652 416.53648283103456 489.49999800841016 424.37860946742785 " transform="rotate(7, 400, 400)"></path><path d="M355.25000395695366 412.1893047337139C359.6006983460762 405.6795782539894 361.4652816557001 392.0020827681855 370.1666704339451 389.8702425175155C378.86805921219013 387.73840226684547 376.38194813269155 406.47901834799063 385.08333691093657 404.8801381599881C393.7847256891816 403.2812579719856 391.298614609683 381.34288151483537 400.000003387928 384.3883675872211C408.70139216617304 387.4338536596069 406.21528108667445 411.1342613443517 414.91666986491947 415.32180469388214C423.61805864316443 419.50934804341256 421.1319475636659 399.6593048930411 429.8333363419109 398.7456590713254C438.53472512015594 397.83201324960964 440.39930842977986 408.2682414155173 444.7500028189023 412.1893047337139 " transform="rotate(3.5, 400, 400)"></path></g></svg>