<svg xmlns="http://www.w3.org/2000/svg" version="1.1" xmlns:xlink="http://www.w3.org/1999/xlink" xmlns:svgjs="http://svgjs.dev/svgjs" viewBox="0 0 800 800"><defs><linearGradient x1="50%" y1="0%" x2="50%" y2="100%" id="wwwhirl-grad"><stop stop-color="#00bf8fff" stop-opacity="1" offset="45%"></stop><stop stop-color="#001510ff" stop-opacity="1" offset="100%"></stop></linearGradient></defs><g stroke-width="3" stroke="url(#wwwhirl-grad)" fill="none" stroke-linecap="round"><path d="M-341.74993660688403 462.8151756429181C-310.84368699987726 445.5076758629944 -156.31243896484375 328.95248203257034 -94.49993975083032 324.3551774035281C-32.68744053681684 319.75787277448586 90.93755789121008 420.0872855612314 152.7500571052235 426.0367386105802C214.56255631923682 431.986191659929 338.1875547472637 365.73091906490833 400.0000539612771 371.9508017983184C461.81255317529053 378.1706845317285 585.4375516033174 476.3366598459836 647.2500508173307 475.795800477861C709.0625500313442 475.25494110973835 832.6875484593711 370.0577940098893 894.5000476733846 367.6239268533375C956.312546887398 365.19005969678574 1110.8437949224317 445.2372461789331 1141.7500445294381 456.32486322544673 " transform="rotate(204.25, 400, 400)"></path><path d="M-324.4999366617203 461.3543607984108C-294.3124370455742 444.449361013369 -143.37493896484375 330.604753085978 -82.99993973255152 326.1143625180763C-22.624940500259356 321.62397195017456 98.12505796432515 419.62014257908885 158.50005719661726 425.43123625519695C218.87505642890937 431.2423299313051 339.6250548934938 366.5278776291919 400.00005412578605 372.6031119269413C460.37505335807805 378.6783462246907 581.1250518226625 474.56139188047473 641.5000510549546 474.0331106371922C701.875050287247 473.50482939390963 822.6250487518314 370.75412757545234 883.0000479841235 368.3768619806808C943.3750472164159 365.99959638590934 1094.3125452971462 444.18522039172774 1124.5000449132922 455.0149858790202 " transform="rotate(199.5, 400, 400)"></path><path d="M-307.2499367165566 459.8935612126925C-277.7811870912711 443.39106142253263 -130.43743896484375 332.2570393981748 -71.49993971427278 327.8735628914136C-12.562440463701819 323.4900863846524 105.31255803744011 419.1530148557353 164.25005728801102 424.8257491586028C223.18755653858193 430.49848346147024 341.06255503972386 367.3248514522645 400.00005429029477 373.25543731435323C458.9375535408657 379.1860231764419 576.8125520420076 472.7861391737549 635.7500512925785 472.2704360553124C694.6875505431494 471.7547329368699 812.5625490442915 371.4504763998045 871.5000482948624 369.12981236681327C930.4375475454333 366.809148333822 1077.7812956718608 443.1332098633114 1107.250045297146 453.70512379138256 " transform="rotate(194.75, 400, 400)"></path><path d="M-289.99993677139287 458.4327234800015C-261.249937136968 442.33272368472365 -117.49993896484375 333.9092875633989 -59.999939695994044 329.6327251177782C-2.4999404271442813 325.3561626721575 112.50005811055519 418.68584898540917 170.00005737940478 424.22022391503594C227.50005664825449 429.7545988446627 342.5000551859539 368.1217871283645 400.0000544548036 373.9077245547925C457.5000537236533 379.6936619812205 572.5000522613527 471.01084832006245 630.0000515302024 470.50772332646C687.5000507990521 470.00459833285754 802.5000493367515 372.14678707718394 860.0000486056013 369.882724605973C917.500047874451 367.6186621347621 1061.250046046575 442.0811611879224 1090.0000456809998 452.3952235567723 " transform="rotate(190, 400, 400)"></path><path d="M-272.74993682622915 456.97192389428324C-244.71868718266487 441.27442409388726 -104.56243896484375 335.5615738755957 -48.49993967771525 331.3919254911155C7.562559609413199 327.2222771066353 119.6875581836702 418.21872126205574 175.75005747079854 423.6147368184418C231.81255675792704 429.0107523748279 343.93755533218405 368.9187609514371 400.00005461931244 374.5600499422044C456.0625539064408 380.2013389329717 568.1875524806978 469.2355956133426 624.2500517678262 468.74504874458023C680.3125510549546 468.2545018758178 792.4375496292118 372.84313590153613 848.5000489163401 370.6356749921054C904.5625482034686 368.42821408267474 1044.7187964212897 441.02915065950606 1072.750046064854 451.08536146913474 " transform="rotate(185.25, 400, 400)"></path><path d="M-255.49993688106537 455.5110937909868C-228.18743722836177 440.2160939854728 -91.62493896484375 337.2138296702143 -36.99993965943651 333.1510953468747C17.625059645970737 329.088361023535 126.87505825678517 417.75156302112407 181.5000575621923 423.0092192042695C236.1250568675996 428.266875387415 345.3750554784141 369.7157042569316 400.00005478382127 375.2123448120382C454.62505408922846 380.7089853671448 563.8750527000428 467.46031238904465 618.50005200545 466.98234364512234C673.1250513108573 466.5043749012 782.3750499216719 373.53945420831013 837.000049227079 371.38859486065974C891.6250485324863 369.2377355130093 1028.1875467960042 439.97710961351163 1055.5000464487077 449.77546886391906 " transform="rotate(180.5, 400, 400)"></path><path d="M-238.24993693590164 454.05027894647947C-211.65618727405865 439.15777913584736 -78.68743896484375 338.866100723622 -25.499939641157766 334.9102804614229C27.687559682528217 330.9544601992237 134.06255832990024 417.2844200389815 187.25005765358617 422.4037168488863C240.43755697727215 427.52301365879106 346.8125556246441 370.5126628212152 400.00005494833 375.86465494066107C453.187554272016 381.216647060107 559.5625529193879 465.68504442353577 612.7500522430739 465.2196538044535C665.9375515667599 464.7542631853713 772.312550214132 374.2357877738732 825.5000495378179 372.1415299880031C878.6875488615037 370.04727220213294 1011.6562971707187 438.92508382630626 1038.2500468325616 448.46559151749244 " transform="rotate(175.75, 400, 400)"></path><path d="M-220.99993699073792 452.5894641019721C-195.12493731975556 438.099464286222 -65.74993896484375 340.5183717770297 -13.999939622879026 336.6694655759711C37.750059719085755 332.8205593749125 141.25005840301526 416.817277056839 193.00005774498004 421.79821449350305C244.7500570869447 426.7791519301672 348.25005577087416 371.30962138549876 400.0000551128388 376.51696506928397C451.7500544548035 381.7243087530691 555.250053138733 463.90977645802684 607.0000524806977 463.4569639637847C658.7500518226625 463.0041514695425 762.2500505065921 374.93212133943626 814.0000498485567 372.8944651153464C865.7500491905214 370.85680889125655 995.1250475454333 437.8730580391009 1021.0000472164156 447.1557141710658 " transform="rotate(171, 400, 400)"></path><path d="M-203.7499370455742 451.12864925746476C-178.59368736545244 437.0411494365966 -52.81243896484375 342.17064283043743 -2.499939604600229 338.4286506905193C47.81255975564329 334.68665855060124 148.43755847613028 416.3501340746964 198.7500578363738 421.1927121381199C249.06255719661715 426.03529020154326 349.6875559171042 372.1065799497823 400.00005527734777 377.1692751979068C450.3125546375911 382.2319704460313 550.9375533580782 462.13450849251797 601.2500527183216 461.69427412311586C651.5625520785651 461.25403975371376 752.1875507990521 375.62845490499933 802.5000501592958 373.64740024268974C852.8125495195393 371.66634558038015 978.5937979201478 436.8210322518955 1003.7500476002695 445.84583682463915 " transform="rotate(166.25, 400, 400)"></path><path d="M-186.49993710041048 449.66782296886555C-162.06243741114935 435.98282314287934 -39.87493896484375 343.8229024397533 9.000060413678511 340.18782436097575C57.87505979220077 336.55274628219814 155.62505854924535 415.8829796484621 204.50005792776756 420.58719833864484C253.37505730628982 425.2914170288276 351.1250560633342 372.9035270699741 400.0000554418565 377.82157388243786C448.87505482037875 382.73962069490165 546.6250535774233 460.3592290829173 595.5000529559455 459.93157283835524C644.3750523344677 459.5039165937932 742.1250510915122 376.32477702647066 791.0000504700347 374.40032392594134C839.8750498485567 372.475870825412 962.0625482948624 435.7689950205983 986.5000479841233 444.53594803412074 " transform="rotate(161.5, 400, 400)"></path><path d="M-169.24993715524676 448.20700430966093C-145.53118745684623 434.9245044785566 -26.93743896484375 345.47516967846377 20.50006043195731 341.9470056608267C67.93755982875831 338.41884164318964 162.8125586223603 415.4158328516222 210.25005801916132 419.98169216856434C257.68755741596226 424.54755148550646 352.5625562095644 373.70048181956037 400.0000556063653 378.4738801963635C447.4375550031664 383.24727857316657 542.3125537967683 458.58395730271116 589.7500531935693 458.16887918298914C637.1875525903703 457.75380106326713 732.0625513839724 377.02110677733646 779.5000507807733 375.1532552385874C826.9375501775744 373.28540369983835 945.5312986695769 434.7169654186956 969.2500483679773 443.22606687299685 " transform="rotate(156.75, 400, 400)"></path><path d="M-151.99993721008303 446.74619327985084C-128.99993750254313 433.8661934436285 -13.99993896484375 347.12744454656877 32.00006045023599 343.7061945900722C78.00005986531585 340.2849446335756 170.0000586954754 414.948693684177 216.00005811055507 419.37619362787837C262.00005752563493 423.8036935715798 354.0000563557944 374.4974441985412 400.00005577087416 379.1261941396836C446.0000551859538 383.754944080826 538.0000540161134 456.80869315189955 584.0000534311932 456.4061931570176C630.0000528462729 456.0036931621357 722.0000516764325 377.7174441575968 768.0000510915122 375.906194180628C814.0000505065921 374.0949442036592 929.0000490442915 433.6649434461875 952.0000487518312 441.91619334126744 " transform="rotate(152, 400, 400)"></path><path d="M-134.7499372649193 445.2853631765544C-112.46868754824004 432.80786333521405 -1.06243896484375 348.7797003411874 43.50006046851479 345.46536444583137C88.06255990187333 342.1510285504753 177.1875587685904 414.4815354432453 221.7500582019489 418.7706760137061C266.31255763530737 423.05981658416687 355.43755650202445 375.2943875040357 400.000055935383 379.7784890095174C444.5625553687414 384.2625905149991 533.6875542354585 455.0334099276016 578.250053668817 454.6434880575597C622.8125531021755 454.25356618751783 711.9375519688926 378.4137624643708 756.5000514022512 376.6591140491823C801.0625508356097 374.9044656339938 912.468799419006 432.6129024001931 934.7500491356852 440.60630073605176 " transform="rotate(147.25, 400, 400)"></path><path d="M-117.49993731975556 443.82455977613887C-95.93743759393692 431.7495599296804 11.87506103515625 350.4319828386869 55.00006048679353 347.22456100447135C98.12505993843081 344.01713917025586 184.37505884170542 414.0144039051946 227.5000582933427 418.1651851024147C270.62505774497987 422.31596629963474 356.8750566482545 376.09135751241104 400.0000560998917 380.4308105822321C443.12505555152904 384.7702636520531 529.3750544548036 453.25815340618453 572.5000539064408 452.88080966098266C615.625053358078 452.50346591578085 701.8750522613528 379.11010747402565 745.0000517129901 377.41206062061747C788.1250511646273 375.7140137672092 895.9375497937206 431.5608880570795 917.5000495195391 439.29643483371694 " transform="rotate(142.5, 400, 400)"></path><path d="M-100.24996789216996 442.3637334875397C-79.40621815721192 430.6912336359632 24.812530517578125 352.0842424480028 66.50002998749414 348.9837346749278C108.18752945741028 345.88322690185277 191.56252839724232 413.5472494789602 233.25002786715834 417.55967130293965C274.93752733707436 421.57209312691907 358.3125262769065 376.88830463260285 400.0000257468224 381.08310926676313C441.68752521673844 385.2779139009234 525.0625241565706 451.48287399658386 566.7500236264866 451.11810837622204C608.4375230964026 450.75334275586033 691.8125220362348 379.806429595497 733.5000215061508 378.164984303869C775.1875209760667 376.5235390122411 879.406269650857 430.50885082578236 900.2500193858148 437.98654604319853 " transform="rotate(137.75, 400, 400)"></path><path d="M-82.99996794700624 440.90291482833504C-62.87496820290883 429.6329149716405 37.750030517578125 353.73650968671325 78.00003000577294 350.7429159747787C118.25002949396776 347.74932226284426 198.7500284703574 413.0801026821204 239.0000279585521 416.95416513285915C279.2500274467469 420.82822758359794 359.75002642313655 377.68525938218914 400.00002591133125 381.7354155806887C440.25002539952607 385.78557177918833 520.7500243759157 449.70760221637767 561.0000238641104 449.35541472085595C601.2500233523052 449.0032272253343 681.750022328695 380.5027593463628 722.0000218168897 378.9179156165151C762.2500213050844 377.3330718866674 862.8750200255715 429.4568212238797 883.0000197696686 436.6766648820746 " transform="rotate(133, 400, 400)"></path><path d="M-65.7499680018425 439.4420961691304C-46.34371824860574 428.57459630731785 50.687530517578125 355.38877692542366 89.50003002405168 352.5020972746297C128.31252953052524 349.6154176238357 205.93752854347235 412.6129558852806 244.7500280499459 416.3486589627787C283.5625275564194 420.08436204027674 361.1875265693666 378.48221413177544 400.0000260758402 382.38772189461434C438.8125255823136 386.29322965745325 516.4375245952607 447.9323304361715 555.2500241017343 447.59272106548985C594.0625236082078 447.25311169480824 671.6875226211549 381.1990890972286 710.5000221276284 379.6708469291612C749.3125216341022 378.14260476109376 846.3437704002858 428.40479162197704 865.7500201535227 435.3667837209507 " transform="rotate(128.25, 400, 400)"></path><path d="M-48.49999857425691 437.98127369522854C-29.812498811880744 427.5162738282979 63.625 357.04104034943686 100.9999995247523 354.26127475978336C138.37499904950465 351.4815091701299 213.1249980990093 412.1458052737435 250.49999762376154 415.74314897800093C287.87499714851384 419.34049268225834 362.6249961980185 379.27916506666446 399.9999957227708 383.04002439384266C437.3749952475231 386.80088372102085 512.1249942970277 446.1570548412681 549.49999382178 445.8300235954265C586.8749933465323 445.50299234958493 661.624992396037 381.8954150333971 698.9999919207893 380.42377442711C736.3749914455416 378.9521338208229 829.8124902574223 427.3527582053771 848.4999900197984 434.05689874512956 " transform="rotate(123.5, 400, 400)"></path><path d="M-31.249998629093184 436.5204550360239C-13.281248857577651 426.4579551639752 76.5625 358.69330758814726 112.4999995430311 356.02045605963434C148.4374990860622 353.3476045311214 220.31249817212426 411.6786584769037 256.24999771515536 415.13764280792043C292.1874972581864 418.59662713893715 364.06249634424853 380.07611981625075 399.9999958872796 383.69233070776824C435.9374954303106 387.3085415992858 507.8124945163728 444.381783061062 543.7499940594039 444.06732994006046C579.6874936024349 443.7528768190589 651.5624926884972 382.5917447842629 687.4999922315282 381.1767057397561C723.4374917745592 379.76166669524923 813.2812406321368 426.30072860347445 831.2499904036523 432.7470175840057 " transform="rotate(118.75, 400, 400)"></path><path d="M-13.999998683929448 435.05964400621383C3.2500010967254696 425.39964412904703 89.5 360.34558245625226 123.99999956130983 357.7796449888798C158.49999912261967 355.2137075215074 227.49999824523934 411.2115193094584 261.9999978065492 414.53214426723446C296.49999736785895 417.85276922501055 365.4999964904786 380.8730821952316 399.99999605178846 384.3446446510884C434.49999561309824 387.81620710694517 503.4999947357179 442.6065189102503 537.9999942970277 442.3046439140889C572.4999938583375 442.0027689179274 641.4999929809572 383.28808216452325 675.999992542267 381.9296446817967C710.4999921035768 380.5712071990701 796.7499910068514 425.24870663096635 813.9999907875062 431.43714405227627 " transform="rotate(114, 400, 400)"></path><path d="M3.2500012612342744 433.5988139029174C19.781251051028562 424.3413140206326 102.4375 361.99783825087087 135.4999995795886 359.538814844639C168.56249915917715 357.0797914384071 234.68749831835436 410.7443610685268 267.74999789794293 413.92662665306216C300.8124974775315 417.1088922375976 366.93749663670866 381.67002550072607 399.99999621629723 384.9969395209222C433.06249579588575 388.3238535411183 499.187494955063 440.8312356859524 532.2499945346515 440.541938814631C565.31249411424 440.2526419433096 631.4374932734173 383.9844004712973 664.4999928530059 382.682564550351C697.5624924325945 381.3807286294047 780.2187413815659 424.19666558497187 796.7499911713601 430.1272514470606 " transform="rotate(109.25, 400, 400)"></path><path d="M20.500001206397997 432.1380066878046C36.31250100533168 423.2830068004017 115.375 363.65011693367313 146.99999959786734 361.29800758858175C178.62499919573474 358.9458982434903 241.87499839146938 410.27722571577874 273.4999979893367 413.3211319270735C305.12499758720406 416.3650381383682 368.37499678293875 382.46699169440416 399.999996380806 385.64925727893956C431.62499597867327 388.83152286347496 494.874995174408 439.05597534983804 526.4999947722754 438.7792566033567C558.1249943701426 438.5025378568754 621.3749935658775 384.6807416662549 652.9999931637448 383.43550730708887C684.624992761612 382.19027294792284 763.6874917562805 423.14464742716103 779.499991555214 428.8173817300285 " transform="rotate(104.5, 400, 400)"></path><path d="M37.75000115156173 430.6771727698109C52.843750959634775 422.22467287729 128.3125 365.3023689135945 158.4999996161461 363.0571736296436C188.68749923229223 360.81197834569275 249.06249846458445 409.81006366014986 279.2499980807305 412.71561049820394C309.43749769687656 415.621157336258 369.8124969291688 383.2639311852014 399.9999965453149 386.30154833407613C430.1874961614609 389.3391654829508 490.5624953937531 437.28068831084283 520.7499950098992 437.01654768920156C550.9374946260453 436.7524070675603 611.3124938583376 385.37705615833164 641.4999934744836 384.1884233609459C671.6874930906298 382.9997905635601 747.156242130995 422.09260256646934 762.249991939068 427.50748531011556 " transform="rotate(99.75, 400, 400)"></path><path d="M55.000001096725455 429.2163579253035C69.3750009139379 421.16635802766456 141.25 366.9546399670022 169.99999963442485 364.81635874419186C198.7499992688497 362.6780775213815 256.24999853769947 409.3429206780073 284.99999817212426 412.1101081428207C313.7499978065491 414.8772956076341 371.2499970753988 384.060889749485 399.9999967098237 386.953858462699C428.74999634424853 389.84682717591295 486.24999561309824 435.50542034533396 514.9999952475231 435.25385784853273C543.7499948819479 435.0022953517315 601.2499941507976 386.0733897238947 629.9999937852225 384.9413584882892C658.7499934196474 383.8093272526838 730.6249925057094 421.0405767792639 744.9999923229218 426.1976079636889 " transform="rotate(95, 400, 400)"></path><path d="M72.25000104188918 427.7555392660989C85.90625086824099 420.10803936334185 154.1875 368.6069072057126 181.49999965270362 366.5755400440428C208.81249930540724 364.54417288237295 263.4374986108145 408.8757738811675 290.749998263518 411.50460197274026C318.0624979162217 414.13343006431296 372.6874972216289 384.8578444990713 399.9999968743325 387.60616477662455C427.3124965270361 390.35448505417787 481.93749583244335 433.7301485651278 509.2499954851469 433.49116419316664C536.5624951378505 433.25217982120546 591.1874944432578 386.7697194747605 618.4999940959614 385.69428980093534C645.812493748665 384.6188601271101 714.093742880424 419.9885471773613 727.7499927067757 424.887726802565 " transform="rotate(90.25, 400, 400)"></path><path d="M89.50000098705291 426.2947301436374C102.4375008225441 419.04973023576235 167.125 370.25918398116625 192.99999967098236 368.3347308806369C218.87499934196475 366.4102777801076 270.6249986839295 408.40863662107085 296.4999983549119 410.8991053394029C322.37499802589423 413.389574057735 374.12499736785895 385.65480878540075 399.9999970388413 388.25848062729335C425.8749967098236 390.86215246918596 477.6249960517884 431.9548863216648 503.4999957227708 431.7284800745437C529.3749953937531 431.5020738274226 581.1249947357179 387.4660587623695 606.9999944067002 386.44723065032457C632.8749940776826 385.42840253827967 697.5624932551385 418.9365271122018 710.4999930906297 423.5778551781843 " transform="rotate(85.5, 400, 400)"></path><path d="M106.75000093221664 424.83391911382733C118.9687507768472 417.99141920083423 180.0625 371.9114588492712 204.49999968926113 370.0939198098824C228.93749937852226 368.27638077049363 277.8124987570445 407.9414974536256 302.24999844630565 410.29360679871695C326.6874981355668 412.64571614380833 375.562497514089 386.45177116438157 399.9999972033501 388.91079457061346C424.43749689261125 391.36981797684535 473.3124962711335 430.1796221708532 497.74999596039464 429.96579404857215C522.1874956496557 429.7519659262911 571.062495028178 388.16239614262986 595.4999947174392 387.20016959236517C619.9374944067002 386.23794304210054 681.0312436298531 417.8845051396937 693.2499934744835 422.2679816464549 " transform="rotate(80.75, 400, 400)"></path><path d="M124.00000087738036 423.3730928252282C135.5000007311503 416.933092907117 193 373.5637184585871 215.99999970753987 371.8530934803388C238.9999994150798 370.14246850209054 284.9999988301596 407.4743430273912 307.9999985376994 409.6880929992419C330.99999824523934 411.90184297109266 376.9999976603191 387.24871828457333 399.99999736785895 389.5630932551445C422.99999707539877 391.87746822571575 468.99999649047857 428.4043427612525 491.9999961980185 428.2030927638115C514.9999959055583 428.00184276637054 560.9999953206382 388.8587182641011 583.999995028178 387.95309327561677C606.9999947357179 387.04746828713235 664.4999940045676 416.8324679083965 675.9999938583375 420.95809285593646 " transform="rotate(76, 400, 400)"></path><path d="M141.2500008225441 421.91227035132624C152.03125068545341 415.87477042809707 205.9375 375.21598188260026 227.49999972581864 373.6122709654925C249.06249945163728 372.00856004838477 292.18749890327456 407.00719241585415 313.7499986290932 409.08258301446415C335.3124983549118 411.1579736130742 378.4374978065491 388.04566921946235 399.99999753236773 390.2153957543729C421.5624972581864 392.38512228928334 464.6874967098237 426.6290671663491 486.2499964356423 426.44039529374817C507.8124961614609 426.2517234211473 550.9374956130982 389.55504420026966 572.499995338917 388.70602077356557C594.0624950647355 387.8569973468615 647.9687443792822 415.7804344917966 658.7499942421914 419.6482078801153 " transform="rotate(71.25, 400, 400)"></path><path d="M158.50000076770783 420.4514631362134C168.56250063975654 414.81646320786615 218.875 376.8682605654025 238.9999997440974 375.37146370943526C259.1249994881948 373.874666853468 299.37499897638963 406.54005706310613 319.499998720487 408.4770882884755C339.6249984645844 410.41411951384487 379.8749979527792 388.84263541314044 399.99999769687656 390.86771351239025C420.12499744097397 392.89279161164006 460.3749969291688 424.85380683023476 480.49999667326614 424.6777130824739C500.62499641736355 424.50161933471304 540.8749959055584 390.25138539522726 560.9999956496558 389.45896353030344C581.1249953937531 388.6665416653796 631.4374947539967 414.7284163339857 641.4999946260452 418.3383381630832 " transform="rotate(66.5, 400, 400)"></path><path d="M175.75000071287155 418.990633032917C185.09375059405963 413.7581330994517 231.8125 378.52051636002113 250.49999976237615 377.13063356519444C269.1874995247523 375.7407507703677 306.56249904950465 406.07289882217447 325.2499988118808 407.8715706743032C343.9374985742569 409.6702425264319 381.31249809900925 389.63957871863494 399.9999978613854 391.52000838222403C418.68749762376154 393.4004380458132 456.06249714851384 423.07852360593677 474.74999691089 422.915007983016C493.43749667326614 422.7514923600952 530.8124961980185 390.94770370200126 549.4999959603947 390.2118833988577C568.1874957227708 389.47606309571415 614.9062451287111 413.6763752879913 624.2499950098992 417.0284455578675 " transform="rotate(61.75, 400, 400)"></path><path d="M193.00000065803528 417.5298220031069C201.62500054836272 412.6998220645235 244.75 380.17279122812613 261.9999997806549 378.8898224944399C279.24999956130983 377.6068537607537 313.74999912261967 405.6057596547292 330.99999890327456 407.26607213361723C348.24999868392945 408.9263846125053 382.74999824523934 390.4365410976158 399.99999802589423 392.1723223255442C417.2499978065491 393.9081035534726 451.74999736785895 421.30325945512516 468.99999714851384 421.1523219570444C486.24999692916873 421.0013844589637 520.7499964904787 391.64404108226165 537.9999962711336 390.96482234089837C555.2499960517885 390.2856035995351 598.3749955034257 412.6243533154832 606.9999953937531 415.71857202613813 " transform="rotate(57, 400, 400)"></path><path d="M210.250000603199 416.0690033439023C218.15625050266584 411.64150340020086 257.6875 381.82505846683654 273.4999997989337 380.6490037942909C289.3124995978674 379.47294912174516 320.9374991957347 405.13861285788937 336.7499989946683 406.6605659635367C352.562498793602 408.18251906918414 384.1874983914694 391.2334958472021 399.999998190403 392.8246286394698C415.81249798933663 394.4157614317375 447.437497587204 419.527987674919 463.2499973861377 419.3896283016784C479.0624971850713 419.2512689284377 510.68749678293875 392.34037083312745 526.4999965818724 391.71775365354443C542.312496380806 391.0951364739614 581.8437458781402 411.57232371358054 589.749995777607 414.40869086501425 " transform="rotate(52.25, 400, 400)"></path><path d="M227.50000054836272 414.60817705530314C234.68750045696896 410.5831771064836 270.625 383.47731807615247 284.9999998172124 382.40817746474727C299.37499963442485 381.3390368533421 328.1249992688497 404.671458431655 342.49999908606213 406.05505216406175C356.87499890327456 407.4386458964684 385.6249985376994 392.03044296739387 399.99999835491184 393.4769273240009C414.37499817212426 394.92341168060784 443.1249978065491 417.75270826531835 457.49999762376154 417.62692701691776C471.87499744097397 417.5011457685171 500.6249970753988 393.0366929545987 514.9999968926113 392.470677336796C529.3749967098237 391.9046617189932 565.3124962528548 410.5202864822833 572.4999961614609 413.09880207449584 " transform="rotate(47.5, 400, 400)"></path><path d="M244.75000049352644 413.14736411814437C251.21875041127205 409.52486416420686 283.5625 385.1295910369088 296.49999983549117 384.16736448664415C309.4374996709824 383.2051379363795 335.3124993419648 404.2043173568611 348.24999917745595 405.44955171602714C361.1874990129471 406.6947860751932 387.06249868392945 392.82740343902606 399.9999985194206 394.12923935997236C412.9374983549118 395.43107528091866 438.81249802589423 415.9774422071581 451.7499978613854 415.8642390835975C464.68749769687656 415.751035960037 490.56249736785895 393.7330284275104 503.4999972033501 393.223614371488C516.4374970388412 392.7142003154655 548.7812466275693 409.4682626024266 555.2499965453148 411.7889266354178 " transform="rotate(42.75, 400, 400)"></path><path d="M262.00000043869017 411.6865473662884C267.75000036557515 408.46654740723284 296.5 386.7818601829679 307.99999985376996 385.92654769384376C319.4999997075399 385.0712352047196 342.4999994150798 403.73717246736993 353.9999992688497 404.8440474532953C365.49999912261967 405.9509224392206 388.49999883015954 393.624360095961 399.99999868392945 394.78154758124657C411.4999985376994 395.93873506653216 434.4999982452393 414.2021723343006 445.99999809900925 414.1015473355801C457.49999795277915 414.0009223368596 480.4999976603191 394.42936008572485 491.999997514089 393.9765475914827C503.49999736785895 393.5237350972405 532.2499970022839 408.4162349078726 537.9999969291687 410.47904738164254 " transform="rotate(38, 400, 400)"></path><path d="M279.25000038385394 410.22573347545534C284.28125031987827 407.4082335112817 309.4375 388.43413219004987 319.4999998720487 387.68573376206626C329.5624997440974 386.93733533408266 349.6874994881948 403.2700304389017 359.74999936024346 404.23854605158635C369.8124992322922 405.20706166427107 389.93749897638963 394.42131961391885 399.9999988484383 395.4338586635438C410.062498720487 396.44639771316866 430.1874984645844 412.426905322466 440.2499983366331 412.3388584485856C450.31249820868175 412.25081157470515 470.4374979527792 395.1256946049623 480.4999978248279 394.72948367250035C490.56249769687656 394.3332727400384 515.7187473769984 407.3642100743415 520.7499973130226 409.16917098889024 " transform="rotate(33.25, 400, 400)"></path><path d="M296.50000032901767 408.76490527950756C300.8125002741814 406.3499053102159 322.375 390.08638989201717 330.99999989032744 389.4449055251741C339.6249997806549 388.80342115833093 356.87499956130983 402.8028741053187 365.4999994516373 403.63303034476274C374.1249993419647 404.4631865842067 391.37499912261967 395.218264826762 399.9999990129471 396.0861554407262C408.62499890327456 396.9540460546904 425.87499868392945 410.6516240055167 434.4999985742569 410.57615525647634C443.12499846458434 410.50068650743594 460.37499824523934 395.8220148190849 468.9999981355668 395.48240544840326C477.62499802589423 395.14279607772164 499.18749775171284 406.3121709356957 503.49999769687656 407.8592802910232 " transform="rotate(28.5, 400, 400)"></path><path d="M313.7500002741814 407.3040885276516C317.34375022848445 405.2915885532418 335.3125 391.7386590380762 342.49999990860624 391.20408873237363C349.6874998172124 390.66951842667106 364.06249963442485 402.33572921582754 371.2499995430311 403.0275260820309C378.4374994516373 403.7193229482342 392.8124992688497 396.0152214836969 399.99999917745595 396.7384636620004C407.18749908606213 397.4617058403039 421.56249890327456 408.8763541326592 428.7499988118808 408.8134635084589C435.937498720487 408.75057288425853 450.3124985376994 396.51834647729936 457.49999844630565 396.235338668398C464.68749835491184 395.9523308594966 482.6562481264274 405.2601432411417 486.24999808073045 406.5494010372479 " transform="rotate(23.75, 400, 400)"></path><path d="M331.0000002193451 405.84327225263274C333.8750001827876 404.23327227310494 348.25 393.39092866097246 353.999999926885 392.9632724164104C359.74999985376996 392.53561617184835 371.2499997075399 401.86858480317346 376.99999963442485 402.42202229613616C382.74999956130983 402.97545978909886 394.24999941507974 396.81217861746904 399.9999993419647 397.39077236011184C405.7499992688497 397.96936610275463 417.24999912261967 407.1010847366388 422.9999990495046 407.0507722372786C428.7499989763896 407.00045973791833 440.24999883015954 397.21467861235095 445.9999987570445 396.9882723652299C451.74999868392945 396.7618661181088 466.12499850114193 404.2081160234248 468.99999846458434 405.2395222603098 " transform="rotate(19, 400, 400)"></path><path d="M348.2500039792061 404.3824555007767C350.40625395178796 403.17495551613086 361.18750381469727 395.0431978070315 365.500003759861 394.72245562360996C369.8125037050247 394.4017134401884 378.43750359535215 401.4014399136823 382.7500035405159 401.8165180334043C387.0625034856796 402.2315961531263 395.6875033760071 397.60913527440397 400.0000033211708 398.04308058138605C404.31250326633455 398.47702588836813 412.937503156662 405.3258148637813 417.2500031018257 405.2880804892611C421.56250304698943 405.2503461147409 430.18750293731694 397.9110102705654 434.50000288248066 397.7412055852246C438.8125028276444 397.57140089988377 449.5937526905537 403.1560883288708 451.75000266313555 403.92964300653455 " transform="rotate(14.25, 400, 400)"></path><path d="M365.5000039243698 402.92163731840924C366.937503906091 402.11663732864537 374.12500381469727 396.6954655225791 377.0000037781398 396.4816374002981C379.87500374158225 396.26780927801707 385.62500366846723 400.9342935936796 388.5000036319097 401.211012340161C391.37500359535215 401.4877310866423 397.12500352223714 398.4060905008274 400.0000034856796 398.6953873721488C402.8750034491221 398.9846842434702 408.6250033760071 403.5505435604123 411.50000333944956 403.5253873107322C414.3750033028921 403.50023106105203 420.125003229777 398.6073404982684 423.0000031932195 398.4941373747078C425.875003156662 398.38093425114727 433.06250306526823 402.1040592038053 434.50000304698943 402.61976232224777 " transform="rotate(9.5, 400, 400)"></path><path d="M382.75000386953354 401.4608186592046C383.46875386039414 401.05831866432266 387.06250381469727 398.34773276128954 388.5000037964185 398.240818700149C389.9375037781398 398.1339046390085 392.81250374158225 400.4671467968398 394.2500037233035 400.6055061700805C395.6875037050247 400.74386554332114 398.56250366846723 399.2030452504137 400.00000365018843 399.3476936860744C401.4375036319097 399.4923421217351 404.31250359535215 401.77527178020614 405.7500035770734 401.7626936553661C407.1875035587947 401.75011553052605 410.06250352223714 399.3036702491342 411.5000035039584 399.24706868735393C412.9375034856796 399.19046712557366 416.5312534399827 401.05202960190263 417.2500034308433 401.3098811611239 " transform="rotate(4.75, 400, 400)"></path></g></svg>