<svg xmlns="http://www.w3.org/2000/svg" version="1.1" xmlns:xlink="http://www.w3.org/1999/xlink" xmlns:svgjs="http://svgjs.dev/svgjs" viewBox="0 0 800 800" opacity="0.37"><defs><linearGradient x1="50%" y1="0%" x2="50%" y2="100%" id="wwwhirl-grad"><stop stop-color="#001510ff" stop-opacity="1" offset="45%"></stop><stop stop-color="#00bf8fff" stop-opacity="1" offset="100%"></stop></linearGradient></defs><g stroke-width="4" stroke="url(#wwwhirl-grad)" fill="none" stroke-linecap="round"><path d="M-1166.25000265042 961.8832631426919C-1013.9756990311323 782.0092419924084 -948.7152831942947 478.41234915145355 -644.1666759557193 345.1723334845769C-339.61806871714384 211.93231781770015 -426.63195649959414 648.9595692050557 -122.08334926101861 505.0603522848289C182.46525797755658 361.16113536460205 95.45137019510639 -261.45042355876035 399.9999774336816 -148.19641024191515C704.5485846722572 -34.94239692507 617.534696889807 790.7650144505174 922.0833041283822 893.3598265140124C1226.6319113669574 995.9546385775077 1139.6180235845077 224.87563362533962 1444.1666308230829 203.55723111863932C1748.7152380616585 182.23882861193914 1813.9756538984957 640.3941396264709 1966.2499575177835 820.2681607767545 " transform="rotate(122.5, 400, 400)"></path><path d="M-1121.5000027926762 945.8294774225992C-973.5763935625112 771.0947140194667 -910.1805610352976 476.1720181168248 -614.3333425749672 346.7388600404304C-318.4861241146366 217.3057019640359 -403.01390081758836 641.8464604546098 -107.1666823572582 502.05864973210373C188.68053610307243 362.27083900959775 104.15275940012066 -242.55181823023992 399.99997786045105 -132.53363386530464C695.8471963207814 -22.51544950036937 611.3194196178297 779.6003215502011 907.1666380781598 879.2638532690248C1203.0138565384905 978.9273849878489 1118.4860798355394 229.87920874859992 1414.3332982958696 209.16990345637686C1710.1805167561993 188.46059816415374 1773.5763492834135 633.5257574354131 1921.4999585135783 808.2605208385456 " transform="rotate(119, 400, 400)"></path><path d="M-1076.7500029349328 929.7756917025067C-933.1770880938901 760.1801860465251 -871.6458388763004 473.9316870821963 -584.5000091942151 348.305386596284C-297.3541795121296 222.6790861103717 -379.3958451355827 634.7333517041642 -92.25001545349733 499.05694717937877C194.89581422858805 363.3805426545935 112.85414860513492 -223.65321290171954 399.9999782872203 -116.87085748869411C687.1458079693057 -10.088502075668686 605.1041423458526 768.435628649885 892.2499720279375 865.1678800240376C1179.395801710023 961.9001313981901 1097.3541360865706 234.88278387186028 1384.4999657686558 214.7825757941144C1671.645795450741 194.68236771636845 1733.1770446683308 626.6573752443554 1876.7499595093732 796.2528809003371 " transform="rotate(115.5, 400, 400)"></path><path d="M-1032.0000030771891 913.7216618417892C-892.7777826252691 749.2654139329585 -833.1111167173033 471.69111190694275 -554.6666758134629 349.87166901151267C-276.22223490962244 228.05222611608252 -355.77778945357704 627.6199988130934 -77.33334854973646 496.0550004860288C201.11109235410368 364.4900021589643 121.55553781014919 -204.75485171382417 399.99997871398955 -101.20832525270859C678.4444196178297 2.3382012084069714 598.8888650738752 757.2706916089439 877.3333059777158 851.0716626384251C1155.7777468815557 944.8726336679065 1076.2221923376019 239.8861148544957 1354.666633241442 220.39500399122693C1633.1110741452826 200.90389312795816 1692.7777400532482 619.7887489126729 1831.999960505168 784.2449968215035 " transform="rotate(112, 400, 400)"></path><path d="M-987.2500032194456 897.6681202623217C-852.3784771566479 738.3511301006421 -794.5763945583061 469.4510250129392 -524.8333424327109 351.4384397079913C-255.0902903071153 233.42585440304333 -332.15973377157127 620.5071342032726 -62.41668164597604 493.0535420739287C207.32637047961953 365.5999499445851 130.25692701516346 -185.8560022446788 399.9999791407588 -85.54530473547307C669.7430312663544 14.765392773732643 592.6735878018983 746.1062428492528 862.4166399274934 836.9759335340628C1132.1596920530887 927.8456242188727 1055.0902485886336 244.88993411838112 1324.8333007142287 226.00792046958946C1594.5763528398234 207.1259068207978 1652.378435438166 612.9206108622402 1787.2499615009629 772.2376010239199 " transform="rotate(108.5, 400, 400)"></path><path d="M-942.500003361702 881.6142429894948C-811.9791716880269 727.436510574966 -756.0416723993089 467.2106024255762 -495.0000090519586 353.0048747111105C-233.95834570460818 238.7991469966447 -308.5416780895656 613.3939339000924 -47.500014742215285 490.0517479684694C213.54164860513515 366.7095620368464 138.95831622017772 -166.95748846889276 399.99997956752804 -69.88261991159692C661.0416429148784 27.19224864569891 586.4583105299209 734.9414583962023 847.4999738772713 822.879868736341C1108.5416372246214 910.8182790764796 1033.9583048396648 249.8934176889071 1294.999968187015 231.62050125459263C1556.041631534365 213.34758482027814 1611.9791308230829 606.0521371184481 1742.4999624967577 760.2298695329769 " transform="rotate(105, 400, 400)"></path><path d="M-897.7500035039584 865.5604267518241C-771.5798662194059 716.5219520844464 -717.5069502403119 464.97024087336956 -465.1666756712066 354.571370749386C-212.82640110210104 244.17250062540245 -284.92362240755983 606.2807946320685 -32.58334783845464 487.0500148981663C219.75692673065078 367.81923516426406 147.659705425192 -148.05891365795048 399.9999799942973 -54.21987405256452C652.3402545634026 39.61916555282146 580.2430332579438 723.7767349783081 832.5833078270493 808.7838649737754C1084.9235823961544 893.7909949692428 1012.8263610906963 254.89696229458934 1265.1666356598012 237.23314307475204C1517.5069102289062 219.56932385491473 1571.5798262080002 599.1837244098125 1697.749963492553 748.2221990771901 " transform="rotate(101.5, 400, 400)"></path><path d="M-853.0000036462149 849.5065494789974C-731.1805607507847 705.6073325587704 -678.9722280813147 462.72981828600655 -435.3333422904543 356.13780575250524C-191.69445649959403 249.54579321900383 -261.3055667255542 599.1675943288883 -17.666680934693773 484.04822079270684C225.9722048561664 368.9288472565254 156.36109463020625 -129.16039988216448 399.99998042106654 -38.55718922868837C643.6388662119268 52.04602142478774 574.0277559859667 712.6119505252577 817.666641776827 794.6878001760538C1061.3055275676868 876.7636498268498 991.6944173417273 259.90044586511544 1235.3333031325878 242.84572385975525C1478.9721889234474 225.79100185439506 1531.1805215929176 592.3152506660205 1652.9999644883478 736.2144675862472 " transform="rotate(98, 400, 400)"></path><path d="M-808.2500037884713 833.4527942764828C-690.7812552821637 694.6928351034069 -640.4375059223175 460.4895177689561 -405.5000089097023 357.7043628259369C-170.5625118970869 254.91920788291776 -237.6875110435485 592.0545160960206 -2.75001403093313 481.0465487575599C232.18748298168202 370.0385814190992 165.06248383522052 -110.26176403606598 399.9999808478358 -22.894382334499724C634.937477860451 64.47299936706654 567.8124787139893 701.4472881425195 802.7499757266048 780.5918574486443C1037.6874727392196 859.7364267547691 970.5624735927586 264.9040515059539 1205.499970605374 248.4584267150709C1440.4374676179891 232.01280192418784 1490.7812169778354 585.4468989925408 1608.2499654841426 724.2068581656167 " transform="rotate(94.5, 400, 400)"></path><path d="M-763.4999963013331 817.3990085563903C-650.3819421841481 683.7783071304654 -601.9027761339258 458.24918673432757 -375.6666678995556 359.27088938179054C-149.43055966518523 260.29259202925357 -214.06944773214832 584.9414073455749 12.166660502222044 478.044846204835C238.4027687365924 371.148285064095 173.76388066962932 -91.36315870754561 399.99998890399957 -7.231605957889201C626.2360971383698 76.89994679176719 561.597209071407 690.2825952422035 787.833317305777 766.495884203657C1014.069425540147 842.7091731651105 949.4305374731846 269.9076266292143 1175.6666457075544 254.0710990528084C1401.9027539419249 238.23457147640252 1450.3819199921472 578.5785168014831 1563.499974109332 712.1992182274081 " transform="rotate(91, 400, 400)"></path><path d="M-718.7499964435896 801.3452533538758C-609.982636715527 672.8638096751018 -563.3680539749287 456.008886217277 -345.83333451880344 360.8374464552222C-128.2986150626781 265.6660066931675 -190.45139205014254 577.8283291127073 27.083327405982686 475.04317416968803C244.61804686210803 372.2580192266688 182.46526987464358 -72.46452286144708 399.9999893307688 8.431200936299447C617.534708786894 89.32692473404597 555.3819317994296 679.1179328594654 772.9166512555548 752.3999414762476C990.4513707116798 825.6819500930299 928.2985937242161 274.9112322700528 1145.833313180341 259.68380190812405C1363.3680326364665 244.45637154619533 1409.9826153770646 571.7101651280037 1518.7499751051269 700.1916088067776 " transform="rotate(87.5, 400, 400)"></path><path d="M-673.999996585846 785.2913150458927C-569.5833312469058 661.9491291142697 -524.8333318159316 453.76840259475784 -316.0000011380513 362.4038204231853C-107.16667046017096 271.0392382516127 -166.83333636813677 570.7150677743708 41.99999430974333 472.0413190290724C250.83332498762366 373.36757028377394 191.16665907965773 -53.56607012081736 399.99998975753806 24.093824725019346C608.8333204354183 101.753719570856 549.1666545274525 667.9530873712588 757.9999852053327 738.3038156433696C966.8333158832127 808.6545439154805 907.1666499752473 279.9146548054226 1115.9999806531275 265.296321657971C1324.8333113310073 250.67798851051938 1369.583310761982 564.8416303490554 1473.9999761009221 688.1838162806783 " transform="rotate(84, 400, 400)"></path><path d="M-629.2499967281024 769.2375598433783C-529.1840257782849 651.0346316589063 -486.29860965693445 451.5281020777074 -286.16666775729914 363.97037749661706C-86.03472585766383 276.4126529155266 -143.2152806861311 563.6019895415031 56.916661213504085 469.0396469939255C257.0486031131394 374.4773044463479 199.868048284672 -34.66743427471883 399.9999901843073 39.75663161920798C600.1319320839425 114.1806975131348 542.9513772554751 656.7884249885208 743.0833191551105 724.2078729159605C943.2152610547455 791.6273208434001 886.0347062262788 284.9182604462611 1086.1666481259138 270.9090245132867C1286.298590025549 256.89978858031225 1329.1840061468993 557.9732786755759 1429.249977096717 676.176206860048 " transform="rotate(80.5, 400, 400)"></path><path d="M-584.4999358352026 753.1837741232857C-488.7846592745075 640.1201036859646 -447.763826462781 449.2877710430788 -256.3332733413908 365.5369040524706C-64.90272022000045 281.78603706186243 -119.5971639689692 556.4888807910572 71.83338915242109 466.0379444412004C263.26394227381127 375.5870080913436 208.56949852484252 -15.768828946198425 400.0000516462328 55.4194079958185C591.430604767623 126.60764493783546 536.7361610186542 645.6237320882046 728.1667141400444 710.1118996709729C919.5972672614346 774.6000672537413 864.9028235124663 289.9218355695215 1056.3333766338565 276.52169685102416C1247.7639297552466 263.1215581325269 1288.784762566973 551.1048964845182 1384.500039127668 664.1685669218393 " transform="rotate(77, 400, 400)"></path><path d="M-539.749935977459 737.129927368037C-448.3853538058864 629.2055146778669 -409.22910430378386 447.047378973294 -226.49993996063864 367.103369573168C-43.770775617493314 287.15936017304193 -95.97910828696354 549.3757110054553 86.75005605618173 463.03618085331925C269.479220399327 376.6966507011831 217.27088772985678 3.1297153471656998 400.0000520730018 71.08212333727278C582.7292164161474 139.03453132737985 530.5208837466771 634.4589781527322 713.2500480898223 696.0158653908294C895.9792124329674 757.5727526289264 843.7708797634978 294.9253496576256 1026.500044106643 282.1343081536055C1209.2292084497878 269.3432666495853 1248.3854579518907 544.2364532583044 1339.750040123463 652.1608659484745 " transform="rotate(73.5, 400, 400)"></path><path d="M-494.99993611971536 721.0761721655225C-407.9860483372653 618.2910172225035 -370.6943821447867 444.8070784562436 -196.6666065798865 368.6699266465997C-22.63883101498618 292.5327748369559 -72.36105260495776 542.2626327725877 101.66672295994249 460.03450881817236C275.69449852484274 377.806384863757 225.97227693487105 22.0283511932642 400.0000524997713 86.74493023146142C574.0278280646714 151.46150926965868 524.3056064746997 623.2943157699942 698.3333820396001 681.91992266342C872.3611576045002 740.5455295568458 822.638936014529 299.92895529846413 996.6667115794291 287.74701100892116C1170.6944871443293 275.56506671937814 1207.986153336808 537.3681015848249 1295.000041119258 640.1532565278441 " transform="rotate(70, 400, 400)"></path><path d="M-450.2499362619718 705.0223254102738C-367.58674286864425 607.3764282144056 -332.1596599857896 442.5666863864587 -166.83327319913434 370.236392167297C-1.506886412479048 297.9060979481354 -48.7429969229521 535.1494629869856 116.58338986370313 457.032745230291C281.90977665035837 378.91602747359644 234.6736661398853 40.926895486628325 400.00005292654055 102.4076455729157C565.3264397131957 163.88839565920307 518.0903292027228 612.1295618345218 683.416715989378 667.8238883832763C848.7431027760331 723.5182149320309 801.5069922655605 304.93246938656824 966.8333790522156 293.35962231150245C1132.1597658388705 281.7867752364366 1167.5868487217253 530.499658358611 1250.2500421150528 628.1455555544791 " transform="rotate(66.5, 400, 400)"></path><path d="M-405.4999364042282 688.9685091726031C-327.18743740002316 596.4618697238859 -293.6249378267924 440.32632483425203 -136.99993981838224 371.8028882055726C19.625058190028085 303.2794515768931 -25.124941240946384 528.0363237189617 131.5000567674639 454.0310121599879C288.125054775874 380.0257006010141 243.37505534489958 59.825470297570575 400.0000533533097 118.0703914319481C556.6250513617201 176.3153125663256 511.8750519307455 600.9648384166277 668.5000499391558 653.7278846207108C825.1250479475659 706.4909308247941 780.3750485165917 309.93601399225054 937.0000465250018 298.97226413166186C1093.625044533412 288.0085142710732 1127.187544106643 523.6312456499752 1205.5000431108476 616.1378850986924 " transform="rotate(63, 400, 400)"></path><path d="M-360.74993654648466 672.9147081937215C-286.78813193140206 585.5473264921552 -255.0902156677953 438.0859785408343 -107.1666064376301 373.36939950263707C40.75700279253522 308.65282046443986 -1.5068855589406667 520.9231997097268 146.41672367122442 451.02929434847374C294.34033290138973 381.1353889872207 252.07644454991384 78.72406036730192 400.00005378007904 133.73315254976956C547.9236630102442 188.7422447322372 505.65977465876836 589.8001302575224 653.5833838889334 639.6318961169343C801.5069931190988 689.4636619763463 759.2431047676232 314.93957385672184 907.1667139977883 304.58492121061033C1055.0903232279531 294.2302685644987 1086.7882394915603 516.7628482001285 1160.7500441066427 604.1302299016947 " transform="rotate(59.5, 400, 400)"></path><path d="M-315.99993668874106 656.860922473629C-246.38882646278103 574.6327985192136 -216.55549350879812 435.84564750620575 -77.33327305687794 374.93592605849074C61.888947395042294 314.0262046107756 22.111170123064994 513.8100909592811 161.3333905749853 448.0275917957488C300.55561102690535 382.2450926322165 260.7778337549281 97.62266569582229 400.0000542068483 149.39592892638007C539.2222746587684 201.16919215693787 499.4444973867911 578.6354373572063 638.6667178387115 625.5359228719469C777.8889382906314 672.4364083866876 738.1111610186545 319.9431489799822 877.3333814705745 310.19759354834787C1016.5556019224948 300.4520381167134 1046.3889348764776 509.8944660090708 1116.0000451024375 592.1225899634861 " transform="rotate(56, 400, 400)"></path><path d="M-271.2499368309975 640.8070909771693C-205.98952099415993 563.7182247699049 -178.02077134980098 433.60527069521 -47.49993967612579 376.5024068379771C83.02089199754943 319.39954298074423 45.72922580507071 506.6969364324681 176.25005747874593 445.02584346665657C306.7708891524211 383.35475050084506 269.4792229599424 116.52122524797551 400.00005463361754 165.05865952662342C530.5208863072927 213.59609380527132 493.229220114814 567.470698680523 623.7500517884891 611.4399038505924C754.2708834621642 655.4091090206616 716.9792172696859 324.9466783268754 847.500048943361 315.8102201097182C978.020880617036 306.67376189256095 1005.989630261395 503.0260380416459 1071.2500460982324 580.1149042489103 " transform="rotate(52.5, 400, 400)"></path><path d="M-226.4999369732539 624.7533052570768C-165.59021552553884 552.8036967969633 -139.48604919080384 431.3649396605814 -17.66660629537364 378.0689333938308C104.1528366000565 324.77292712708004 69.34728148707643 499.5838276820223 191.16672438250657 442.02414091393155C312.9861672779367 384.4644541458408 278.18061216495664 135.41983057649588 400.0000550603868 180.72143590323395C521.8194979558169 226.023041229972 487.01394284283685 556.306005780207 608.833385738267 597.343930605605C730.652828633697 638.381855431003 695.8472735207172 329.95025345013585 817.6667164161474 321.42289244745575C939.4861593115772 312.89553144477566 965.5903256463123 496.15765585058836 1026.5000470940274 568.1072643107018 " transform="rotate(49, 400, 400)"></path><path d="M-181.7499371155103 608.6995271663787C-125.19091005691777 541.8891764534162 -100.95132703180667 429.1246162553474 12.166727085378454 379.63546757907886C125.28478120256364 330.1463189028104 92.96533716908209 492.47072656097106 206.08339128626727 439.0224459906011C319.20144540345245 385.5741654202311 286.8820013699709 154.3184435344108 400.00005548715603 196.384219909239C513.1181096043412 238.4499962840672 480.7986655708597 545.1413205092854 593.9167196880447 583.2479649900122C707.0347738052297 621.3546094707389 674.7153297717485 334.95383620279074 787.8333838889334 327.0355724145878C900.9514380061187 319.11730862638484 925.1910210312299 489.28928128892517 981.7500480898223 556.0996320018876 " transform="rotate(45.5, 400, 400)"></path><path d="M-136.99993725776673 592.6456575229463C-84.79160458829668 530.9745645571348 -62.41660487280956 426.8842012973789 42.000060466130606 381.2019102115927C146.41672580507077 335.51961912580634 116.58339285108786 485.3575338871854 221.00005819002791 436.0206595145362C325.4167235289681 386.683785141887 295.58339057498506 173.21696493959132 400.0000559139253 212.04691236250966C504.4167212528654 250.876859785428 474.5833882988825 533.9765436856294 579.0000536378226 569.1519078216847C683.4167189767626 604.3272719577403 653.5833860227799 339.95732740271126 758.00005136172 332.6481608289855C862.4167167006599 325.3389942552597 884.7917164161472 482.4208151745277 937.0000490856173 544.0919081403392 " transform="rotate(42, 400, 400)"></path><path d="M-92.24996791760128 576.5919252086155C-44.39232963725374 520.060089989955 -23.881913231390513 424.64392366851206 71.83336332930458 382.76849017320797C167.54863988999978 340.89305667790387 140.2014180155154 478.24447854250127 235.91669457621055 433.01901036757283C331.6319711369056 387.79354219264445 304.28474926242126 192.11562367387344 400.0000258231164 227.70974214488191C495.7153023838115 263.30386061589036 468.3680805093271 522.811904191075 564.0833570700222 555.0559879824591C659.7986336307173 587.3000717738432 632.4514117562331 344.9609559317334 728.1666883169282 338.26088657248476C823.8819648776234 331.5608172132361 844.3923812834864 475.5524863892318 892.250019563834 532.0843216078923 " transform="rotate(38.5, 400, 400)"></path><path d="M-47.49999857743582 560.5380708239722C-3.993054686210769 509.14549335246267 14.652778410028532 422.4035239693327 101.6666661924786 384.3349480645108C188.68055397492878 346.2663721596889 163.819443179943 471.1313011275048 250.83333096239312 430.0172391502971C337.84721874484325 388.90317717308943 312.9861079498574 211.01416033784304 399.9999957323075 243.37244985694167C487.0138835147576 275.7307393760403 462.15277271977175 511.64714262620805 549.1666605022219 540.959946072921C636.180548284672 570.2727495196339 611.3194374896864 349.96446239044303 698.3333252721364 343.8734902456715C785.3472130545865 337.7825181009 803.9930461508259 468.6840355336234 847.4999900420509 520.0766130051329 " transform="rotate(35, 400, 400)"></path><path d="M-2.7499987196922433 544.4842698450907C36.4062507824103 498.230950120732 53.18750056902567 420.1631776759151 131.49999957323075 385.90145936157535C209.81249857743592 351.6397410472356 187.4374988619487 464.01817711826993 265.7499978661538 427.015521338783C344.06249687035887 390.0128655592961 321.68749715487166 229.91275040757435 399.9999961590768 259.0352109747631C478.31249516328194 288.15767154195186 455.9374954477946 500.4824344671029 534.2499944519998 526.8639575691445C612.5624934562048 553.2454806711861 590.1874937407177 354.96802225491433 668.4999927449228 349.48614732462C746.8124917491278 344.00427239432565 763.5937415357433 461.81563808377666 802.7499910378457 508.0689578081353 " transform="rotate(31.5, 400, 400)"></path><path d="M42.000001138051346 528.4304459780254C76.80555625103136 487.3163840008177 91.72222272802281 417.9228084943138 161.3333329539829 387.4679477704563C230.94444317994305 357.01308704659874 211.05555454395437 456.9050302208515 280.6666647699145 424.0137806390853C350.27777499587455 391.1225310573192 330.38888635988593 248.8113175891221 399.999996585846 274.69794920440097C469.61110681180605 300.5845808196799 449.7222181758175 489.3177034198141 519.3333284017776 512.7679461771844C588.9444386277376 536.2181889345547 569.0555499917491 359.97155923120204 638.6666602177091 355.09878151538487C708.2777704436693 350.22600379956765 723.1944369206607 454.94721774574634 757.9999920336406 496.061279722954 " transform="rotate(28, 400, 400)"></path><path d="M86.75000099579492 512.3766602579329C117.20486171965246 476.4018560278762 130.25694488701996 415.68247745968523 191.16666633473505 389.0344743263099C252.07638778245013 362.38647119293455 234.6736102259601 449.79192147040567 295.58333167367516 421.0120780863603C356.49305312139023 392.23223470231494 339.0902755649002 267.7099229176425 399.99999701261527 290.3607255810115C460.90971846033034 313.01152824438054 443.5069409038403 478.153010519498 504.4166623515554 498.67197293219704C565.3263837992704 519.190935344896 547.9236062427805 364.97513435446245 608.8333276904956 360.7114538531224C669.7430491382105 356.44777335178236 682.795132305578 448.0788355546887 713.2499930294356 484.0536397847454 " transform="rotate(24.5, 400, 400)"></path><path d="M131.5000008535385 496.32282876147315C157.60416718827352 465.4872822785674 168.7916670460171 413.44210064868946 220.99999971548718 390.60095510579634C273.20833238495726 367.7598095629032 258.2916659079658 442.6787669435927 310.4999985774358 418.0103297572681C362.7083312469059 393.3418925709435 347.7916647699144 286.60848246979566 399.9999974393845 306.0234561812548C452.20833010885457 325.438429892714 437.2916636318631 466.9882718428147 489.49999630133317 484.5759539108424C541.7083289708032 502.16363597887016 526.7916624938118 369.97866370135563 578.9999951632819 366.32408041449276C631.2083278327518 362.6694971276298 642.3958276904955 441.21040758726383 668.4999940252305 472.0459540701696 " transform="rotate(21, 400, 400)"></path><path d="M176.2500007112821 480.26904304138066C198.00347265689462 454.57275430562584 207.32638920501427 411.2017696140609 250.8333330962393 392.16748166164996C294.3402769874644 373.133193709239 281.90972158997147 435.56565819314693 325.41666548119656 415.0086272045431C368.92360937242165 394.4515962159393 356.49305397492867 305.50708779831604 399.99999786615376 321.68623255786537C443.5069417573788 337.86537731741464 431.0763863598859 455.82357894249856 474.58333025111097 470.479980665855C518.090274142336 485.13638238921146 505.6597187448432 374.98223882461605 549.1666626360682 371.9367527522303C592.6736065272933 368.89126667984453 601.9965230754129 434.3420253962062 623.7499950210254 460.038314131961 " transform="rotate(17.5, 400, 400)"></path><path d="M221.00000056902567 464.21521917431545C238.40277812551568 443.6581881857116 245.8611113640114 408.96140043245964 280.66666647699145 393.73397007053086C315.4722215899715 378.5065397086021 305.5277772719772 428.45251129572847 340.33333238495726 412.0068865048454C375.1388874979373 395.5612617139623 365.19444317994294 324.4056549798638 399.999998292923 337.3489707875032C434.805553405903 350.2922865951427 424.86110908790874 444.65884789520976 459.6666642008888 456.38396927389493C494.4722193138688 468.1090906525801 484.52777499587455 379.98577580090375 519.3333301088546 377.54938694299517C554.1388852218347 375.1129980850866 561.5972184603304 427.4736050581759 578.9999960168203 448.0306360467797 " transform="rotate(14, 400, 400)"></path><path d="M265.75000042676925 448.1614143807366C278.8020835941368 432.7436411392837 284.39583352300855 406.72105032434473 310.4999998577436 395.3004775528982C336.6041661924786 383.8799047814516 329.1458329539829 421.33938347179634 355.2499992887179 409.00516487863405C381.35416562345296 396.67094628547176 373.8958323849572 343.30424123489786 399.99999871969226 353.0117280906274C426.1041650544273 362.719214946357 418.64583181593156 433.49413592140735 444.74999815066656 442.2879769554212C470.8541644854016 451.0818179894351 463.3958312469059 384.9893318506778 489.49999758164097 383.1620402072464C515.6041639163759 381.3347485638149 521.1979138452477 420.6052037936319 534.2499970126153 436.0229770350848 " transform="rotate(10.5, 400, 400)"></path><path d="M310.50000028451285 432.107613401855C319.2013890627578 421.8290979075531 322.9305556820057 404.4807040309271 340.3333332384957 396.8669888499627C357.73611079498573 389.2532736689983 352.76388863598856 414.22625946256153 370.1666661924786 406.00344706711996C387.56944374896864 397.7806346716784 382.59722158997147 362.20283130462917 399.9999991464615 368.6744892084489C417.40277670295154 375.1461471122686 412.4305545439544 422.32942776230215 429.8333321004444 428.19198845164476C447.2361096569344 434.0545491409873 442.2638874979373 389.99289171514914 459.6666650544273 388.77469728619485C477.06944261091735 387.55650285724056 480.7986092301652 413.73680634378525 489.49999800841016 424.0153218380871 " transform="rotate(7, 400, 400)"></path><path d="M355.25000395695366 416.05380860827614C359.6006983460762 410.9145508611252 361.4652816557001 402.2403539228122 370.1666704339451 398.43349633233C378.86805921219013 394.6266387418478 376.38194813269155 407.1131316386294 385.08333691093657 403.0017254409086C393.7847256891816 398.89031924318783 391.298614609683 381.1014175596632 400.000003387928 384.3372465115731C408.70139216617304 387.57307546348295 406.21528108667445 411.16471578849973 414.91666986491947 414.095996133171C423.61805864316443 417.0272764778423 421.1319475636659 394.99644776492323 429.8333363419109 394.38735055044606C438.53472512015594 393.7782533359689 440.39930842977986 406.86840507924126 444.7500028189023 412.0076628263922 " transform="rotate(3.5, 400, 400)"></path></g></svg>