<svg xmlns="http://www.w3.org/2000/svg" version="1.1" xmlns:xlink="http://www.w3.org/1999/xlink" xmlns:svgjs="http://svgjs.dev/svgjs" viewBox="0 0 800 800"><g transform="matrix(1,0,0,1,0,0)"><path d="M680.1510035722558 628.487066304502C682.532762561744 627.1122047805118 685.467237438256 627.1122047805118 687.8489964277442 628.4874512041448L730.1510067672236 652.9104882371098C732.5327657567117 654.2853497611 734.0000031949678 656.8268421023395 734.0000031949678 659.5769500499628V708.4230241158928C734.0000031949678 711.1731320635159 732.5327657567117 713.7146244047555 730.1510067672236 715.0898708283884L687.8489964277442 739.5129078613534C685.467237438256 740.8877693853436 682.532762561744 740.8877693853436 680.1510035722558 739.5125229617106L637.8489932327764 715.0894859287456C635.4672342432883 713.7146244047555 633.9999968050322 711.1731320635159 633.9999968050322 708.4230241158928V659.5769500499628C633.9999968050322 656.8268421023395 635.4672342432883 654.2853497611 637.8489932327764 652.910103337467L680.1510035722558 628.487066304502Z " stroke-width="4" stroke="#001510" fill="none" opacity="0.02" transform="rotate(100, 400, 400)"></path><path d="M674.3335537508686 615.3864421264409C676.8344006898311 613.9428375262512 679.9155993101689 613.9428375262512 682.4164462491314 615.3868462710659L726.8335571055848 641.0310351556791C729.3344040445472 642.4746397558688 730.8750033547161 645.1432067141702 730.8750033547161 648.0308200591746V699.3191978284012C730.8750033547161 702.2068111734056 729.3344040445472 704.8753781317071 726.8335571055848 706.3193868765217L682.4164462491314 731.963575761135C679.9155993101689 733.4071803613247 676.8344006898311 733.4071803613247 674.3335537508686 731.96317161651L629.9164428944152 706.3189827318968C627.4155959554528 704.8753781317071 625.8749966452839 702.2068111734056 625.8749966452839 699.3191978284012V648.0308200591746C625.8749966452839 645.1432067141702 627.4155959554528 642.4746397558688 629.9164428944152 641.0306310110542L674.3335537508686 615.3864421264409Z " stroke-width="4.4875" stroke="#00251c" fill="none" opacity="0.02525" transform="rotate(97.15, 400, 400)"></path><path d="M668.5161039294815 602.2857874308019C671.1360388179182 600.7734397544126 674.3639611820818 600.7734397544126 676.9838960705185 602.2862108204089L723.5161074439459 629.1515515566705C726.1360423323829 630.6638992330597 727.7500035144645 633.4595408084231 727.7500035144645 636.4846595508086V690.2153410233316C727.7500035144645 693.2404597657171 726.1360423323829 696.0361013410806 723.5161074439459 697.5488724070769L676.9838960705185 724.4142131433384C674.3639611820818 725.9265608197277 671.1360388179182 725.9265608197277 668.5161039294815 724.4137897537314L621.9838925560541 697.5484490174698C619.3639576676171 696.0361013410806 617.7499964855355 693.2404597657171 617.7499964855355 690.2153410233316V636.4846595508086C617.7499964855355 633.4595408084231 619.3639576676171 630.6638992330597 621.9838925560541 629.1511281670633L668.5161039294815 602.2857874308019Z " stroke-width="4.975" stroke="#002f24" fill="none" opacity="0.0305" transform="rotate(94.3, 400, 400)"></path><path d="M662.6986541080942 589.1851327351626C665.4376769460055 587.6040419825739 668.8123230539945 587.6040419825739 671.5513458919058 589.1855753697519L720.1986577823071 617.2720679576616C722.9376806202184 618.8531587102503 724.6250036742128 621.7758749026757 724.6250036742128 624.9384990424425V681.1114842182619C724.6250036742128 684.2741083580287 722.9376806202184 687.196824550454 720.1986577823071 688.778357937632L671.5513458919058 716.8648505255417C668.8123230539945 718.4459412781305 665.4376769460055 718.4459412781305 662.6986541080942 716.8644078909525L614.0513422176929 688.7779153030428C611.3123193797816 687.196824550454 609.6249963257872 684.2741083580287 609.6249963257872 681.1114842182619V624.9384990424425C609.6249963257872 621.7758749026757 611.3123193797816 618.8531587102503 614.0513422176929 617.2716253230724L662.6986541080942 589.1851327351626Z " stroke-width="5.4625" stroke="#00382a" fill="none" opacity="0.035750000000000004" transform="rotate(91.45, 400, 400)"></path><path d="M656.8812042867071 576.0844932983126C659.7393150740927 574.4346594695244 663.2606849259073 574.4346594695244 666.118795713293 576.084955177884L716.8812081206684 605.392599617442C719.739318908054 607.0424334462302 721.5000038339613 610.0922242557176 721.5000038339613 613.3923537928654V672.0076426719814C721.5000038339613 675.3077722091293 719.739318908054 678.3575630186167 716.8812081206684 680.0078587269763L666.118795713293 709.3155031665343C663.2606849259073 710.9653369953226 659.7393150740927 710.9653369953226 656.8812042867071 709.3150412869629L606.1187918793316 680.007396847405C603.260681091946 678.3575630186167 601.4999961660387 675.3077722091293 601.4999961660387 672.0076426719814V613.3923537928654C601.4999961660387 610.0922242557176 603.260681091946 607.0424334462302 606.1187918793316 605.3921377378706L656.8812042867071 576.0844932983126Z " stroke-width="5.95" stroke="#004030" fill="none" opacity="0.041" transform="rotate(88.6, 400, 400)"></path><path d="M651.0637544653198 562.9838538614625C654.0409532021799 561.2652769564747 657.7090467978201 561.2652769564747 660.6862455346802 562.9843349860159L713.5637584590295 593.5131312772222C716.5409571958896 595.23170818221 718.3750039937097 598.4085736087593 718.3750039937097 601.8462085432884V662.9038011257009C718.3750039937097 666.3414360602299 716.5409571958896 669.5183014867793 713.5637584590295 671.2373595163205L660.6862455346802 701.7661558075267C657.7090467978201 703.4847327125145 654.0409532021799 703.4847327125145 651.0637544653198 701.7656746829732L598.1862415409705 671.236878391767C595.2090428041104 669.5183014867793 593.3749960062903 666.3414360602299 593.3749960062903 662.9038011257009V601.8462085432884C593.3749960062903 598.4085736087593 595.2090428041104 595.23170818221 598.1862415409705 593.5126501526688L651.0637544653198 562.9838538614625Z " stroke-width="6.4375" stroke="#004635" fill="none" opacity="0.04625" transform="rotate(85.75, 400, 400)"></path><path d="M645.2463046439326 549.8831991658233C648.3425913302672 548.095879184636 652.1574086697328 548.095879184636 655.2536953560674 549.8836995353589L710.2463087973906 581.6336476782134C713.3425954837252 583.4209676594007 715.250004153458 586.7249077030119 715.250004153458 590.3000480349222V653.7999443206312C715.250004153458 657.3750846525413 713.3425954837252 660.6790246961527 710.2463087973906 662.4668450468755L655.2536953560674 694.2167931897301C652.1574086697328 696.0041131709173 648.3425913302672 696.0041131709173 645.2463046439326 694.2162928201944L590.2536912026094 662.46634467734C587.1574045162748 660.6790246961527 585.2499958465419 657.3750846525413 585.2499958465419 653.7999443206312V590.3000480349222C585.2499958465419 586.7249077030119 587.1574045162748 583.4209676594007 590.2536912026094 581.6331473086777L645.2463046439326 549.8831991658233Z " stroke-width="6.925" stroke="#004c39" fill="none" opacity="0.051500000000000004" transform="rotate(82.9, 400, 400)"></path><path d="M639.4288548225454 536.7825597289733C642.6442294583543 534.9264966715865 646.6057705416457 534.9264966715865 649.8211451774546 536.783079343491L706.9288591357518 569.7541793379937C710.1442337715607 571.6102423953805 712.1250043132064 575.0412570560538 712.1250043132064 578.7539027853452V644.6961027743507C712.1250043132064 648.4087485036421 710.1442337715607 651.8397631643154 706.9288591357518 653.6963458362198L649.8211451774546 686.6674458307226C646.6057705416457 688.5235088881094 642.6442294583543 688.5235088881094 639.4288548225454 686.666926216205L582.3211408642482 653.6958262217022C579.1057662284393 651.8397631643154 577.1249956867936 648.4087485036421 577.1249956867936 644.6961027743507V578.7539027853452C577.1249956867936 575.0412570560538 579.1057662284393 571.6102423953805 582.3211408642482 569.7536597234761L639.4288548225454 536.7825597289733Z " stroke-width="7.4125" stroke="#00523e" fill="none" opacity="0.05675000000000001" transform="rotate(80.05, 400, 400)"></path><path d="M633.6114050011581 523.6819126627286C636.9458675864415 521.7571065291423 641.0541324135585 521.7571065291423 644.3885949988419 523.6824515222285L703.611409474113 557.8747033683794C706.9458720593964 559.7995095019658 709.0000044729549 563.357598779701 709.0000044729549 567.2077499063736V635.5922535986756C709.0000044729549 639.4424047253481 706.9458720593964 643.0004940030833 703.611409474113 644.9258389961695L644.3885949988419 679.1180908423205C641.0541324135585 681.0428969759068 636.9458675864415 681.0428969759068 633.6114050011581 679.1175519828207L574.3885905258869 644.9253001366696C571.0541279406036 643.0004940030833 568.9999955270451 639.4424047253481 568.9999955270451 635.5922535986756V567.2077499063736C568.9999955270451 563.357598779701 571.0541279406036 559.7995095019658 574.3885905258869 557.8741645088796L633.6114050011581 523.6819126627286Z " stroke-width="7.9" stroke="#005742" fill="none" opacity="0.062" transform="rotate(77.2, 400, 400)"></path><path d="M627.7939551797709 510.58126559648406C631.2475057145286 508.5877163866982 635.5024942854714 508.5877163866982 638.9560448202291 510.5818237009661L700.2939598124742 545.9952273987653C703.7475103472319 547.9887766085511 705.8750046327032 551.6739405033484 705.8750046327032 555.661597027402V626.4884044230006C705.8750046327032 630.4760609470543 703.7475103472319 634.1612248418514 700.2939598124742 636.1553321561192L638.9560448202291 671.5687358539185C635.5024942854714 673.5622850637044 631.2475057145286 673.5622850637044 627.7939551797709 671.5681777494365L566.4560401875258 636.1547740516373C563.0024896527681 634.1612248418514 560.8749953672968 630.4760609470543 560.8749953672968 626.4884044230006V555.661597027402C560.8749953672968 551.6739405033484 563.0024896527681 547.9887766085511 566.4560401875258 545.9946692942833L627.7939551797709 510.58126559648406Z " stroke-width="8.3875" stroke="#005c45" fill="none" opacity="0.06725" transform="rotate(74.35, 400, 400)"></path><path d="M621.9765053583837 497.4806337890284C625.5491438426159 495.4183415030431 629.9508561573841 495.4183415030431 633.5234946416163 497.4812111384926L696.9765101508353 534.1157666879401C700.5491486350675 536.1780589739254 702.7500047924516 539.9902974857846 702.7500047924516 544.1154594072195V617.3845705061144C702.7500047924516 621.5097324275494 700.5491486350675 625.3219709394085 696.9765101508353 627.384840574858L633.5234946416163 664.0193961243056C629.9508561573841 666.0816884102908 625.5491438426159 666.0816884102908 621.9765053583837 664.0188187748414L558.5234898491647 627.3842632253939C554.9508513649325 625.3219709394085 552.7499952075484 621.5097324275494 552.7499952075484 617.3845705061144V544.1154594072195C552.7499952075484 539.9902974857846 554.9508513649325 536.1780589739254 558.5234898491647 534.115189338476L621.9765053583837 497.4806337890284Z " stroke-width="8.875" stroke="#006149" fill="none" opacity="0.07250000000000001" transform="rotate(71.5, 400, 400)"></path><path d="M616.1590555369966 484.3799714639947C619.8507819707031 482.2489361018099 624.3992180292969 482.2489361018099 628.0909444630034 484.380568058441L693.6590604891966 522.2362754595367C697.3507869229031 524.3673108217216 699.6250049522 528.3066239506428 699.6250049522 532.5692912694587V608.2807060716502C699.6250049522 612.5433733904663 697.3507869229031 616.4826865193875 693.6590604891966 618.6143184760185L628.0909444630034 656.4700258771143C624.3992180292969 658.6010612392992 619.8507819707031 658.6010612392992 616.1590555369966 656.469429282668L550.5909395108035 618.6137218815722C546.8992130770969 616.4826865193875 544.6249950478 612.5433733904663 544.6249950478 608.2807060716502V532.5692912694587C544.6249950478 528.3066239506428 546.8992130770969 524.3673108217216 550.5909395108035 522.2356788650904L616.1590555369966 484.3799714639947Z " stroke-width="9.3625" stroke="#00664c" fill="none" opacity="0.07775" transform="rotate(68.65, 400, 400)"></path><path d="M610.3416057156094 471.2793167683556C614.1524200987903 469.07953832997123 618.8475799012097 469.07953832997123 622.6583942843906 471.2799326077841L690.3416108275577 510.35679186052806C694.1524252107387 512.5565702989124 696.5000051119484 516.6229580448955 696.5000051119484 521.0231307610927V599.1768492665807C696.5000051119484 603.5770219827779 694.1524252107387 607.6434097287611 690.3416108275577 609.8438040065738L622.6583942843906 648.9206632593177C618.8475799012097 651.1204416977022 614.1524200987903 651.1204416977022 610.3416057156094 648.9200474198894L542.6583891724423 609.8431881671454C538.8475747892613 607.6434097287611 536.4999948880516 603.5770219827779 536.4999948880516 599.1768492665807V521.0231307610927C536.4999948880516 516.6229580448955 538.8475747892613 512.5565702989124 542.6583891724423 510.35617602109966L610.3416057156094 471.2793167683556Z " stroke-width="9.85" stroke="#006a4f" fill="none" opacity="0.083" transform="rotate(65.8, 400, 400)"></path><path d="M604.5241558942221 458.17867733150547C608.4540582268775 455.9101558169216 613.2959417731225 455.9101558169216 617.2258441057779 458.17931241591606L687.0241611659189 498.4773235203083C690.9540634985742 500.74584503489217 693.3750052716968 504.9393073979373 693.3750052716968 509.4769855115156V590.0730077203001C693.3750052716968 594.6106858338784 690.9540634985742 598.8041481969235 687.0241611659189 601.0733047959179L617.2258441057779 641.3713159003103C613.2959417731225 643.6398374148941 608.4540582268775 643.6398374148941 604.5241558942221 641.3706808158997L534.7258388340811 601.0726697115074C530.7959365014258 598.8041481969235 528.3749947283032 594.6106858338784 528.3749947283032 590.0730077203001V509.4769855115156C528.3749947283032 504.9393073979373 530.7959365014258 500.74584503489217 534.7258388340811 498.47668843589776L604.5241558942221 458.17867733150547Z " stroke-width="10.337499999999999" stroke="#006e53" fill="none" opacity="0.08825000000000001" transform="rotate(62.949999999999996, 400, 400)"></path><path d="M598.706706072835 445.07803789465544C602.7556963549647 442.74077330387206 607.7443036450353 442.74077330387206 611.793293927165 445.07869222404815L683.7067115042801 486.5978551800887C687.7557017864099 488.935119770872 690.2500054314452 493.25565675097914 690.2500054314452 497.9308402619386V580.9691661740196C690.2500054314452 585.6443496849791 687.7557017864099 589.9648866650862 683.7067115042801 592.3028055852623L611.793293927165 633.8219685413028C607.7443036450353 636.1592331320861 602.7556963549647 636.1592331320861 598.706706072835 633.82131421191L526.7932884957199 592.3021512558696C522.7442982135901 589.9648866650862 520.2499945685548 585.6443496849791 520.2499945685548 580.9691661740196V497.9308402619386C520.2499945685548 493.25565675097914 522.7442982135901 488.935119770872 526.7932884957199 486.59720085069597L598.706706072835 445.07803789465544Z " stroke-width="10.825" stroke="#007256" fill="none" opacity="0.09350000000000001" transform="rotate(60.1, 400, 400)"></path><path d="M592.8892562514477 431.97739082841076C597.0573344830518 429.5713831614279 602.1926655169482 429.5713831614279 606.3607437485523 431.97806440278566L680.3892618426412 474.7183792104744C684.5573400742454 477.12438687745725 687.1250055911935 481.57199847462635 687.1250055911935 486.384687382967V571.8653169983445C687.1250055911935 576.6780059066851 684.5573400742454 581.1256175038542 680.3892618426412 583.532298745212L606.3607437485523 626.2726135529007C602.1926655169482 628.6786212198836 597.0573344830518 628.6786212198836 592.8892562514477 626.2719399785258L518.8607381573588 583.5316251708371C514.6926599257546 581.1256175038542 512.1249944088065 576.6780059066851 512.1249944088065 571.8653169983445V486.384687382967C512.1249944088065 481.57199847462635 514.6926599257546 477.12438687745725 518.8607381573588 474.71770563609954L592.8892562514477 431.97739082841076Z " stroke-width="11.3125" stroke="#007658" fill="none" opacity="0.09875" transform="rotate(57.25, 400, 400)"></path><path d="M587.0718064300605 418.87674376216614C591.358972611139 416.4019930189837 596.641027388861 416.4019930189837 600.9281935699395 418.87743658152306L677.0718121810024 462.83890324086013C681.358978362081 465.3136539840425 684.0000057509419 469.88834019827357 684.0000057509419 474.83853450399533V562.7614678226694C684.0000057509419 567.7116621283911 681.358978362081 572.2863483426222 677.0718121810024 574.7617919051615L600.9281935699395 618.7232585644986C596.641027388861 621.198009307681 591.358972611139 621.198009307681 587.0718064300605 618.7225657451417L510.92818781899757 574.7610990858046C506.64102163791904 572.2863483426222 503.9999942490581 567.7116621283911 503.9999942490581 562.7614678226694V474.83853450399533C503.9999942490581 469.88834019827357 506.64102163791904 465.3136539840425 510.92818781899757 462.83821042150316L587.0718064300605 418.87674376216614Z " stroke-width="11.8" stroke="#007a5b" fill="none" opacity="0.10400000000000001" transform="rotate(54.4, 400, 400)"></path><path d="M581.2543566086733 405.7760966959215C585.6606107392263 403.23260287653966 591.0893892607737 403.23260287653966 595.4956433913267 405.7768087602607L673.7543625193637 450.95942727124594C678.1606166499166 453.50292109062786 680.8750059106903 458.20468192192084 680.8750059106903 463.29238162502384V553.6576186469944C680.8750059106903 558.7453183500973 678.1606166499166 563.4470791813903 673.7543625193637 565.9912850651114L595.4956433913267 611.1739035760966C591.0893892607737 613.7173973954785 585.6606107392263 613.7173973954785 581.2543566086733 611.1731915117575L502.9956374806364 565.9905730007722C498.58938335008344 563.4470791813903 495.87499408930967 558.7453183500973 495.87499408930967 553.6576186469944V463.29238162502384C495.87499408930967 458.20468192192084 498.58938335008344 453.50292109062786 502.9956374806364 450.95871520690685L581.2543566086733 405.7760966959215Z " stroke-width="12.2875" stroke="#007e5e" fill="none" opacity="0.10925000000000001" transform="rotate(51.55, 400, 400)"></path><path d="M575.436906787286 392.67543437088784C579.9622488673135 390.0631974753064 585.5377511326865 390.0631974753064 590.063093212714 392.6761656802091L670.4369128577248 439.07993604284263C674.9622549377522 441.692172938424 677.7500060704388 446.521008386779 677.7500060704388 451.7462134872631V544.5537542125302C677.7500060704388 549.7789593130143 674.9622549377522 554.6077947613693 670.4369128577248 557.2207629662719L590.063093212714 603.6245333289055C585.5377511326865 606.2367702244868 579.9622488673135 606.2367702244868 575.436906787286 603.6238020195842L495.0630871422752 557.2200316569507C490.53774506224784 554.6077947613693 487.7499939295613 549.7789593130143 487.7499939295613 544.5537542125302V451.7462134872631C487.7499939295613 446.521008386779 490.53774506224784 441.692172938424 495.0630871422752 439.07920473352135L575.436906787286 392.67543437088784Z " stroke-width="12.775" stroke="#008161" fill="none" opacity="0.1145" transform="rotate(48.699999999999996, 400, 400)"></path><path d="M569.619456965899 379.57481782222135C574.2638869954006 376.8938378504405 579.9861130045994 376.8938378504405 584.630543034101 379.57556837652476L667.1194631960859 427.20049059080657C671.7638932255877 429.8814705625875 674.6250062301871 434.83738062800444 674.6250062301871 440.20009112586973V535.4499355544333C674.6250062301871 540.8126460522985 671.7638932255877 545.7685561177154 667.1194631960859 548.4502866437998L584.630543034101 596.0752088580816C579.9861130045994 598.7561888298625 574.2638869954006 598.7561888298625 569.619456965899 596.0744583037782L487.130536803914 548.4495360894964C482.4861067744123 545.7685561177154 479.62499376981293 540.8126460522985 479.62499376981293 535.4499355544333V440.20009112586973C479.62499376981293 434.83738062800444 482.4861067744123 429.8814705625875 487.130536803914 427.19974003650316L569.619456965899 379.57481782222135Z " stroke-width="13.2625" stroke="#008563" fill="none" opacity="0.11975000000000001" transform="rotate(45.85, 400, 400)"></path><path d="M563.8020071445117 366.47415549718767C568.5655251234879 363.72443244920726 574.4344748765121 363.72443244920726 579.1979928554883 366.4749252964732L663.8020135344472 415.3209993624032C668.5655315134234 418.07072241038367 671.5000063899355 423.1537070928626 671.5000063899355 428.653922988109V526.3460711199691C671.5000063899355 531.8462870152155 668.5655315134234 536.9292716976945 663.8020135344472 539.6797645449603L579.1979928554883 588.5258386108903C574.4344748765121 591.2755616588709 568.5655251234879 591.2755616588709 563.8020071445117 588.5250688116048L479.19798646555284 539.6789947456748C474.4344684865767 536.9292716976945 471.4999936100645 531.8462870152155 471.4999936100645 526.3460711199691V428.653922988109C471.4999936100645 423.1537070928626 474.4344684865767 418.07072241038367 479.19798646555284 415.32022956311766L563.8020071445117 366.47415549718767Z " stroke-width="13.75" stroke="#008866" fill="none" opacity="0.125" transform="rotate(43, 400, 400)"></path><path d="M557.9845573231245 353.37350843094305C562.867163251575 350.5550423067631 568.882836748425 350.5550423067631 573.7654426768755 353.3742974752107L660.4845638728084 403.441523392789C665.3671698012589 406.2599895169689 668.3750065496838 411.47004881650986 668.3750065496838 417.10777010913745V517.242221944294C668.3750065496838 522.8799432369216 665.3671698012589 528.0900025364624 660.4845638728084 530.90925770491L573.7654426768755 580.9764836224883C568.882836748425 583.7949497466684 562.867163251575 583.7949497466684 557.9845573231245 580.9756945782208L471.26543612719166 530.9084686606425C466.3828301987411 528.0900025364624 463.37499345031614 522.8799432369216 463.37499345031614 517.242221944294V417.10777010913745C463.37499345031614 411.47004881650986 466.3828301987411 406.2599895169689 471.26543612719166 403.44073434852135L557.9845573231245 353.37350843094305Z " stroke-width="14.237499999999999" stroke="#008b68" fill="none" opacity="0.13025" transform="rotate(40.15, 400, 400)"></path><path d="M552.1671075017373 340.27286136469843C557.1688013796622 337.38565216431897 563.3311986203378 337.38565216431897 568.3328924982627 340.2736696539482L657.1671142111695 391.56204742317476C662.1688080890945 394.4492566235542 665.2500067094322 399.7863905401571 665.2500067094322 405.56161723016584V508.13837276861886C665.2500067094322 513.9135994586277 662.1688080890945 519.2507333752305 657.1671142111695 522.1387508648597L568.3328924982627 573.4271286340863C563.3311986203378 576.3143378344657 557.1688013796622 576.3143378344657 552.1671075017373 573.4263203448365L463.3328857888305 522.1379425756099C458.33119191090555 519.2507333752305 455.2499932905678 513.9135994586277 455.2499932905678 508.13837276861886V405.56161723016584C455.2499932905678 399.7863905401571 458.33119191090555 394.4492566235542 463.3328857888305 391.56123913392497L552.1671075017373 340.27286136469843Z " stroke-width="14.725" stroke="#008e6b" fill="none" opacity="0.1355" transform="rotate(37.3, 400, 400)"></path><path d="M546.34965768035 327.1722219278483C551.4704395077495 324.21626965126933 557.7795604922505 324.21626965126933 562.90034231965 327.17304946208026L653.8496645495306 379.68257908295504C658.9704463769301 382.638531359534 662.1250068691807 388.1027398931988 662.1250068691807 394.01547198058876V499.0345312223383C662.1250068691807 504.9472633097282 658.9704463769301 510.4114718433931 653.8496645495306 513.368251654204L562.90034231965 565.8777812750787C557.7795604922505 568.8337335516577 551.4704395077495 568.8337335516577 546.34965768035 565.8769537408468L455.4003354504693 513.367424119972C450.27955362306994 510.4114718433931 447.12499313081935 504.9472633097282 447.12499313081935 499.0345312223383V394.01547198058876C447.12499313081935 388.1027398931988 450.27955362306994 382.638531359534 455.4003354504693 379.68175154872307L546.34965768035 327.1722219278483Z " stroke-width="15.2125" stroke="#00916d" fill="none" opacity="0.14075000000000001" transform="rotate(34.45, 400, 400)"></path><path d="M540.5322078589629 314.07158249099825C545.7720776358367 311.04688713821974 552.2279223641633 311.04688713821974 557.4677921410371 314.07242927021235L650.5322148878919 367.8031107427354C655.7720846647657 370.82780609551384 659.0000070289291 376.4190892462407 659.0000070289291 382.46932673101173V489.9306896760578C659.0000070289291 495.98092716082886 655.7720846647657 501.5722103115557 650.5322148878919 504.5977524435483L557.4677921410371 558.3284339160713C552.2279223641633 561.3531292688498 545.7720776358367 561.3531292688498 540.5322078589629 558.3275871368572L447.4677851121081 504.59690566433414C442.22791533523434 501.5722103115557 438.999992971071 495.98092716082886 438.999992971071 489.9306896760578V382.46932673101173C438.999992971071 376.4190892462407 442.22791533523434 370.82780609551384 447.4677851121081 367.8022639635213L540.5322078589629 314.07158249099825Z " stroke-width="15.7" stroke="#00956f" fill="none" opacity="0.146" transform="rotate(31.599999999999994, 400, 400)"></path><path d="M534.7147580375756 300.97092779535905C540.0737157639238 297.87748936638104 546.6762842360762 297.87748936638104 552.0352419624244 300.9717938195553L647.2147652262531 355.92362714372655C652.5737229526012 359.01706557270455 655.8750071886774 364.73542334049336 655.8750071886774 370.9231662226456V480.82683287098814C655.8750071886774 487.0145757531404 652.5737229526012 492.7329335209292 647.2147652262531 495.82723797410335L552.0352419624244 550.7790712982746C546.6762842360762 553.8725097272527 540.0737157639238 553.8725097272527 534.7147580375756 550.7782052740785L439.53523477374694 495.8263719499072C434.17627704739874 492.7329335209292 430.8749928113226 487.0145757531404 430.8749928113226 480.82683287098814V370.9231662226456C430.8749928113226 364.73542334049336 434.17627704739874 359.01706557270455 439.53523477374694 355.9227611195303L534.7147580375756 300.97092779535905Z " stroke-width="16.1875" stroke="#009871" fill="none" opacity="0.15125" transform="rotate(28.75, 400, 400)"></path><path d="M528.8973082161884 287.8702959879035C534.375353892011 284.70811448272605 541.124646107989 284.70811448272605 546.6026917838116 287.87118125708184L643.8973155646142 344.04416643290136C649.3753612404369 347.20634793807886 652.7500073484258 353.0517803229297 652.7500073484258 359.3770286024631V471.72299895410214C652.7500073484258 478.0482472336355 649.3753612404369 483.89367961848626 643.8973155646142 487.0567463928421L546.6026917838116 543.2297315686617C541.124646107989 546.3919130738391 534.375353892011 546.3919130738391 528.8973082161884 543.2288462994833L431.60268443538575 487.05586112366376C426.1246387595632 483.89367961848626 422.7499926515742 478.0482472336355 422.7499926515742 471.72299895410214V359.3770286024631C422.7499926515742 353.0517803229297 426.1246387595632 347.20634793807886 431.60268443538575 344.043281163723L528.8973082161884 287.8702959879035Z " stroke-width="16.674999999999997" stroke="#009a74" fill="none" opacity="0.1565" transform="rotate(25.89999999999999, 400, 400)"></path><path d="M523.0798583948012 274.7696260334753C528.6769920200982 271.5387014520983 535.5730079799018 271.5387014520983 541.1701416051988 274.7705305476358L640.5798659029754 332.1646675751036C646.1769995282724 335.3955921564806 649.6250075081742 341.36809915839336 649.6250075081742 347.8308528353079V462.6191268902435C649.6250075081742 469.081880567158 646.1769995282724 475.05438756907074 640.5798659029754 478.2862166646083L541.1701416051988 535.680353692076C535.5730079799018 538.9112782734531 528.6769920200982 538.9112782734531 523.0798583948012 535.6794491779156L423.6701340970246 478.2853121504478C418.0730004717276 475.05438756907074 414.6249924918258 469.081880567158 414.6249924918258 462.6191268902435V347.8308528353079C414.6249924918258 341.36809915839336 418.0730004717276 335.3955921564806 423.6701340970246 332.1637630609431L523.0798583948012 274.7696260334753Z " stroke-width="17.1625" stroke="#009d76" fill="none" opacity="0.16175" transform="rotate(23.049999999999997, 400, 400)"></path><path d="M517.262408573414 261.66898659662525C522.9786301481854 258.3693189390487 530.0213698518146 258.3693189390487 535.737591426586 261.6699103557679L637.2624162413366 320.2851992348839C642.978637816108 323.5848668924604 646.5000076679225 329.68444851143516 646.5000076679225 336.28470758573087V453.5152853439629C646.5000076679225 460.1155444182586 642.978637816108 466.21512603723335 637.2624162413366 469.5157174539525L535.737591426586 528.1310063330686C530.0213698518146 531.4306739906451 522.9786301481854 531.4306739906451 517.262408573414 528.1300825739258L415.7375837586634 469.51479369480984C410.021362183892 466.21512603723335 406.49999233207745 460.1155444182586 406.49999233207745 453.5152853439629V336.28470758573087C406.49999233207745 329.68444851143516 410.021362183892 323.5848668924604 415.7375837586634 320.28427547574125L517.262408573414 261.66898659662525Z " stroke-width="17.65" stroke="#00a078" fill="none" opacity="0.167" transform="rotate(20.200000000000003, 400, 400)"></path><path d="M511.4449587520268 248.56834715977513C517.2802682762726 245.1999364259991 524.4697317237274 245.1999364259991 530.3050412479731 248.56929016389992L633.9449665796977 308.4057308946642C639.7802761039436 311.77414162844025 643.375007827671 318.0007978644769 643.375007827671 324.7385623361538V444.4114437976824C643.375007827671 451.14920826935924 639.7802761039436 457.37586450539595 633.9449665796977 460.7452182432968L530.3050412479731 520.581658974061C524.4697317237274 523.950069707837 517.2802682762726 523.950069707837 511.4449587520268 520.5807159699363L407.80503342030227 460.744275239172C401.96972389605645 457.37586450539595 398.37499217232903 451.14920826935924 398.37499217232903 444.4114437976824V324.7385623361538C398.37499217232903 318.0007978644769 401.96972389605645 311.77414162844025 407.80503342030227 308.4047878905394L511.4449587520268 248.56834715977513Z " stroke-width="18.1375" stroke="#00a37a" fill="none" opacity="0.17225" transform="rotate(17.349999999999994, 400, 400)"></path><path d="M505.6275089306396 235.46770772292498C511.5819064043598 232.03055391294944 518.9180935956401 232.03055391294944 524.8724910693604 235.46866997203193L630.627516918059 296.52626255444443C636.5819143917792 299.96341636441997 640.2500079874194 306.31714721751865 640.2500079874194 313.1924170865767V435.3076022514017C640.2500079874194 442.18287212045976 636.5819143917792 448.53660297355844 630.627516918059 451.9747190326409L524.8724910693604 513.0323116150535C518.9180935956401 516.4694654250291 511.5819064043598 516.4694654250291 505.6275089306396 513.0313493659464L399.8724830819411 451.973756783534C393.91808560822085 448.53660297355844 390.24999201258066 442.18287212045976 390.24999201258066 435.3076022514017V313.1924170865767C390.24999201258066 306.31714721751865 393.91808560822085 299.96341636441997 399.8724830819411 296.5253003053375L505.6275089306396 235.46770772292498Z " stroke-width="18.625" stroke="#00a67c" fill="none" opacity="0.1775" transform="rotate(14.5, 400, 400)"></path><path d="M499.8100591092524 222.36703776849677C505.883544532447 218.86114088232173 513.366455467553 218.86114088232173 519.4399408907476 222.36801926258585L627.3100672564201 284.64676369664664C633.3835526796147 288.1526605828217 637.1250081471677 294.6334660529823 637.1250081471677 301.64624131942156V426.2037301875431C637.1250081471677 433.2165054539823 633.3835526796147 439.697310924143 627.3100672564201 443.20418930440707L519.4399408907476 505.4829337384678C513.366455467553 508.98883062464284 505.883544532447 508.98883062464284 499.8100591092524 505.48195224437876L391.9399327435799 443.20320781031796C385.86644732038525 439.697310924143 382.1249918528323 433.2165054539823 382.1249918528323 426.2037301875431V301.64624131942156C382.1249918528323 294.6334660529823 385.86644732038525 288.1526605828217 391.9399327435799 284.64578220255754L499.8100591092524 222.36703776849677Z " stroke-width="19.112499999999997" stroke="#00a87e" fill="none" opacity="0.18275" transform="rotate(11.649999999999991, 400, 400)"></path><path d="M493.9926092878652 209.2664288492248C500.1851826605342 205.69178888685028 507.8148173394658 205.69178888685028 514.0073907121348 209.26742958829604L623.9926175947813 272.76732587400505C630.1851909674504 276.3419658363796 634.000008306916 282.94984592360225 634.000008306916 290.1001265874226V417.09991915884063C634.000008306916 424.250199822661 630.1851909674504 430.85807990988366 623.9926175947813 434.43372061132936L514.0073907121348 497.9336168970384C507.8148173394658 501.5082568594129 500.1851826605342 501.5082568594129 493.9926092878652 497.9326161579671L384.0073824052187 434.4327198722582C377.8148090325497 430.85807990988366 373.99999169308387 424.250199822661 373.99999169308387 417.09991915884063V290.1001265874226C373.99999169308387 282.94984592360225 377.8148090325497 276.3419658363796 384.0073824052187 272.7663251349339L493.9926092878652 209.2664288492248Z " stroke-width="19.6" stroke="#00ab80" fill="none" opacity="0.188" transform="rotate(8.799999999999997, 400, 400)"></path><path d="M488.17515946647796 196.1657283772185C494.4868207886214 192.5223453386444 502.2631792113786 192.5223453386444 508.57484053352204 196.16674836127186L620.6751679331425 260.88779649862914C626.9868292552859 264.5311795372032 630.8750084666644 271.2661342414878 630.8750084666644 278.55392030268933V407.99601657740385C630.8750084666644 415.2838026386054 626.9868292552859 422.01875734289 620.6751679331425 425.6631603655174L508.57484053352204 490.3842085028746C502.2631792113786 494.02759154144877 494.4868207886214 494.02759154144877 488.17515946647796 490.38318851882144L376.07483206685754 425.6621403814641C369.7631707447141 422.01875734289 365.8749915333355 415.2838026386054 365.8749915333355 407.99601657740385V278.55392030268933C365.8749915333355 271.2661342414878 369.7631707447141 264.5311795372032 376.07483206685754 260.8867765145758L488.17515946647796 196.1657283772185Z " stroke-width="20.0875" stroke="#00ae82" fill="none" opacity="0.19325" transform="rotate(5.950000000000003, 400, 400)"></path><path d="M482.3577096450908 183.06510419915747C488.7884589167086 179.3529780843839 496.7115410832914 179.3529780843839 503.1422903549092 183.06614342819296L617.3577182715037 249.0083434171985C623.7884675431214 252.72046953197207 627.7500086264129 259.5824988533186 627.7500086264129 267.0077903119013V398.8921902899124C627.7500086264129 406.3174817484951 623.7884675431214 413.1795110698416 617.3577182715037 416.89267641365063L503.1422903549092 482.83487640265616C496.7115410832914 486.54700251742975 488.7884589167086 486.54700251742975 482.3577096450908 482.83383717362074L368.14228172849636 416.8916371846152C361.7115324568785 413.1795110698416 357.74999137358714 406.3174817484951 357.74999137358714 398.8921902899124V267.0077903119013C357.74999137358714 259.5824988533186 361.7115324568785 252.72046953197207 368.14228172849636 249.007304188163L482.3577096450908 183.06510419915747Z " stroke-width="20.575" stroke="#00b084" fill="none" opacity="0.1985" transform="rotate(3.0999999999999943, 400, 400)"></path><path d="M476.54025982370354 169.96449527988545C483.0900970447958 166.18362608891238 491.1599029552042 166.18362608891238 497.70974017629646 169.9655537539031L614.0402686098648 237.12890559455684C620.5901058309571 240.90977478552998 624.6250087861613 247.89887872393848 624.6250087861613 255.46167557990236V389.78837926120985C624.6250087861613 397.35117611717374 620.5901058309571 404.3402800555823 614.0402686098648 408.122207720573L497.70974017629646 475.2855595612267C491.1599029552042 479.0664287521997 483.0900970447958 479.0664287521997 476.54025982370354 475.28450108720915L360.2097313901352 408.1211492465553C353.65989416904296 404.3402800555823 349.6249912138387 397.35117611717374 349.6249912138387 389.78837926120985V255.46167557990236C349.6249912138387 247.89887872393848 353.65989416904296 240.90977478552998 360.2097313901352 237.1278471205393L476.54025982370354 169.96449527988545Z " stroke-width="21.0625" stroke="#00b386" fill="none" opacity="0.20375000000000001" transform="rotate(0.25, 400, 400)"></path><path d="M470.72281000231635 156.86379480787912C477.391735172883 153.0141825407065 485.608264827117 153.0141825407065 492.27718999768365 156.86487252687888L610.722818948226 225.24937621918093C617.3917441187926 229.0989884863535 621.5000089459097 236.21516704182403 621.5000089459097 243.91546929516903V380.6844766797731C621.5000089459097 388.38477893311807 617.3917441187926 395.5009574885886 610.722818948226 399.35164747476097L492.27718999768365 467.7361511670629C485.608264827117 471.5857634342356 477.391735172883 471.5857634342356 470.72281000231635 467.73507344806325L352.277181051774 399.3505697557612C345.60825588120736 395.5009574885886 341.49999105409034 388.38477893311807 341.49999105409034 380.6844766797731V243.91546929516903C341.49999105409034 236.21516704182403 345.60825588120736 229.0989884863535 352.277181051774 225.2482985001812L470.72281000231635 156.86379480787912Z " stroke-width="21.55" stroke="#00b588" fill="none" opacity="0.209" transform="rotate(-2.6000000000000085, 400, 400)"></path><path d="M464.90536018092916 143.76318588860715C471.69337330097017 139.84483054523506 480.05662669902983 139.84483054523506 486.84463981907084 143.76428285258908L607.4053692865872 213.36993839653934C614.1933824066282 217.28829373991147 618.375009105658 224.53154691244396 618.375009105658 232.36935456317013V371.5806656510706C618.375009105658 379.41847330179684 614.1933824066282 386.66172647432927 607.4053692865872 390.5811787816833L486.84463981907084 460.18683432563364C480.05662669902983 464.10518966900565 471.69337330097017 464.10518966900565 464.90536018092916 460.1857373616516L344.3446307134128 390.58008181770145C337.55661759337175 386.66172647432927 333.374990894342 379.41847330179684 333.374990894342 371.5806656510706V232.36935456317013C333.374990894342 224.53154691244396 337.55661759337175 217.28829373991147 344.3446307134128 213.36884143255747L464.90536018092916 143.76318588860715Z " stroke-width="22.037499999999998" stroke="#00b88a" fill="none" opacity="0.21425" transform="rotate(-5.450000000000003, 400, 400)"></path><path d="M459.0879103595419 130.66251593417894C465.9950114290574 126.67541751460732 474.5049885709426 126.67541751460732 481.4120896404581 130.663632143143L604.0879196249484 201.49043953874155C610.9950206944638 205.47753795831312 615.2500092654064 212.84786574790763 615.2500092654064 220.82317879601493V362.476793587212C615.2500092654064 370.45210663531935 610.9950206944638 377.82243442491375 604.0879196249484 381.8106490534494L481.4120896404581 452.637456449048C474.5049885709426 456.62455486861967 465.9950114290574 456.62455486861967 459.0879103595419 452.63634024008394L336.41208037505163 381.80953284448543C329.5049793055362 377.82243442491375 325.24999073459355 370.45210663531935 325.24999073459355 362.476793587212V220.82317879601493C325.24999073459355 212.84786574790763 329.5049793055362 205.47753795831312 336.41208037505163 201.4893233297775L459.0879103595419 130.66251593417894Z " stroke-width="22.525" stroke="#00ba8b" fill="none" opacity="0.2195" transform="rotate(-8.299999999999997, 400, 400)"></path><path d="M453.27046053815474 117.56187649732885C460.2966495571446 113.50603500155773 468.9533504428554 113.50603500155773 475.97953946184526 117.56301195127509L600.7704699633096 189.61097119852184C607.7966589822994 193.66681269429296 612.1250094251548 201.16421510094938 612.1250094251548 209.2770335464379V353.3729520409314C612.1250094251548 361.48577048641994 607.7966589822994 368.98317289307636 600.7704699633096 373.0401498427937L475.97953946184526 445.08810909004046C468.9533504428554 449.1439505858116 460.2966495571446 449.1439505858116 453.27046053815474 445.0869736360943L328.47953003669045 373.0390143888475C321.4533410177006 368.98317289307636 317.1249905748452 361.48577048641994 317.1249905748452 353.3729520409314V209.2770335464379C317.1249905748452 201.16421510094938 321.4533410177006 193.66681269429296 328.47953003669045 189.60983574457566L453.27046053815474 117.56187649732885Z " stroke-width="23.0125" stroke="#00bd8d" fill="none" opacity="0.22475" transform="rotate(-11.150000000000006, 400, 400)"></path><path d="M447.4530107167675 104.46125231926777C454.59828768523175 100.33666774729716 463.40171231476825 100.33666774729716 470.5469892832325 104.46240701819613L597.4530203016707 177.73151811709113C604.5982972701349 181.8561026890618 609.0000095849032 189.48057971278024 609.0000095849032 197.7309035556499V344.2691257534399C609.0000095849032 352.5194495963096 604.5982972701349 360.14392662002797 597.4530203016707 364.26966589092694L470.5469892832325 437.53877698982205C463.40171231476825 441.6633615617925 454.59828768523175 441.6633615617925 447.4530107167675 437.53762229089375L320.54697969832927 364.26851119199864C313.401702729865 360.14392662002797 308.9999904150968 352.5194495963096 308.9999904150968 344.2691257534399V197.7309035556499C308.9999904150968 189.48057971278024 313.401702729865 181.8561026890618 320.54697969832927 177.73036341816288L447.4530107167675 104.46125231926777Z " stroke-width="23.5" stroke="#00bf8f" fill="none" opacity="0.23" transform="rotate(-14, 400, 400)"></path></g></svg>